<svg width="593" height="563" viewBox="0 0 593 563" fill="none" xmlns="http://www.w3.org/2000/svg">
<path d="M253 427.958C252.253 292.721 251.64 250.533 251.154 246.958C250.86 244.791 250.565 242.625 250.271 240.458C249.398 244.867 248.524 249.277 247.651 253.686C244.975 267.198 240.605 304.689 239.401 324.458C239.033 330.508 238.339 335.958 237.859 336.569C237.324 337.25 237.919 339.38 239.397 342.069C242.372 347.482 246.266 361.543 245.478 364.026C244.769 366.26 241.608 367.397 239.454 366.192C238.581 365.704 237 363.989 235.94 362.381C235.298 361.407 234.655 360.432 234.013 359.458C234.015 360.958 234.016 362.458 234.018 363.958C234.021 366.433 234.688 370.933 235.5 373.958C238.506 385.156 236.957 388.164 229.248 386.102C222.996 384.43 215.544 378.74 212.236 373.113C209.583 368.6 209.501 368.011 209.542 353.77C209.581 340.048 209.457 339.05 207.642 338.575C205.764 338.084 205.718 337.242 206.29 313.262C207.282 271.689 211.537 238.519 220.551 202.09C223.051 191.987 224.882 183.507 224.62 183.245C224.358 182.983 218.599 183.274 211.822 183.892C172.079 187.514 141.273 201.505 114.958 227.887C93.665 249.234 78.333 274.612 67.491 306.453C57.579 335.562 52.048 373.571 53.413 403.208C53.609 407.458 53.804 411.708 54 415.958C53.804 416.482 53.609 417.007 53.413 417.531C53.089 418.399 52.192 418.848 50 417.958C50.839 363.276 51.78 351.901 57.382 328.669C64.751 298.112 76.882 270.583 93.177 247.439C102.113 234.747 122.239 214.808 133.953 207.042C158.546 190.737 185.375 181.85 214.815 180.257C218.587 180.053 222.357 179.849 226.129 179.645C227.079 177.78 228.029 175.917 228.979 174.052C235.947 160.374 242.539 155.12 260.908 148.603C265.272 147.055 269.636 145.506 274 143.958C274.333 144.958 274.667 145.958 275 146.958C248.153 156.14 240.264 160.954 233.728 172.144C229 180.239 221.382 209.505 216.528 238.228C213.185 258.006 211.233 276.924 210.029 301.208C209.686 308.125 209.343 315.041 209 321.958C209 323.291 209 324.625 209 325.958C209 328.958 209 331.958 209 334.958C212.917 334.953 216.833 334.948 220.75 334.943C227.213 334.935 232.998 334.597 233.606 334.193C234.214 333.789 235.002 331.77 235.356 329.708C235.571 328.458 235.785 327.208 236 325.958C236 324.291 236 322.625 236 320.958C239.848 277.653 242.349 259.206 247.641 235.068C249.807 225.188 250.119 221.703 249.735 211.679C249.311 200.603 249.909 197.421 252.007 199.595C252.465 200.07 253.588 219.358 254.501 242.458C255.414 265.558 256.336 285.02 256.549 285.708C256.852 286.684 267.097 286.958 303.372 286.958C318.85 286.958 334.33 286.958 349.808 286.958C350.029 283.541 350.249 280.125 350.47 276.708C350.835 271.07 351.891 249.364 352.817 228.471C354.405 192.639 354.608 190.463 356.403 190.118C358.174 189.778 358.262 190.232 357.663 196.679C357.448 198.988 357.234 201.297 357.019 203.606C362.433 208.952 367.845 214.298 373.259 219.644C382.191 228.465 391.394 236.644 393.71 237.82C396.464 239.219 399.784 239.958 403.31 239.958C411.09 239.958 415.8 236.31 420.376 226.74C424.779 217.531 431.112 199.162 435.556 182.708C436.704 178.458 437.852 174.208 439 169.958C439.333 168.625 439.667 167.291 440 165.958C440.167 162.89 440.333 159.823 440.5 156.755C436.432 155.449 432.364 154.143 428.296 152.837C424.228 151.531 420.16 150.225 416.092 148.919C415.743 150.259 415.395 151.598 415.046 152.938C414.697 154.278 414.349 155.618 414 156.958C413.333 158.291 412.667 159.625 412 160.958C396.989 202.297 394.848 207.193 393.912 206.263C392.975 205.332 392.987 204.074 393.968 200.571C394.388 199.072 394.807 197.574 395.227 196.075C390.272 190.18 385.319 184.284 380.364 178.389C363.096 157.842 359.117 154.869 342.351 149.978C338.901 148.971 335.45 147.965 332 146.958C331.667 145.625 331.333 144.291 331 142.958C362.343 151.966 363.605 152.788 384.408 177.752C390.957 185.611 396.631 191.686 397.017 191.25C397.402 190.814 401.407 180.248 405.916 167.77C411.576 152.107 414.613 144.986 415.726 144.77C417.015 144.52 417.124 144.055 416.267 142.455C415.677 141.354 414.216 134.656 413.019 127.57C411.046 115.888 410.989 114.541 412.406 113.124C414.98 110.55 419.122 112.676 421.604 117.844C422.305 119.305 423.007 120.765 423.708 122.226C424.427 119.431 425.146 116.637 425.865 113.842C430.504 95.8031 430.196 96.4581 434.04 96.4581C437.059 96.4581 437.556 96.8261 438.098 99.4581C438.304 100.458 438.51 101.458 438.716 102.458C439.146 101.327 439.575 100.196 440.005 99.0651C442.441 92.6561 450 92.9021 450 99.3911C450 101.244 450.441 101.597 452.311 101.239C455.658 100.599 457.368 103.179 456.733 107.911C456.241 111.579 456.385 111.865 458.853 112.151C463.678 112.71 462.894 116.921 455.034 132.68C451.151 140.466 446.835 148.188 445.444 149.842C443.333 152.351 443.111 153.162 444.098 154.743C447.026 159.431 430 218.045 421.496 232.556C414.986 243.665 402.398 246.865 391.081 240.288C388.561 238.824 379.902 231.133 371.838 223.199C366.951 218.39 362.064 213.582 357.177 208.773C356.938 213.604 356.698 218.435 356.459 223.266C356.22 228.097 355.98 232.928 355.741 237.759C359.034 241.386 362.327 245.014 365.62 248.641C382.569 267.309 394.551 284.552 404.201 304.169C406.134 308.099 408.067 312.028 410 315.958C409.333 317.291 408.667 318.625 408 319.958C395.691 294.84 386.515 279.399 376.206 266.458C366.832 254.691 356.739 243.816 355.974 244.659C354.258 246.552 352.776 302.462 353.379 342.599C353.586 356.385 353.793 370.172 354 383.958C354.333 384.958 354.667 385.958 355 386.958C354.658 437.127 354.317 487.296 353.975 537.465C357.924 539.543 361.872 541.621 365.821 543.699C372.336 547.127 378.491 550.843 379.498 551.956C380.624 553.2 381.361 555.611 381.414 558.218C381.443 559.631 381.471 561.045 381.5 562.458C372.135 562.546 362.769 562.635 353.404 562.723C326.22 562.98 325.222 562.921 322.654 560.901C320.112 558.901 320 558.408 320 549.246C320 542.282 319.622 539.376 318.611 538.568C317.53 537.703 316.423 524.013 313.611 476.708C312.407 456.458 311.204 436.208 310 415.958C309.667 414.958 309.333 413.958 309 412.958C305.161 340.827 304.333 330.958 303.377 330.958C302.424 330.958 301.496 341.419 299.559 373.958C298.706 388.291 297.853 402.625 297 416.958C297 417.958 297 418.958 297 419.958C296.18 425.77 294.389 452.401 292.49 482.887C290.036 522.29 288.684 538.535 287.815 539.072C286.961 539.6 286.678 542.551 286.878 548.857C287.148 557.389 287.024 558.025 284.612 560.437C283.761 561.288 282.911 562.138 282.06 562.989C272.633 562.9 263.207 562.813 253.78 562.724C244.353 562.635 234.927 562.547 225.5 562.458C225.398 561.234 225.296 560.01 225.194 558.786C224.752 553.481 228.385 550.005 241.5 543.181C245.167 541.273 248.833 539.366 252.5 537.458C252.583 520.041 252.667 502.625 252.75 485.208C252.833 467.791 252.917 450.375 253 432.958C253 431.291 253 429.625 253 427.958ZM239.657 351.909C238.428 347.757 236.396 342.919 235.143 341.159C232.871 337.969 232.835 337.958 223.967 337.958C216.226 337.958 214.937 338.206 214.046 339.872C212.525 342.713 211.383 362.458 212.789 361.589C213.497 361.152 214.123 362.272 214.517 364.68C215.786 372.435 216.176 373.948 217.049 374.488C217.543 374.793 217.903 372.222 217.853 368.75C217.803 365.29 218.028 362.233 218.354 361.958C218.679 361.683 219.773 365.185 220.784 369.741C222.053 375.46 223.343 378.711 224.95 380.241C227.131 382.317 227.234 382.331 226.572 380.458C225.292 376.834 223.03 366.501 223.015 364.208C222.988 360.089 225.782 361.692 226.501 366.208C227.524 372.636 229.881 380.415 231.454 382.552C233.754 385.676 234.401 382.046 232.616 376.035C227.689 359.444 231.339 345.798 237.468 357.894C240.047 362.984 242.046 364.463 241.946 361.208C241.917 360.246 240.887 356.061 239.657 351.909ZM283.268 543.208C283.14 541.791 283.013 540.375 282.885 538.958C278.591 538.958 274.297 538.958 270.003 538.958C265.709 538.958 261.414 538.958 257.12 538.958C252.683 541.295 248.247 543.633 243.81 545.97C230.899 552.772 228 554.913 228 557.649C228 559.469 280.983 559.575 282.8 557.758C283.951 556.607 284.089 552.326 283.268 543.208ZM350.25 359.708C350.162 336.791 350.074 313.875 349.986 290.958C334.54 290.958 319.093 290.958 303.647 290.958C288.201 290.958 272.753 290.958 257.307 290.958C257.089 295.01 256.872 299.063 256.654 303.115C256.294 309.801 256 364.926 256 425.615C256 462.396 256 499.177 256 535.958C261 535.958 266 535.958 271 535.958C276 535.958 281 535.958 286 535.958C286.016 534.875 286.033 533.791 286.049 532.708C286.076 530.921 288.91 484.908 292.349 430.458C294.433 397.458 296.517 364.458 298.601 331.458C297.751 331.288 296.901 331.118 296.051 330.948C294.648 330.668 293.5 329.768 293.5 328.948C293.5 327.728 295.298 327.458 303.417 327.458C310.494 327.458 313.454 327.818 313.753 328.716C314.005 329.473 312.944 330.219 311.086 330.591C309.389 330.93 308.001 331.489 308.001 331.833C308.001 332.177 309.79 361.258 311.975 396.458C314.16 431.658 316.882 475.983 318.023 494.958C319.164 513.933 320.321 530.921 320.594 532.708C320.759 533.791 320.926 534.875 321.091 535.958C325.86 535.958 330.628 535.958 335.397 535.958C340.166 535.958 344.935 535.958 349.704 535.958C349.918 533.208 350.132 530.458 350.346 527.708C350.699 523.171 350.881 498.983 350.751 473.958C350.621 448.933 350.395 397.52 350.25 359.708ZM377.943 556.332C376.952 553.655 373.496 551.207 364 546.458C359.875 544.395 355.306 541.864 353.846 540.833C351.568 539.224 349.279 538.958 337.712 538.958C322.151 538.958 323.038 538.287 323.014 550.086C323.005 554.498 323.458 557.094 324.372 557.852C325.341 558.656 333.532 558.913 352.237 558.725C361.068 558.636 369.899 558.547 378.73 558.458C378.468 557.749 378.205 557.041 377.943 556.332ZM458.588 114.958C458.361 114.958 456.088 117.883 453.537 121.458C449.514 127.096 446 129.749 446 127.148C446 126.339 449.331 117.781 452.387 110.74C454.264 106.415 454.407 104.958 452.957 104.958C452.383 104.958 449.916 109.233 447.475 114.458C443.249 123.503 441.875 125.184 440.514 122.981C440.039 122.212 444.441 105.43 446.75 99.2081C447.005 98.5201 446.559 97.9581 445.759 97.9581C444.817 97.9581 442.801 102.014 440.043 109.458C437.152 117.259 435.289 120.958 434.251 120.958C432.993 120.958 432.829 120.022 433.334 115.708C433.672 112.821 434.248 107.871 434.614 104.708C435.777 94.6651 433.479 98.3031 429.878 112.208C428.734 116.625 427.59 121.041 426.446 125.458C427.728 126.679 429.011 127.899 430.293 129.12C433.635 132.302 434.07 133.219 433.605 136.12C432.937 140.284 432.363 140.322 431.032 136.291C430.457 134.549 428.527 131.959 426.743 130.536C421.19 126.104 420.343 125.048 419.15 121.065C417.799 116.557 414.989 113.51 415.018 116.586C415.062 121.177 418.052 137.662 419.644 142.088C420.228 143.713 420.813 145.338 421.397 146.963C424.204 147.877 427.01 148.791 429.817 149.705C432.624 150.619 435.431 151.534 438.238 152.448C439.375 151.132 440.513 149.816 441.65 148.5C443.527 146.329 448.198 138.282 452.031 130.617C458.519 117.644 459.643 114.958 458.588 114.958Z" fill="#232323"/>
<path d="M209 321.958C209.343 315.041 209.686 308.125 210.029 301.208C211.233 276.924 213.185 258.006 216.528 238.228C221.382 209.505 229 180.239 233.728 172.144C240.264 160.954 248.153 156.14 275 146.958C275.802 148.595 276.603 150.233 277.405 151.87C281.905 161.062 288.084 170.958 289.325 170.958C290.005 170.958 293.234 168.258 296.5 164.958C299.766 161.658 302.916 158.958 303.5 158.958C304.084 158.958 307.246 161.67 310.526 164.984C313.806 168.298 317.13 170.886 317.913 170.734C318.696 170.582 322.185 165.17 332 146.958C335.45 147.965 338.901 148.971 342.351 149.978C359.117 154.869 363.096 157.842 380.364 178.389C385.319 184.284 390.272 190.18 395.227 196.075C394.807 197.574 394.388 199.072 393.968 200.571C392.987 204.074 392.975 205.332 393.912 206.263C394.848 207.193 396.989 202.297 412 160.958C421 163.958 430 166.958 439 169.958C437.852 174.208 436.704 178.458 435.556 182.708C431.112 199.162 424.779 217.531 420.376 226.74C415.8 236.31 411.09 239.958 403.31 239.958C399.784 239.958 396.464 239.219 393.71 237.82C391.394 236.644 382.191 228.465 373.259 219.644C367.845 214.298 362.433 208.952 357.019 203.606C357.234 201.297 357.448 198.988 357.663 196.679C358.262 190.232 358.174 189.778 356.403 190.118C354.608 190.463 354.405 192.639 352.817 228.471C351.891 249.364 350.835 271.07 350.47 276.708C350.249 280.125 350.029 283.541 349.808 286.958C334.33 286.958 318.85 286.958 303.372 286.958C267.097 286.958 256.852 286.684 256.549 285.708C256.336 285.02 255.414 265.558 254.501 242.458C253.588 219.358 252.465 200.07 252.007 199.595C249.909 197.421 249.311 200.603 249.735 211.679C250.119 221.703 249.807 225.188 247.641 235.068C242.349 259.206 239.848 277.653 236 320.958C227 321.291 218 321.625 209 321.958Z" fill="white"/>
<path d="M350.25 359.708C350.395 397.52 350.621 448.933 350.751 473.958C350.881 498.983 350.699 523.171 350.346 527.708C350.132 530.458 349.918 533.208 349.704 535.958C344.935 535.958 340.166 535.958 335.397 535.958C330.628 535.958 325.86 535.958 321.091 535.958C320.926 534.875 320.759 533.791 320.594 532.708C320.321 530.921 319.164 513.933 318.023 494.958C316.882 475.983 314.16 431.658 311.975 396.458C309.79 361.258 308.001 332.177 308.001 331.833C308.001 331.489 309.389 330.93 311.086 330.591C312.944 330.219 314.005 329.473 313.753 328.716C313.454 327.818 310.494 327.458 303.417 327.458C295.298 327.458 293.5 327.728 293.5 328.948C293.5 329.768 294.648 330.668 296.051 330.948C296.901 331.118 297.751 331.288 298.601 331.458C296.517 364.458 294.433 397.458 292.349 430.458C288.91 484.908 286.076 530.921 286.049 532.708C286.033 533.791 286.016 534.875 286 535.958C281 535.958 276 535.958 271 535.958C266 535.958 261 535.958 256 535.958C256 499.177 256 462.396 256 425.615C256 364.926 256.294 309.801 256.654 303.115C256.872 299.063 257.089 295.01 257.307 290.958C272.753 290.958 288.201 290.958 303.647 290.958C319.093 290.958 334.54 290.958 349.986 290.958C350.074 313.875 350.162 336.791 350.25 359.708Z" fill="white"/>
<path d="M318 136.958C317.833 133.969 317.667 130.981 317.5 127.992C315.864 128.486 314.227 128.981 312.591 129.475C304.653 131.873 298.918 131.373 289.75 127.486C288.229 126.841 288 127.347 288 131.351C288 132.887 288 134.422 288 135.958C287 135.625 286 135.291 285 134.958C285 125.385 284.539 124.19 281.543 120.874C277.511 116.411 274.67 111.158 273.066 105.202C272.391 102.694 271.331 100.958 270.477 100.958C269.682 100.958 267.647 99.7201 265.954 98.2081C261.606 94.3231 260.951 88.7341 264.274 83.8651C266.658 80.3711 266.689 80.0971 265.384 73.8651C262.152 58.4351 265.275 47.5721 273.98 43.9661C275.641 43.2781 277 42.2501 277 41.6811C277 41.1121 278.189 39.0881 279.643 37.1821C285.365 29.6801 300.097 26.2471 313.271 29.3461C334.9 34.4341 343.918 48.3941 341.013 72.2871C339.968 80.8801 340.013 81.3441 342.098 83.5631C344.788 86.4261 345.014 92.7621 342.559 96.5091C341.616 97.9481 339.304 99.7691 337.422 100.555C334.979 101.576 333.997 102.624 333.99 104.221C333.975 107.676 329.586 116.303 325.597 120.719C322.453 124.2 322 125.346 322 129.829C322 131.539 322 133.248 322 134.958C320.667 135.625 319.333 136.291 318 136.958ZM271.163 83.5591C270.703 83.2741 269.353 83.7231 268.163 84.5561C265.099 86.7021 265.181 92.8411 268.314 95.7841C269.587 96.9801 270.937 97.9581 271.314 97.9581C272.305 97.9581 272.16 84.1751 271.163 83.5591ZM336.446 51.8671C334.397 45.2141 328.335 38.8381 320.808 35.4171C315.518 33.0131 312.887 32.4911 304.5 32.1811C295.122 31.8351 294.158 31.9871 289 34.6351C285.148 36.6121 282.87 38.5981 281.398 41.2621C280.242 43.3541 277.799 45.8291 275.969 46.7621C269.069 50.2801 266.521 57.4651 268.123 68.8891C269.819 80.9861 271.443 82.4851 272.23 72.6791C273.594 55.6921 282.922 50.5591 301.5 56.5731C307.687 58.5761 311.468 59.1521 318.182 59.1131C325.554 59.0711 327.27 59.3831 329.553 61.1791C333.018 63.9051 335 68.7241 335 74.4261C335 76.9191 335.394 78.9581 335.875 78.9581C338.302 78.9581 338.718 59.2411 336.446 51.8671ZM330.614 68.4581C328.601 63.8391 327.214 63.2491 317 62.6731C310.969 62.3331 304.423 61.1921 299.074 59.5481C289.044 56.4651 286.497 56.3581 282.42 58.8441C276.49 62.4601 275.5 66.3391 275.5 85.9581C275.5 102.776 275.603 103.677 278.135 109.078C283.74 121.031 292.346 127.208 303.397 127.208C311.282 127.208 317.266 124.649 322.207 119.163C326.861 113.996 329.44 108.938 330.877 102.159C332.442 94.7731 332.267 72.2501 330.614 68.4581ZM339.645 85.4871C337.122 82.0361 335 84.2651 335 90.3681C335 96.5051 336.201 97.9911 339.063 95.4011C341.328 93.3511 341.631 88.2031 339.645 85.4871Z" fill="#232323"/>
<path d="M330.614 68.4581C332.267 72.2501 332.442 94.7731 330.877 102.159C329.44 108.938 326.861 113.996 322.207 119.163C317.266 124.649 311.282 127.208 303.397 127.208C292.346 127.208 283.74 121.031 278.135 109.078C275.603 103.677 275.5 102.776 275.5 85.9581C275.5 66.3391 276.49 62.4601 282.42 58.8441C286.497 56.3581 289.044 56.4651 299.074 59.5481C304.423 61.1921 310.969 62.3331 317 62.6731C327.214 63.2491 328.601 63.8391 330.614 68.4581ZM286.501 74.9581C283.244 76.0331 281.984 78.6021 284.833 78.3581C285.475 78.3031 288.025 78.1911 290.5 78.1081C293.74 78.0001 295 77.5431 295 76.4771C295 74.3441 290.692 73.5751 286.501 74.9581ZM289.03 82.4391C287.422 83.4331 288.188 87.4581 289.986 87.4581C291.766 87.4581 292.602 84.1601 291.181 82.7391C290.627 82.1851 289.659 82.0501 289.03 82.4391ZM292.581 106.71C291.259 108.032 292.226 109.159 296.25 110.985C298.588 112.046 302.202 112.924 304.282 112.936C308.347 112.96 315 110.626 315 109.176C315 107.347 313.736 107.171 310.451 108.543C305.917 110.437 302.339 110.295 297.331 108.021C295.038 106.98 292.901 106.39 292.581 106.71ZM304.604 96.7831C302.76 98.6271 304.017 100.548 306.455 99.6131C309.007 98.6341 309.417 96.0871 308.285 88.2271C307.16 80.4191 306.557 79.0011 305.014 80.5441C304.41 81.1481 304.451 84.0051 305.127 88.3451C306.042 94.2241 305.968 95.4191 304.604 96.7831ZM314.54 74.5811C313.647 74.9241 313.082 75.7111 313.285 76.3311C313.704 77.6061 321.371 78.4171 323.864 77.4501C325.321 76.8851 325.288 76.6601 323.559 75.3871C321.53 73.8941 317.314 73.5171 314.54 74.5811ZM318.03 82.4391C316.422 83.4331 317.188 87.4581 318.986 87.4581C320.766 87.4581 321.602 84.1601 320.181 82.7391C319.627 82.1851 318.659 82.0501 318.03 82.4391Z" fill="white"/>
<path d="M336.446 51.8671C338.718 59.2411 338.302 78.9581 335.875 78.9581C335.394 78.9581 335 76.9191 335 74.4261C335 68.7241 333.018 63.9051 329.553 61.1791C327.27 59.3831 325.554 59.0711 318.182 59.1131C311.468 59.1521 307.687 58.5761 301.5 56.5731C282.922 50.5591 273.594 55.6921 272.23 72.6791C271.443 82.4851 269.819 80.9861 268.123 68.8891C266.521 57.4651 269.069 50.2801 275.969 46.7621C277.799 45.8291 280.242 43.3541 281.398 41.2621C282.87 38.5981 285.148 36.6121 289 34.6351C294.158 31.9871 295.122 31.8351 304.5 32.1811C312.887 32.4911 315.518 33.0131 320.808 35.4171C328.335 38.8381 334.397 45.2141 336.446 51.8671Z" fill="white"/>
<path d="M490.2 58.1581C491.027 57.3311 496.089 56.9581 506.5 56.9581C516.911 56.9581 521.973 57.3311 522.8 58.1581C523.648 59.0061 524 64.8541 524 78.0871C524 93.7801 523.746 97.0701 522.429 98.3871C521.15 99.6661 518.252 99.9581 506.863 99.9581C499.129 99.9581 492.003 99.4951 490.934 98.9231C489.124 97.9551 489 96.6461 489 78.6231C489 64.9731 489.35 59.0081 490.2 58.1581ZM520.724 59.4061C519.998 59.1271 513.126 59.0241 505.452 59.1781C500.801 59.2711 496.151 59.3651 491.5 59.4581C491.5 65.7911 491.5 72.1251 491.5 78.4581C491.5 84.7911 491.5 91.1251 491.5 97.4581C496.5 97.4581 501.5 97.4581 506.5 97.4581C511.5 97.4581 516.5 97.4581 521.5 97.4581C521.591 91.2001 521.681 84.9431 521.772 78.6851C521.987 63.8621 521.767 59.8061 520.724 59.4061Z" fill="white"/>
<path d="M469 377.958C470.807 376.151 472.333 375.958 484.845 375.958C496.988 375.958 498.893 376.183 500.345 377.787C501.759 379.35 502 382.303 502 398.087C502 411.12 501.647 416.911 500.8 417.758C499.975 418.583 494.993 418.958 484.871 418.958C472.815 418.958 469.857 418.673 468.571 417.387C467.259 416.075 467 412.852 467 397.887C467 381.292 467.149 379.809 469 377.958ZM498.822 379.18C496.985 377.343 471.639 377.484 470.099 379.339C469.308 380.292 469.037 386.257 469.226 398.589C469.317 404.545 469.409 410.502 469.5 416.458C474.5 416.458 479.5 416.458 484.5 416.458C489.5 416.458 494.5 416.458 499.5 416.458C499.591 410.449 499.681 404.439 499.772 398.43C499.971 385.251 499.715 380.073 498.822 379.18Z" fill="white"/>
<path d="M55.571 148.529C57.885 146.215 85.115 146.215 87.429 148.529C88.746 149.846 89 153.144 89 168.907C89 183.089 88.681 187.978 87.704 188.789C85.757 190.405 57.43 190.56 55.509 188.966C53.225 187.07 53.28 150.82 55.571 148.529ZM85.702 149.397C84.988 149.123 78.126 149.024 70.452 149.178C65.801 149.271 61.151 149.365 56.5 149.458C56.404 152.34 56.309 155.222 56.213 158.104C56.117 160.986 56.021 163.867 55.925 166.749C58.021 166.739 60.117 166.729 62.213 166.719C69.461 166.684 71 165.829 71 161.836C71 158.046 67.453 154.337 65.433 156.014C64.645 156.668 64 158.074 64 159.139C64 160.204 63.59 160.822 63.088 160.512C62.586 160.202 62.504 158.713 62.904 157.203C63.466 155.084 64.32 154.389 66.651 154.157C70.344 153.789 72.006 155.588 72.691 160.693C73.297 165.208 76.092 166.958 82.699 166.958C84.133 166.958 85.566 166.958 87 166.958C87 164.114 87 161.271 87 158.427C87 152.356 86.626 149.752 85.702 149.397ZM81.559 168.958C78.566 168.958 75.84 168.508 75.5 167.958C75.16 167.408 74.009 166.958 72.941 166.958C71.873 166.958 71 167.408 71 167.958C71 168.536 67.833 168.958 63.5 168.958C61 168.958 58.5 168.958 56 168.958C56 171.946 56 174.935 56 177.923C56 185.763 56.242 187.018 57.934 187.923C60.717 189.413 84.285 189.273 85.8 187.758C86.552 187.007 87 183.269 87 177.758C87 174.825 87 171.891 87 168.958C85.186 168.958 83.373 168.958 81.559 168.958Z" fill="white"/>
<path d="M332 146.958C322.185 165.17 318.696 170.582 317.913 170.734C317.13 170.886 313.806 168.298 310.526 164.984C307.246 161.67 304.084 158.958 303.5 158.958C302.916 158.958 299.766 161.658 296.5 164.958C293.234 168.258 290.005 170.958 289.325 170.958C288.084 170.958 281.905 161.062 277.405 151.87C276.603 150.233 275.802 148.595 275 146.958C274.667 145.958 274.333 144.958 274 143.958C277.667 140.958 281.333 137.958 285 134.958C286 135.291 287 135.625 288 135.958C289.365 138.67 292.798 142.566 296.509 146.364C298.758 148.666 301.008 150.968 303.257 153.27C305.714 150.551 308.171 147.833 310.628 145.114C313.085 142.395 315.543 139.677 318 136.958C319.333 136.291 320.667 135.625 322 134.958C325 137.625 328 140.291 331 142.958C331.333 144.291 331.667 145.625 332 146.958ZM292.528 147.708C288.466 143.446 284.73 139.958 284.226 139.958C282.597 139.958 280 143.554 280 145.809C280 148.272 287.343 163.434 289.045 164.486C290.112 165.146 299.1 158.287 299.642 156.4C299.791 155.882 296.59 151.97 292.528 147.708ZM324.474 141.933C323.632 141.142 322.79 140.351 321.948 139.56C319.457 142.035 316.965 144.509 314.474 146.984C310.363 151.067 307 154.888 307 155.475C307 157.308 315.781 165.256 317.203 164.71C318.733 164.123 327 148.203 327 145.844C327 144.999 325.863 143.238 324.474 141.933Z" fill="#D4645F"/>
<path d="M458.588 114.958C459.643 114.958 458.519 117.644 452.031 130.617C448.198 138.282 443.527 146.329 441.65 148.5C440.513 149.816 439.375 151.132 438.238 152.448C435.431 151.534 432.624 150.619 429.817 149.705C427.01 148.791 424.204 147.877 421.397 146.963C420.813 145.338 420.228 143.713 419.644 142.088C418.052 137.662 415.062 121.177 415.018 116.586C414.989 113.51 417.799 116.557 419.15 121.065C420.343 125.048 421.19 126.104 426.743 130.536C428.527 131.959 430.457 134.549 431.032 136.291C432.363 140.322 432.937 140.284 433.605 136.12C434.07 133.219 433.635 132.302 430.293 129.12C429.011 127.899 427.728 126.679 426.446 125.458C427.59 121.041 428.734 116.625 429.878 112.208C433.479 98.3031 435.777 94.6651 434.614 104.708C434.248 107.871 433.672 112.821 433.334 115.708C432.829 120.022 432.993 120.958 434.251 120.958C435.289 120.958 437.152 117.259 440.043 109.458C442.801 102.014 444.817 97.9581 445.759 97.9581C446.559 97.9581 447.005 98.5201 446.75 99.2081C444.441 105.43 440.039 122.212 440.514 122.981C441.875 125.184 443.249 123.503 447.475 114.458C449.916 109.233 452.383 104.958 452.957 104.958C454.407 104.958 454.264 106.415 452.387 110.74C449.331 117.781 446 126.339 446 127.148C446 129.749 449.514 127.096 453.537 121.458C456.088 117.883 458.361 114.958 458.588 114.958Z" fill="white"/>
<path d="M54 415.958C84.479 401.676 88.748 400.486 109.5 400.493C128.718 400.499 133.928 401.72 164.017 413.258C186.254 421.785 193.443 424.035 207.519 426.878C219.844 429.367 240.562 430.469 247.75 429.018C249.5 428.665 251.25 428.311 253 427.958C253 429.625 253 431.291 253 432.958C204.68 431.981 200.858 431.285 161.761 416.35C140.681 408.297 130.261 405.274 118.774 403.877C101.26 401.748 80.608 406.271 63.723 415.935C55.952 420.383 55.486 420.842 55.25 424.299C55.167 425.519 55.083 426.738 55 427.958C53.908 421.982 53.714 421.837 52.426 423.318C51.951 423.865 51.475 424.411 51 424.958C34.125 437.694 21.046 452.548 8.271 473.483C2.828 482.403 0 485.073 0 481.292C0 479.104 7.63299 466.814 16.287 455.067C24.037 444.548 37.797 429.853 45.147 424.248C47.816 422.212 50 419.964 50 419.252C50 418.821 50 418.39 50 417.958C52.192 418.848 53.089 418.399 53.413 417.531C53.609 417.007 53.804 416.482 54 415.958Z" fill="#D4645F"/>
<path d="M283.268 543.208C284.089 552.326 283.951 556.607 282.8 557.758C280.983 559.575 228 559.469 228 557.649C228 554.913 230.899 552.772 243.81 545.97C248.247 543.633 252.683 541.295 257.12 538.958C261.414 538.958 265.709 538.958 270.003 538.958C274.297 538.958 278.591 538.958 282.885 538.958C283.013 540.375 283.14 541.791 283.268 543.208Z" fill="white"/>
<path d="M239.657 351.909C240.887 356.061 241.917 360.246 241.946 361.208C242.046 364.463 240.047 362.984 237.468 357.894C231.339 345.798 227.689 359.444 232.616 376.035C234.401 382.046 233.754 385.676 231.454 382.552C229.881 380.415 227.524 372.636 226.501 366.208C225.782 361.692 222.988 360.089 223.015 364.208C223.03 366.501 225.292 376.834 226.572 380.458C227.234 382.331 227.131 382.317 224.95 380.241C223.343 378.711 222.053 375.46 220.784 369.741C219.773 365.185 218.679 361.683 218.354 361.958C218.028 362.233 217.803 365.29 217.853 368.75C217.903 372.222 217.543 374.793 217.049 374.488C216.176 373.948 215.786 372.435 214.517 364.68C214.123 362.272 213.497 361.152 212.789 361.589C211.383 362.458 212.525 342.713 214.046 339.872C214.937 338.206 216.226 337.958 223.967 337.958C232.835 337.958 232.871 337.969 235.143 341.159C236.396 342.919 238.428 347.757 239.657 351.909Z" fill="white"/>
<path d="M377.943 556.332C378.205 557.041 378.468 557.749 378.73 558.458C369.899 558.547 361.068 558.636 352.237 558.725C333.532 558.913 325.341 558.656 324.372 557.852C323.458 557.094 323.005 554.498 323.014 550.086C323.038 538.287 322.151 538.958 337.712 538.958C349.279 538.958 351.568 539.224 353.846 540.833C355.306 541.864 359.875 544.395 364 546.458C373.496 551.207 376.952 553.655 377.943 556.332Z" fill="white"/>
<path d="M410 315.958C411.311 315.958 415.2 310.67 419.487 304.208C439.595 273.899 462.148 248.958 469.447 248.958C469.965 248.958 470.482 248.958 471 248.958C471 249.958 471 250.958 471 251.958C454.805 262.132 445.274 273.065 420.001 310.458C395.649 346.489 388.461 355.672 371.575 372.327C363.284 380.505 356.162 387.143 355.75 387.077C355.5 387.037 355.25 386.998 355 386.958C354.667 385.958 354.333 384.958 354 383.958C378.582 360.356 385.531 352.573 392.831 342.755C398.435 335.218 404.14 327.006 405.51 324.505C406.34 322.989 407.17 321.474 408 319.958C408.667 318.625 409.333 317.291 410 315.958Z" fill="#D86D68"/>
<path d="M288 135.958C288 134.422 288 132.887 288 131.351C288 127.347 288.229 126.841 289.75 127.486C298.918 131.373 304.653 131.873 312.591 129.475C314.227 128.981 315.864 128.486 317.5 127.992C317.667 130.981 317.833 133.969 318 136.958C315.543 139.677 313.085 142.395 310.628 145.114C308.171 147.833 305.714 150.551 303.257 153.27C301.008 150.968 298.758 148.666 296.509 146.364C292.798 142.566 289.365 138.67 288 135.958Z" fill="white"/>
<path d="M55 427.958C57.858 461.299 69.411 501.88 84.741 532.43C88.586 540.092 89.022 541.542 87.723 542.361C86.488 543.14 85.36 541.643 81.72 534.389C67.432 505.917 55.234 465.019 52.054 434.928C51.703 431.605 51.351 428.281 51 424.958C51.475 424.411 51.951 423.865 52.426 423.318C53.714 421.837 53.908 421.982 55 427.958Z" fill="#232323"/>
<path d="M473.624 383.667C474.014 383.277 479.209 382.958 485.167 382.958C488.778 382.958 492.389 382.958 496 382.958C496 385.302 496 387.647 496 389.991C496 392.335 496 394.679 496 397.023C492.25 396.929 488.5 396.835 484.75 396.741C481 396.647 477.25 396.552 473.5 396.458C473.403 394.444 473.305 392.431 473.208 390.417C473.047 387.094 473.234 384.057 473.624 383.667ZM484.5 384.958C481.333 384.958 478.167 384.958 475 384.958C475 386.625 475 388.291 475 389.958C475 391.625 475 393.291 475 394.958C478.167 394.958 481.333 394.958 484.5 394.958C487.667 394.958 490.833 394.958 494 394.958C494 393.291 494 391.625 494 389.958C494 388.291 494 386.625 494 384.958C490.833 384.958 487.667 384.958 484.5 384.958Z" fill="white"/>
<path d="M324.474 141.933C325.863 143.238 327 144.999 327 145.844C327 148.203 318.733 164.123 317.203 164.71C315.781 165.256 307 157.308 307 155.475C307 154.888 310.363 151.067 314.474 146.984C316.965 144.509 319.457 142.035 321.948 139.56C322.79 140.351 323.632 141.142 324.474 141.933Z" fill="white"/>
<path d="M440 165.958C431.333 162.958 422.667 159.958 414 156.958C414.349 155.618 414.697 154.278 415.046 152.938C415.395 151.598 415.743 150.259 416.092 148.919C420.16 150.225 424.228 151.531 428.296 152.837C432.364 154.143 436.432 155.449 440.5 156.755C440.333 159.823 440.167 162.89 440 165.958Z" fill="white"/>
<path d="M209 325.958C218 325.958 227 325.958 236 325.958C235.785 327.208 235.571 328.458 235.356 329.708C235.002 331.77 234.214 333.789 233.606 334.193C232.998 334.597 227.213 334.935 220.75 334.943C216.833 334.948 212.917 334.953 209 334.958C209 331.958 209 328.958 209 325.958Z" fill="white"/>
<path d="M292.528 147.708C296.59 151.97 299.791 155.882 299.642 156.4C299.1 158.287 290.112 165.146 289.045 164.486C287.343 163.434 280 148.272 280 145.809C280 143.554 282.597 139.958 284.226 139.958C284.73 139.958 288.466 143.446 292.528 147.708Z" fill="white"/>
<path d="M471 248.958C472.743 245.306 481.352 241.414 491.33 239.766C517.428 235.456 546.235 254.322 568.733 290.458C579.322 307.465 593.881 339.22 592.609 342.534C591.391 345.707 589.412 343.081 584.954 332.375C577.908 315.454 570.689 301.375 563.554 290.641C546.876 265.55 532.43 252.79 513.49 246.416C506.366 244.018 504.47 243.783 496 244.244C486.981 244.734 476.885 247.592 472.39 250.927C471.927 251.271 471.463 251.614 471 251.958C471 250.958 471 249.958 471 248.958Z" fill="#D3635E"/>
<path d="M209 321.958C218 321.625 227 321.291 236 320.958C236 322.625 236 324.291 236 325.958C227 325.958 218 325.958 209 325.958C209 324.625 209 323.291 209 321.958Z" fill="#D4645F"/>
<path d="M439 169.958C430 166.958 421 163.958 412 160.958C412.667 159.625 413.333 158.291 414 156.958C422.667 159.958 431.333 162.958 440 165.958C439.667 167.291 439.333 168.625 439 169.958Z" fill="#D4645F"/>
<path d="M175.314 108.132C178.277 105.349 182.36 105.355 184.961 108.147C187.712 111.1 187.528 114.521 184.45 117.599C182.48 119.569 181.285 120.004 179.2 119.511C173.314 118.119 171.217 111.981 175.314 108.132ZM181.554 109.617C181.036 109.418 180.518 109.22 180 109.021C179.482 109.22 178.964 109.418 178.446 109.617C177.462 109.995 177.003 111.175 177.196 112.836C177.434 114.885 178.046 115.458 180 115.458C181.954 115.458 182.566 114.885 182.804 112.836C182.997 111.175 182.538 109.995 181.554 109.617Z" fill="#232323"/>
<path d="M521.798 170.583C524.1 169.161 552.308 158.933 552.74 159.365C554.383 161.008 550.589 163.2 537.321 168.27C529.133 171.399 522.112 173.958 521.717 173.958C520.739 173.958 520.805 171.196 521.798 170.583Z" fill="white"/>
<path d="M384.934 0.993093C387.529 -0.395907 391.326 -0.315914 392.8 1.15809C394.512 2.87009 394.284 8.53209 392.429 10.3871C390.322 12.4941 386.686 12.3731 384.655 10.1291C382.338 7.56909 382.499 2.29609 384.934 0.993093Z" fill="white"/>
<path d="M292.581 106.71C292.901 106.39 295.038 106.98 297.331 108.021C302.339 110.295 305.917 110.437 310.451 108.543C313.736 107.171 315 107.347 315 109.176C315 110.626 308.347 112.96 304.282 112.936C302.202 112.924 298.588 112.046 296.25 110.985C292.226 109.159 291.259 108.032 292.581 106.71Z" fill="#232323"/>
<path d="M151.798 45.5831C153.108 44.7731 154.298 45.9431 164.371 57.9391C173.314 68.5891 174.99 71.4581 172.269 71.4581C171.19 71.4581 151.025 48.0391 151.009 46.7671C151.004 46.3871 151.359 45.8541 151.798 45.5831Z" fill="white"/>
<path d="M495.765 66.3581C499.53 60.7191 509 63.8131 509 70.6811C509 76.0841 500.342 79.2031 496.655 75.1291C494.957 73.2521 494.456 68.3191 495.765 66.3581ZM505 66.9581C502.592 64.5501 500.678 64.4221 498.571 66.5291C496.706 68.3941 496.517 72.0751 498.2 73.7581C499.883 75.4411 503.564 75.2521 505.429 73.3871C507.536 71.2801 507.408 69.3661 505 66.9581Z" fill="white"/>
<path d="M310 415.958C301.088 419.154 298.162 420.054 297.75 420.02C297.5 419.999 297.25 419.979 297 419.958C297 418.958 297 417.958 297 416.958C301 415.625 305 414.291 309 412.958C309.333 413.958 309.667 414.958 310 415.958Z" fill="#D06965"/>
<path d="M304.604 96.7831C305.968 95.4191 306.042 94.2241 305.127 88.3451C304.451 84.0051 304.41 81.1481 305.014 80.5441C306.557 79.0011 307.16 80.4191 308.285 88.2271C309.417 96.0871 309.007 98.6341 306.455 99.6131C304.017 100.548 302.76 98.6271 304.604 96.7831Z" fill="#232323"/>
<path d="M271.163 83.5591C272.16 84.1751 272.305 97.9581 271.314 97.9581C270.937 97.9581 269.587 96.9801 268.314 95.7841C265.181 92.8411 265.099 86.7021 268.163 84.5561C269.353 83.7231 270.703 83.2741 271.163 83.5591Z" fill="white"/>
<path d="M21.571 263.529C24.824 260.276 29 262.296 29 267.123C29 269.708 26.737 271.958 24.137 271.958C22.494 271.958 20 268.943 20 266.958C20 265.937 20.707 264.393 21.571 263.529Z" fill="white"/>
<path d="M425.189 453.997C431.315 448.29 440.171 456.657 434.984 463.251C433.536 465.092 431.918 465.958 429.927 465.958C423.743 465.958 420.672 458.205 425.189 453.997ZM432.333 456.625C431.203 455.495 428.304 455.886 427.105 457.331C424.768 460.147 428.811 464.19 431.627 461.853C433.072 460.654 433.463 457.755 432.333 456.625Z" fill="white"/>
<path d="M181.554 109.617C182.538 109.995 182.997 111.175 182.804 112.836C182.566 114.885 181.954 115.458 180 115.458C178.046 115.458 177.434 114.885 177.196 112.836C177.003 111.175 177.462 109.995 178.446 109.617C178.964 109.418 179.482 109.22 180 109.021C180.518 109.22 181.036 109.418 181.554 109.617Z" fill="white"/>
<path d="M339.645 85.4871C341.631 88.2031 341.328 93.3511 339.063 95.4011C336.201 97.9911 335 96.5051 335 90.3681C335 84.2651 337.122 82.0361 339.645 85.4871Z" fill="white"/>
<path d="M286.501 74.9581C290.692 73.5751 295 74.3441 295 76.4771C295 77.5431 293.74 78.0001 290.5 78.1081C288.025 78.1911 285.475 78.3031 284.833 78.3581C281.984 78.6021 283.244 76.0331 286.501 74.9581Z" fill="#222022"/>
<path d="M314.54 74.5811C317.314 73.5171 321.53 73.8941 323.559 75.3871C325.288 76.6601 325.321 76.8851 323.864 77.4501C321.371 78.4171 313.704 77.6061 313.285 76.3311C313.082 75.7111 313.647 74.9241 314.54 74.5811Z" fill="#232323"/>
<path d="M61.58 174.708C62.743 173.551 80.789 173.809 81.521 174.993C81.95 175.688 78.656 175.934 71.494 175.743C65.627 175.586 61.166 175.121 61.58 174.708Z" fill="white"/>
<path d="M318.03 82.4391C318.659 82.0501 319.627 82.1851 320.181 82.7391C321.602 84.1601 320.766 87.4581 318.986 87.4581C317.188 87.4581 316.422 83.4331 318.03 82.4391Z" fill="#232323"/>
<path d="M289.03 82.4391C289.659 82.0501 290.627 82.1851 291.181 82.7391C292.602 84.1601 291.766 87.4581 289.986 87.4581C288.188 87.4581 287.422 83.4331 289.03 82.4391Z" fill="#222022"/>
</svg>
