<svg width="504" height="560" viewBox="0 0 504 560" fill="none" xmlns="http://www.w3.org/2000/svg">
<path d="M312.448 303.896C306.132 301.788 305.851 301.902 304.239 304.82C303.299 306.522 301.442 308.328 300.112 308.834C298.775 309.342 297.224 311.101 296.643 312.768C295.951 314.753 294.202 316.491 291.52 317.859C289.28 319.002 287.448 320.398 287.448 320.962C287.448 321.526 286.343 323.091 284.993 324.441C279.057 330.377 266.207 325.267 251.505 311.124C243.382 303.31 242.588 302.792 240.62 304.021C238.766 305.179 237 304.86 226.722 301.509C206.745 294.997 172.419 281.981 162.739 277.249C159.669 275.748 156.599 274.248 153.529 272.747C153.711 277.355 153.894 281.964 154.076 286.572C154.565 298.933 155.751 306.007 165.285 353.396C168.839 371.063 172.394 388.729 175.948 406.396C175.879 426.063 175.809 445.729 175.74 465.396C175.671 485.063 175.6 504.729 175.531 524.396C174.774 525.011 174.017 525.627 173.26 526.242C171.082 528.012 171.065 528.142 172.83 529.433C173.842 530.173 179.458 532.866 185.309 535.417C191.16 537.968 197.422 541.47 199.224 543.198C203.008 546.827 205.023 552.467 203.996 556.555C203.758 557.502 203.52 558.449 203.282 559.396C192.178 559.396 181.073 559.396 169.969 559.396C139.031 559.396 136.511 559.265 134.625 557.557C131.911 555.1 131.287 550.275 132.236 539.063C132.499 535.952 132.763 532.84 133.026 529.729C132.013 529.204 131 528.68 129.987 528.155C128.974 527.63 127.961 527.106 126.948 526.581C127.065 510.717 127.181 494.853 127.298 478.989C127.681 426.899 127.559 425.364 121.636 407.896C120.675 405.063 119.715 402.229 118.754 399.396C117.565 404.229 116.375 409.063 115.186 413.896C113.223 421.871 110.179 432.441 108.42 437.385C102.759 453.299 85.744 485.249 68.205 512.896C65.773 516.729 63.341 520.563 60.909 524.396C58.473 524.494 56.036 524.592 53.6 524.691C51.164 524.789 48.727 524.889 46.291 524.987C46.796 526.469 47.301 527.952 47.806 529.434C49.396 534.101 51.077 535.304 57.448 536.335C65.681 537.668 71.449 544.087 71.429 551.896C71.409 559.498 71.653 559.401 52.73 559.362C38.782 559.333 35.339 559.03 32.34 557.565C30.355 556.596 22.267 550.086 14.366 543.099C9.578 538.865 4.788 534.63 0 530.396C0.007 528.896 0.0150032 527.396 0.0220032 525.896C0.0410032 521.848 0.755991 520.489 7.14099 512.363C13.593 504.152 14.111 503.156 12.843 501.422C9.54899 496.917 10.331 495.347 41.786 443.396C51.11 427.996 59.63 412.921 60.718 409.896C62.877 403.895 62.841 395.956 60.437 347.896C59.873 336.621 59.637 317.075 59.912 304.46C60.079 296.815 60.245 289.168 60.412 281.523C58.461 278.502 56.509 275.481 54.558 272.46C37.41 245.91 36.605 235.446 49.706 209.373C59.876 189.133 81.511 154.578 91.179 143.133C93.624 140.239 97.535 136.556 99.871 134.949C103.643 132.354 104.355 131.21 106.239 124.712C110.023 111.662 110.019 110.932 106.116 102.756C100.141 90.2396 98.965 84.9216 98.956 70.3956C98.95 60.2616 99.36 56.2116 100.818 52.0256C103.078 45.5356 108.966 39.2686 113.642 38.3766C115.765 37.9716 117.843 36.5556 119.448 34.4206C123.075 29.5966 127.276 27.0636 133.841 25.7456C141.805 24.1466 149.759 25.7506 163.222 31.6716C173.25 36.0816 174.502 36.3896 182.448 36.3926C185.281 36.3936 188.115 36.3946 190.948 36.3956C191.698 37.8826 192.448 39.3706 193.198 40.8576C198.376 51.1266 193.322 65.5596 183.284 69.1686C182.052 69.6116 181.451 71.5336 180.967 76.5806C179.292 94.0356 175.172 110.514 170.638 117.882C167.922 122.297 162.065 128.005 158.21 129.995C156.154 131.056 151.828 132.2 148.596 132.538C146.637 132.743 144.679 132.947 142.72 133.152C142.295 135.404 141.87 137.657 141.445 139.909C140.198 146.52 140.225 146.739 142.697 150.031C148.513 157.777 153.183 170.184 155.44 183.896C156.537 190.561 157.849 193.442 167.224 209.763C173.026 219.865 178.882 229.447 180.237 231.057C183.407 234.825 184.985 235.602 220.831 251.059C237.395 258.202 251.659 264.687 252.527 265.471C255.009 267.711 259.522 267.194 275.276 262.862C284.242 260.397 290.92 259.064 292.448 259.436C299.342 261.114 301.561 268.232 296.911 273.758C296.065 274.763 295.219 275.769 294.373 276.774C298.386 278.294 302.398 279.815 306.411 281.335C310.423 282.855 314.436 284.376 318.448 285.896C322.115 287.563 325.781 289.229 329.448 290.896C329.198 290.904 328.948 290.913 328.698 290.921C328.286 290.935 330.086 292.514 332.698 294.431C336.765 297.415 337.448 298.409 337.448 301.347C337.448 303.234 336.886 305.142 336.198 305.587C335.51 306.032 331.911 306.508 321.448 306.896C318.448 305.896 315.448 304.896 312.448 303.896ZM66.058 548.396C63.985 543.743 61.262 541.94 54.52 540.752C46.896 539.409 45.157 537.694 42.877 529.271C41.137 522.844 41.134 522.84 34.521 519.365C30.882 517.453 25.606 513.877 22.797 511.42C21.095 509.931 19.392 508.442 17.69 506.953C15.483 509.826 13.276 512.7 11.069 515.573C7.427 520.314 4.448 524.983 4.448 525.948C4.448 528.67 32.113 552.729 36.647 553.95C38.7 554.503 46.351 554.829 53.651 554.675C68.229 554.368 68.629 554.166 66.058 548.396ZM170.775 408.396C170.57 406.746 165.832 382.412 160.247 354.32C156.862 337.295 153.479 320.269 150.094 303.244C144.067 303.395 138.039 303.546 132.012 303.697C112.463 304.187 97.831 302.831 76.664 298.569C70.458 297.319 65.17 296.507 64.914 296.763C64.112 297.565 64.463 333.555 65.456 352.396C67.745 395.826 67.812 402.029 66.067 408.787C64.775 413.791 59.211 423.865 40.433 455.191C27.242 477.198 16.448 495.936 16.448 496.831C16.448 499.073 26.77 508.966 33.448 513.125C40.44 517.48 45.94 519.628 52.245 520.464C53.91 520.685 55.574 520.905 57.239 521.126C58.49 519.171 59.742 517.216 60.994 515.261C77.214 489.924 94.91 457.64 101.906 440.624C106.448 429.576 109.214 418.515 118.962 372.396C123.263 352.046 127.339 334.781 128.019 334.028C129.502 332.387 131.456 333.348 131.428 335.705C131.417 336.635 129.02 348.838 126.102 362.822C124.333 371.297 122.565 379.773 120.796 388.248C121.917 391.773 123.037 395.297 124.158 398.822C132.523 425.129 131.968 419.614 131.775 474.58C131.717 490.975 131.661 507.368 131.603 523.763C133.26 524.118 134.918 524.475 136.575 524.83C143.359 526.285 158.859 526.14 164.948 524.564C166.615 524.133 168.281 523.701 169.948 523.27C170.155 516.958 170.361 510.645 170.568 504.333C171.236 483.918 171.388 413.321 170.775 408.396ZM74.154 176.896C73.317 176.896 59.062 201.615 53.639 212.47C43.825 232.115 43.16 240.935 50.404 255.396C54.704 263.98 60.363 273.323 60.916 272.748C61.102 272.555 62.447 261.371 63.905 247.896C67.353 216.025 70.979 191.43 73.967 179.646C74.351 178.133 74.435 176.896 74.154 176.896ZM219.698 255.873C185.219 241.116 180.735 238.932 177.309 235.24C175.857 233.676 169.85 224.071 163.959 213.896C158.068 203.721 149.65 189.648 145.251 182.622C140.661 175.29 137.494 169.219 137.819 168.372C138.937 165.458 141.389 166.999 145.038 172.911C147.08 176.219 148.949 178.728 149.192 178.485C149.928 177.749 146.433 166.804 143.748 161.439C138.229 150.41 135.654 148.56 113.607 139.771C111.16 138.796 108.714 137.82 106.267 136.845C105.135 137.545 104.003 138.244 102.871 138.944C91.275 146.111 82.07 163.982 76.963 189.245C72.64 210.631 63.504 289.454 65.176 290.937C65.907 291.585 80.834 294.652 93.948 296.848C97.248 297.401 106.23 298.346 113.908 298.948C126.74 299.955 131.222 299.856 144.698 298.268C146.281 298.081 147.865 297.895 149.448 297.708C149.448 292.901 149.448 288.095 149.448 283.288C149.448 278.481 149.448 273.675 149.448 268.868C147.955 267.035 146.462 265.201 144.969 263.368C136.917 253.483 106.907 201.747 107.83 199.342C109.091 196.055 111.57 198.445 116.961 208.146C130.321 232.19 146.086 257.471 151.09 262.876C157.908 270.24 164.942 273.921 190.245 283.369C211.787 291.413 236.113 299.896 237.636 299.896C238.993 299.896 244.994 286.466 246.859 279.252C249.831 267.76 252.167 269.77 219.698 255.873ZM189.53 43.4046C188.854 41.6736 187.789 41.4076 181.351 41.3636C175.528 41.3236 172.561 40.7136 167.448 38.5066C151.529 31.6356 144.373 29.6276 137.707 30.1626C130.618 30.7316 125.138 33.7656 122.193 38.7506C120.984 40.7976 119.214 41.9696 116.175 42.7346C110.997 44.0386 108.071 46.9346 105.881 52.9236C103.675 58.9576 102.92 73.8636 104.388 82.4376C105.742 90.3486 110.369 103.041 112.109 103.618C112.748 103.83 114.367 102.164 115.708 99.9156C116.52 98.5536 117.333 97.1906 118.145 95.8286C116.862 94.5456 115.58 93.2626 114.297 91.9796C111.059 88.7416 110.448 87.4676 110.448 83.9476C110.448 76.4086 114.349 71.9446 120.948 71.9336C123.148 71.9296 125.59 72.3326 126.374 72.8286C127.465 73.5186 128.327 72.5916 130.047 68.8786C134.009 60.3266 138.763 59.3076 155.634 63.3946C174.195 67.8916 184.201 66.2216 188.435 57.9216C190.475 53.9236 190.986 47.1346 189.53 43.4046ZM168.784 70.5596C164.474 70.2046 157.573 69.0166 153.448 67.9216C139.338 64.1746 135.866 65.3826 133 75.0336C132.143 77.9206 130.904 80.6136 130.248 81.0196C129.555 81.4486 127.656 80.5296 125.716 78.8266C121.783 75.3736 120.154 75.1896 117.448 77.8956C114.663 80.6806 114.815 85.9536 117.762 88.7216C119.035 89.9176 120.555 90.8956 121.14 90.8956C121.725 90.8956 122.68 91.4716 123.264 92.1746C124.577 93.7566 121.789 100.409 117.575 105.748C115.942 107.817 114.374 111.344 113.952 113.896C113.543 116.371 112.334 121.239 111.267 124.713C110.2 128.187 109.473 131.472 109.653 132.011C109.833 132.551 115.716 135.391 122.726 138.322C126.975 140.099 131.222 141.875 135.471 143.652C135.666 142.776 135.862 141.9 136.057 141.024C136.379 139.579 137.036 136.846 137.518 134.952C138 133.058 138.294 131.449 138.171 131.376C132.169 127.806 130.017 126.161 127.045 122.871C123.081 118.484 122.667 117.133 125.014 116.232C126.033 115.841 127.963 117.07 130.539 119.751C135.33 124.737 138.994 126.735 144.806 127.532C161.208 129.78 172.854 111.374 175.955 78.3006C176.177 75.9356 176.398 73.5706 176.62 71.2056C174.008 70.9906 171.396 70.7746 168.784 70.5596ZM196.437 547.536C194.343 545.152 190.38 542.821 183.433 539.89C177.937 537.571 171.754 534.466 169.694 532.99C166 530.344 165.754 530.31 151.948 530.599C147.281 530.697 142.615 530.795 137.948 530.893C137.649 534.384 137.351 537.875 137.052 541.366C136.362 549.433 136.448 552.191 137.425 553.368C138.512 554.677 143.041 554.896 169.07 554.896C198.602 554.896 199.448 554.841 199.448 552.931C199.448 551.85 198.093 549.422 196.437 547.536ZM331.198 296.87C328.296 295.087 311.052 288.095 290.698 280.446C285.175 278.37 283.448 277.266 283.448 275.809C283.448 274.353 284.16 273.896 286.432 273.896C290.264 273.896 295.862 269.138 294.919 266.682C293.725 263.57 290.651 263.74 275.226 267.773C266.823 269.97 258.41 271.908 256.53 272.081C253.213 272.386 253.075 272.574 251.885 278.396C251.21 281.696 249.404 287.519 247.871 291.336C246.942 293.649 246.012 295.963 245.083 298.276C248.31 301.349 251.536 304.422 254.763 307.495C267.828 319.939 278.63 324.997 282.412 320.44C283.802 318.765 282.999 316.896 280.889 316.896C280.093 316.896 279.448 315.958 279.448 314.802C279.448 312.863 279.82 312.759 284.478 313.4C287.89 313.869 289.98 313.699 290.978 312.871C293.202 311.025 292.746 308.96 289.875 307.868C288.196 307.23 287.425 306.283 287.656 305.143C288.018 303.354 289.565 303.205 294.704 304.459C297.852 305.228 300.448 303.598 300.448 300.853C300.448 299.659 299.416 298.828 297.38 298.381C294.082 297.657 292.544 295.4 294.211 293.733C294.915 293.029 300.892 294.636 313.18 298.832C323.233 302.265 331.853 304.678 332.785 304.32C335.672 303.212 334.791 299.077 331.198 296.87Z" fill="#1A1A1A"/>
<path d="M240.448 24.7547C242.089 15.2777 247.903 7.36068 256.656 2.68668C258.086 1.92268 259.518 1.15968 260.948 0.395678C284.919 0.303678 308.892 0.211677 332.863 0.119677C413.998 -0.191323 410.465 -0.490322 419.282 7.43668C422.2 10.0607 425.139 13.9687 426.562 17.1167C427.357 18.8767 428.153 20.6357 428.948 22.3957C428.948 46.5627 428.948 70.7287 428.948 94.8957C428.948 119.063 428.948 143.229 428.948 167.396C428.175 168.95 427.402 170.505 426.629 172.059C423.364 178.623 417.018 184.539 410.71 186.899C405.562 188.825 402.894 188.895 335.16 188.89C286.983 188.886 263.698 188.538 260.967 187.78C252.741 185.496 245.027 178.063 241.369 168.896C240.228 166.035 239.942 152.975 239.808 97.3957C239.718 59.9957 240.006 27.3077 240.448 24.7547ZM422.097 19.3887C419.557 13.9337 413.985 8.43568 408.803 6.27068C406.116 5.14768 392.502 4.89568 334.594 4.89568C310.955 4.89568 287.315 4.89568 263.676 4.89568C261.894 5.82668 260.112 6.75768 258.33 7.68868C251.582 11.2137 246.948 17.1717 245.49 24.1947C244.724 27.8817 244.468 50.5657 244.664 97.4657C244.758 120.109 244.854 142.753 244.948 165.396C245.733 166.975 246.518 168.555 247.303 170.134C249.972 175.506 255.113 180.431 260.375 182.658C265.802 184.955 403.747 184.56 409.568 182.231C414.438 180.282 422.067 171.929 423.418 167.065C424.065 164.734 424.436 138.047 424.433 93.8957C424.432 70.7287 424.429 47.5627 424.428 24.3957C423.651 22.7267 422.874 21.0577 422.097 19.3887Z" fill="#1A1A1A"/>
<path d="M422.097 19.3886C422.874 21.0576 423.651 22.7266 424.428 24.3956C424.429 47.5626 424.432 70.7286 424.433 93.8956C424.436 138.047 424.065 164.734 423.418 167.065C422.067 171.929 414.438 180.282 409.568 182.231C403.747 184.56 265.802 184.955 260.375 182.658C255.113 180.431 249.972 175.506 247.303 170.134C246.518 168.555 245.733 166.975 244.948 165.396C244.854 142.753 244.758 120.109 244.664 97.4656C244.468 50.5656 244.724 27.8816 245.49 24.1946C246.948 17.1716 251.582 11.2136 258.33 7.68863C260.112 6.75763 261.894 5.82663 263.676 4.89563C287.315 4.89563 310.955 4.89563 334.594 4.89563C392.502 4.89563 406.116 5.14763 408.803 6.27063C413.985 8.43563 419.557 13.9336 422.097 19.3886ZM269.365 47.1666C266.068 54.2556 268.074 61.2876 274.833 66.3336C277.547 68.3596 278.584 68.3956 334.772 68.3956C353.831 68.3956 372.889 68.3956 391.948 68.3956C392.99 67.6526 394.033 66.9086 395.075 66.1656C403.828 59.9216 403.366 46.4746 394.207 40.8906C391.056 38.9696 389.066 38.9026 334.448 38.9026C279.55 38.9026 277.854 38.9596 274.64 40.9196C272.764 42.0636 270.48 44.7686 269.365 47.1666ZM271.624 95.3836C270.896 95.6616 270.452 96.6786 270.638 97.6426C270.956 99.2916 274.752 99.3956 334.462 99.3956C397.282 99.3956 397.948 99.3746 397.948 97.3956C397.948 95.4196 397.195 95.3926 335.448 95.1366C301.073 94.9936 272.352 95.1056 271.624 95.3836ZM271.624 119.384C270.896 119.662 270.452 120.679 270.638 121.643C270.956 123.292 274.752 123.396 334.462 123.396C397.282 123.396 397.948 123.375 397.948 121.396C397.948 119.42 397.195 119.393 335.448 119.137C301.073 118.994 272.352 119.106 271.624 119.384ZM271.626 143.381C270.897 143.661 270.452 144.679 270.638 145.643C270.953 147.279 273.672 147.396 311.462 147.396C351.282 147.396 351.948 147.363 351.948 145.396C351.948 143.434 351.194 143.391 312.45 143.134C290.726 142.99 272.355 143.101 271.626 143.381Z" fill="white"/>
<path d="M170.775 408.396C171.388 413.321 171.236 483.918 170.568 504.333C170.361 510.645 170.155 516.958 169.948 523.27C168.281 523.701 166.615 524.133 164.948 524.564C158.859 526.14 143.359 526.285 136.575 524.83C134.918 524.475 133.26 524.118 131.603 523.763C131.661 507.368 131.717 490.975 131.775 474.58C131.968 419.614 132.523 425.129 124.158 398.822C123.037 395.297 121.917 391.773 120.796 388.248C122.565 379.773 124.333 371.297 126.102 362.822C129.02 348.838 131.417 336.635 131.428 335.705C131.456 333.348 129.502 332.387 128.019 334.028C127.339 334.781 123.263 352.046 118.962 372.396C109.214 418.515 106.448 429.576 101.906 440.624C94.91 457.64 77.214 489.924 60.994 515.261C59.742 517.216 58.49 519.171 57.239 521.126C55.574 520.905 53.91 520.685 52.245 520.464C45.94 519.628 40.44 517.48 33.448 513.125C26.77 508.966 16.448 499.073 16.448 496.831C16.448 495.936 27.242 477.198 40.433 455.191C59.211 423.865 64.775 413.791 66.067 408.787C67.812 402.029 67.745 395.826 65.456 352.396C64.463 333.555 64.112 297.565 64.914 296.763C65.17 296.507 70.458 297.319 76.664 298.569C97.831 302.831 112.463 304.187 132.012 303.697C138.039 303.546 144.067 303.395 150.094 303.244C153.479 320.269 156.862 337.295 160.247 354.32C165.832 382.412 170.57 406.746 170.775 408.396Z" fill="white"/>
<path d="M219.698 255.873C252.167 269.77 249.831 267.76 246.859 279.252C244.994 286.466 238.993 299.896 237.636 299.896C236.113 299.896 211.787 291.413 190.245 283.369C164.942 273.921 157.908 270.24 151.09 262.876C146.086 257.471 130.321 232.19 116.961 208.146C111.57 198.445 109.091 196.055 107.83 199.342C106.907 201.747 136.917 253.483 144.969 263.368C146.462 265.201 147.955 267.035 149.448 268.868C149.448 273.675 149.448 278.481 149.448 283.288C149.448 288.095 149.448 292.901 149.448 297.708C147.865 297.895 146.281 298.081 144.698 298.268C131.222 299.856 126.74 299.955 113.908 298.948C106.23 298.346 97.248 297.401 93.948 296.848C80.834 294.652 65.907 291.585 65.176 290.937C63.504 289.454 72.64 210.631 76.963 189.245C82.07 163.982 91.275 146.111 102.871 138.944C104.003 138.244 105.135 137.545 106.267 136.845C108.714 137.82 111.16 138.796 113.607 139.771C135.654 148.56 138.229 150.41 143.748 161.439C146.433 166.804 149.928 177.749 149.192 178.485C148.949 178.728 147.08 176.219 145.038 172.911C141.389 166.999 138.937 165.458 137.819 168.372C137.494 169.219 140.661 175.29 145.251 182.622C149.65 189.648 158.068 203.721 163.959 213.896C169.85 224.071 175.857 233.676 177.309 235.24C180.735 238.932 185.219 241.116 219.698 255.873Z" fill="white"/>
<path d="M269.365 47.1666C270.48 44.7686 272.764 42.0636 274.64 40.9196C277.854 38.9596 279.55 38.9026 334.448 38.9026C389.066 38.9026 391.056 38.9696 394.207 40.8906C403.366 46.4746 403.828 59.9216 395.075 66.1656C394.033 66.9086 392.99 67.6526 391.948 68.3956C372.889 68.3956 353.831 68.3956 334.772 68.3956C278.584 68.3956 277.547 68.3596 274.833 66.3336C268.074 61.2876 266.068 54.2556 269.365 47.1666ZM393.531 46.6616C392.559 45.5726 391.585 44.4846 390.613 43.3956C372.601 43.3016 354.59 43.2066 336.578 43.1126C275.896 42.7946 276.674 42.7166 273.855 49.4636C271.88 54.1896 272.798 58.1706 276.598 61.3686C277.599 62.2106 278.6 63.0536 279.601 63.8956C297.764 63.8956 315.927 63.8956 334.09 63.8956C372.252 63.8956 389.234 63.5606 390.764 62.7786C397.07 59.5536 398.356 52.0626 393.531 46.6616Z" fill="#1A1A1A"/>
<path d="M168.784 70.5596C171.396 70.7746 174.008 70.9906 176.62 71.2056C176.398 73.5706 176.177 75.9356 175.955 78.3006C172.854 111.374 161.208 129.78 144.806 127.532C138.994 126.735 135.33 124.737 130.539 119.751C127.963 117.07 126.033 115.841 125.014 116.232C122.667 117.133 123.081 118.484 127.045 122.871C130.017 126.161 132.169 127.806 138.171 131.376C138.294 131.449 138 133.058 137.518 134.952C137.036 136.846 136.379 139.579 136.057 141.024C135.862 141.9 135.666 142.776 135.471 143.652C131.222 141.875 126.975 140.099 122.726 138.322C115.716 135.391 109.833 132.551 109.653 132.011C109.473 131.472 110.2 128.187 111.267 124.713C112.334 121.239 113.543 116.371 113.952 113.896C114.374 111.344 115.942 107.817 117.575 105.748C121.789 100.409 124.577 93.7566 123.264 92.1746C122.68 91.4716 121.725 90.8956 121.14 90.8956C120.555 90.8956 119.035 89.9176 117.762 88.7216C114.815 85.9536 114.663 80.6806 117.448 77.8956C120.154 75.1896 121.783 75.3736 125.716 78.8266C127.656 80.5296 129.555 81.4486 130.248 81.0196C130.904 80.6136 132.143 77.9206 133 75.0336C135.866 65.3826 139.338 64.1746 153.448 67.9216C157.573 69.0166 164.474 70.2046 168.784 70.5596Z" fill="white"/>
<path d="M240.872 319.959C241.861 319.138 242.889 318.948 243.414 319.488C243.899 319.987 244.443 330.071 244.622 341.896C244.928 362.056 245.094 363.691 247.286 368.143C250.182 374.023 256.189 379.29 261.74 380.817C264.792 381.656 285.483 381.895 337.027 381.685C360.72 381.589 384.413 381.492 408.106 381.396C409.737 380.387 411.37 379.379 413.001 378.37C416.033 376.495 419.047 373.481 420.922 370.449C421.931 368.818 422.939 367.186 423.948 365.555C424.043 344.695 424.138 323.835 424.233 302.975C424.489 246.688 424.351 239.958 422.86 236.041C420.747 230.488 416.259 225.378 411.043 222.587C409.678 221.857 408.313 221.126 406.948 220.396C382.755 220.396 358.562 220.396 334.369 220.396C310.176 220.396 285.984 220.396 261.791 220.396C260.161 221.404 258.53 222.412 256.9 223.42C249.932 227.728 246.495 233.085 245.128 241.767C244.223 247.513 243.661 248.896 242.227 248.896C240.725 248.896 240.448 247.987 240.448 243.056C240.448 232.275 247.494 221.933 258.11 217.132C261.64 215.535 267.767 215.396 334.448 215.396C358.615 215.396 382.781 215.396 406.948 215.396C408.842 216.326 410.736 217.256 412.63 218.186C419.067 221.347 423.764 226.192 426.842 232.845C428.914 237.322 428.948 238.433 428.948 301.396C428.948 322.729 428.948 344.063 428.948 365.396C428.188 366.938 427.428 368.481 426.668 370.023C423.83 375.784 418.622 381.225 413.142 384.154C411.744 384.901 410.346 385.649 408.948 386.396C384.281 386.396 359.615 386.396 334.948 386.396C310.281 386.396 285.615 386.396 260.948 386.396C259.162 385.407 257.375 384.417 255.589 383.428C252.642 381.796 248.728 378.705 246.893 376.561C241.096 369.789 240.259 365.806 239.707 342.367C239.265 323.609 239.391 321.188 240.872 319.959Z" fill="#1A1A1A"/>
<path d="M189.53 43.4046C190.986 47.1346 190.475 53.9236 188.435 57.9216C184.201 66.2216 174.195 67.8916 155.634 63.3946C138.763 59.3076 134.009 60.3266 130.047 68.8786C128.327 72.5916 127.465 73.5186 126.374 72.8286C125.59 72.3326 123.148 71.9296 120.948 71.9336C114.349 71.9446 110.448 76.4086 110.448 83.9476C110.448 87.4676 111.059 88.7416 114.297 91.9796C115.58 93.2626 116.862 94.5456 118.145 95.8286C117.333 97.1906 116.52 98.5536 115.708 99.9156C114.367 102.164 112.748 103.83 112.109 103.618C110.369 103.041 105.742 90.3486 104.388 82.4376C102.92 73.8636 103.675 58.9576 105.881 52.9236C108.071 46.9346 110.997 44.0386 116.175 42.7346C119.214 41.9696 120.984 40.7976 122.193 38.7506C125.138 33.7656 130.618 30.7316 137.707 30.1626C144.373 29.6276 151.529 31.6356 167.448 38.5066C172.561 40.7136 175.528 41.3236 181.351 41.3636C187.789 41.4076 188.854 41.6736 189.53 43.4046Z" fill="white"/>
<path d="M331.198 296.87C334.791 299.077 335.672 303.212 332.785 304.32C331.853 304.678 323.233 302.265 313.18 298.832C300.892 294.636 294.915 293.029 294.211 293.733C292.544 295.4 294.082 297.657 297.38 298.381C299.416 298.828 300.448 299.659 300.448 300.853C300.448 303.598 297.852 305.228 294.704 304.459C289.565 303.205 288.018 303.354 287.656 305.143C287.425 306.283 288.196 307.23 289.875 307.868C292.746 308.96 293.202 311.025 290.978 312.871C289.98 313.699 287.89 313.869 284.478 313.4C279.82 312.759 279.448 312.863 279.448 314.802C279.448 315.958 280.093 316.896 280.889 316.896C282.999 316.896 283.802 318.765 282.412 320.44C278.63 324.997 267.828 319.939 254.763 307.495C251.536 304.422 248.31 301.349 245.083 298.276C246.012 295.963 246.942 293.649 247.871 291.336C249.404 287.519 251.21 281.696 251.885 278.396C253.075 272.574 253.213 272.386 256.53 272.081C258.41 271.908 266.823 269.97 275.226 267.773C290.651 263.74 293.725 263.57 294.919 266.682C295.862 269.138 290.264 273.896 286.432 273.896C284.16 273.896 283.448 274.353 283.448 275.809C283.448 277.266 285.175 278.37 290.698 280.446C311.052 288.095 328.296 295.087 331.198 296.87Z" fill="white"/>
<path d="M393.531 46.6616C398.356 52.0626 397.07 59.5536 390.764 62.7786C389.234 63.5606 372.252 63.8956 334.09 63.8956C315.927 63.8956 297.764 63.8956 279.601 63.8956C278.6 63.0536 277.599 62.2106 276.598 61.3686C272.798 58.1706 271.88 54.1896 273.855 49.4636C276.674 42.7166 275.896 42.7946 336.578 43.1126C354.59 43.2066 372.601 43.3016 390.613 43.3956C391.585 44.4846 392.559 45.5726 393.531 46.6616Z" fill="white"/>
<path d="M66.058 548.396C68.629 554.166 68.229 554.368 53.651 554.675C46.351 554.829 38.7 554.503 36.647 553.95C32.113 552.729 4.448 528.67 4.448 525.948C4.448 524.983 7.427 520.314 11.069 515.573C13.276 512.7 15.483 509.826 17.69 506.953C19.392 508.442 21.095 509.931 22.797 511.42C25.606 513.877 30.882 517.453 34.521 519.365C41.134 522.84 41.137 522.844 42.877 529.271C45.157 537.694 46.896 539.409 54.52 540.752C61.262 541.94 63.985 543.743 66.058 548.396Z" fill="white"/>
<path d="M449.469 98.8616C450.747 96.7926 453.863 98.6796 462.691 106.868C489.714 131.932 504.69 167.979 503.172 204.299C502.343 224.144 499.038 237.397 490.431 255.396C484.784 267.205 476.263 279.419 466.189 290.146C463.763 292.729 461.337 295.313 458.911 297.896C461.814 297.896 464.717 297.896 467.62 297.896C476.706 297.896 479.326 299.05 475.91 301.548C474.6 302.506 470.504 302.896 461.757 302.896C457.654 302.896 453.551 302.896 449.448 302.896C449.448 301.933 449.448 300.969 449.448 300.006C449.448 297.503 451.478 284.968 452.988 278.146C453.311 276.687 454.222 275.896 455.582 275.896C457.561 275.896 457.633 276.219 456.873 281.646C456.43 284.809 456.041 288.948 456.008 290.844C455.948 294.281 455.976 294.261 464.353 284.844C487.578 258.736 498.448 231.652 498.448 199.896C498.448 174.832 491.991 153.651 477.81 132.199C471.909 123.272 460.057 110.155 453.591 105.396C449.02 102.031 448.258 100.822 449.469 98.8616Z" fill="#1A1A1A"/>
<path d="M196.437 547.536C198.093 549.422 199.448 551.85 199.448 552.931C199.448 554.841 198.602 554.896 169.07 554.896C143.041 554.896 138.512 554.677 137.425 553.368C136.448 552.191 136.362 549.433 137.052 541.366C137.351 537.875 137.649 534.384 137.948 530.893C142.615 530.795 147.281 530.697 151.948 530.599C165.754 530.31 166 530.344 169.694 532.99C171.754 534.466 177.937 537.571 183.433 539.89C190.38 542.821 194.343 545.152 196.437 547.536Z" fill="white"/>
<path d="M74.154 176.896C74.435 176.896 74.351 178.133 73.967 179.646C70.979 191.43 67.3529 216.025 63.9049 247.896C62.4469 261.371 61.102 272.555 60.916 272.748C60.363 273.323 54.704 263.98 50.404 255.396C43.16 240.935 43.825 232.115 53.639 212.47C59.062 201.615 73.317 176.896 74.154 176.896Z" fill="white"/>
<path d="M318.448 285.896C325.341 280.635 329.018 278.9 331.351 278.527C340.3 277.096 350.7 282.837 354.562 291.34C356.946 296.59 356.955 305.185 354.582 310.396C350.337 319.717 339.034 325.478 329.844 323.003C321.949 320.877 316.584 315.86 313.898 308.091C313.415 306.693 312.931 305.294 312.448 303.896C315.448 304.896 318.448 305.896 321.448 306.896C322.498 307.229 323.547 307.563 324.597 307.896C333.238 310.64 339.448 307.978 339.448 301.531C339.448 296.728 336.416 293.504 329.448 290.896C325.781 289.229 322.115 287.563 318.448 285.896Z" fill="#F44E4B"/>
<path d="M271.624 119.384C272.352 119.106 301.073 118.994 335.448 119.137C397.195 119.393 397.948 119.42 397.948 121.396C397.948 123.375 397.282 123.396 334.462 123.396C274.752 123.396 270.956 123.292 270.638 121.643C270.452 120.679 270.896 119.662 271.624 119.384Z" fill="#1A1A1A"/>
<path d="M271.624 95.3836C272.352 95.1056 301.073 94.9936 335.448 95.1366C397.195 95.3926 397.948 95.4196 397.948 97.3956C397.948 99.3746 397.282 99.3956 334.462 99.3956C274.752 99.3956 270.956 99.2916 270.638 97.6426C270.452 96.6786 270.896 95.6616 271.624 95.3836Z" fill="#1A1A1A"/>
<path d="M271.626 143.381C272.355 143.101 290.726 142.99 312.45 143.134C351.194 143.391 351.948 143.434 351.948 145.396C351.948 147.363 351.282 147.396 311.462 147.396C273.672 147.396 270.953 147.279 270.638 145.643C270.452 144.679 270.897 143.661 271.626 143.381Z" fill="#1A1A1A"/>
<path d="M306.072 317.896C306.965 317.896 309.498 319.942 311.699 322.443C313.901 324.944 318.007 328.2 320.825 329.679C327.692 333.283 340.403 333.548 347.597 330.237C353.847 327.361 360.089 320.91 363.265 314.044C366.704 306.61 366.907 295.737 363.738 288.72C360.906 282.448 354.148 275.305 347.988 272.071C343.695 269.817 341.687 269.422 334.448 269.41C326.51 269.397 325.506 269.64 319.271 273.087C313.74 276.145 312.399 276.542 311.454 275.404C309.862 273.486 313.143 270.394 320.3 267.066C325.009 264.876 327.361 264.441 334.448 264.448C345.496 264.46 353.059 267.676 360.476 275.519C379.909 296.066 371.068 328.777 344.006 336.462C331.815 339.924 317.207 335.782 308.575 326.418C304.318 321.799 303.171 317.896 306.072 317.896Z" fill="#1A1A1A"/>
<path d="M329.448 290.896C336.416 293.504 339.448 296.728 339.448 301.531C339.448 307.978 333.238 310.64 324.597 307.896C323.547 307.563 322.498 307.229 321.448 306.896C331.911 306.508 335.51 306.032 336.198 305.587C336.886 305.142 337.448 303.234 337.448 301.347C337.448 298.409 336.765 297.415 332.698 294.431C330.086 292.514 328.286 290.935 328.698 290.921C328.948 290.913 329.198 290.904 329.448 290.896Z" fill="#2D1917"/>
</svg>
