<?xml version="1.0" encoding="UTF-8"?>
<svg width="1408" height="768" viewBox="0 0 1408 768" xmlns="http://www.w3.org/2000/svg">
  <path id="26" d="M 0,768 C 0,512 0,256 0,0 C 469.333,0 938.667,0 1408,0 C 1408,256 1408,512 1408,768 C 938.667,768 469.333,768 0,768 ZM 377.829,379.655 C 375.552,381.716 375.469,385.756 377.655,388.171 C 379.216,389.895 382.113,390 428.432,390 C 482.597,390 482,390.067 482,384 C 482,377.935 482.580,378 428.606,378 C 384.462,378 379.478,378.162 377.829,379.655 ZM 410.648,324 C 409.852,329.302 410.056,338.664 411.047,342.231 C 413.212,350.027 422.989,353.642 430.875,349.564 C 436.253,346.783 438.671,341.738 440.490,329.500 C 443.483,309.361 447.842,290.843 454.089,271.727 C 455.792,266.515 456.849,261.537 456.526,260.249 C 455.822,257.442 459.735,247.962 461.344,248.577 C 462.564,249.044 463.360,247.616 472.539,228.518 C 478.829,215.430 479.875,210.587 477.728,204.500 C 476.167,200.075 470.536,196.045 465.872,196.016 C 461.576,195.989 456.393,198.700 453.099,202.696 C 449.292,207.314 436.280,232.654 432.146,243.500 C 420.981,272.791 417.678,284.312 413.081,310 C 411.949,316.325 410.855,322.625 410.648,324 ZM 421.829,424.655 C 419.445,426.813 419.485,431.231 422.011,444.318 C 427.112,470.751 436.086,496.936 448.636,522 C 457.402,539.508 469.866,559.628 472.595,560.675 C 475.270,561.701 479.396,559.661 480.396,556.816 C 481.214,554.490 480.473,552.852 474.302,543.334 C 453.755,511.646 439.915,476.333 433.051,438.080 C 431.847,431.368 430.319,425.905 429.346,424.830 C 427.287,422.555 424.228,422.484 421.829,424.655 ZM 439.571,120.571 C 435.393,124.749 436.143,125.681 474.282,163.768 C 505.951,195.393 510.948,200 513.582,200 C 517.419,200 519,198.405 519,194.532 C 519,191.830 514.672,187.142 482.718,155.232 C 444.666,117.232 443.692,116.450 439.571,120.571 ZM 447.638,331.500 C 446.102,344.349 451.898,352.917 462.401,353.323 C 470.843,353.650 474.918,348.489 478.701,332.681 C 481.995,318.917 482.298,306.249 479.429,302.329 C 472.803,293.277 460.035,294.311 454.401,304.356 C 452.509,307.729 448.609,323.383 447.638,331.500 ZM 448.287,411.111 C 446.890,415.484 446.678,428 448,428 C 448.550,428 449.042,426.763 449.093,425.250 C 449.144,423.737 450.006,427.225 451.007,433 C 455.082,456.510 463.095,480.397 474.993,504.500 C 483.278,521.283 490.533,532.399 493.900,533.468 C 495.107,533.851 495.680,534.670 495.347,535.537 C 494.999,536.443 495.724,537.325 497.313,537.929 C 500.918,539.299 506.851,537.438 510.750,533.713 C 513.595,530.995 514,529.965 514,525.453 C 514,519.987 512.545,514.479 510.447,512 C 508.508,509.709 495.623,483.591 491.676,473.950 C 486.650,461.674 482.499,446.883 475.974,418 C 474.361,410.858 472.772,407.827 468.959,404.619 C 464.724,401.056 459.754,401.136 453.880,404.861 C 450.787,406.823 449.029,408.787 448.287,411.111 ZM 478.250,600.447 C 472.062,606.619 467,612.358 467,613.200 C 467,615.630 470.952,620 473.149,620 C 474.443,620 490.977,604.495 519.826,576.226 C 544.397,552.150 567.425,530.019 571,527.047 C 578.903,520.476 597.896,506.278 607.718,499.599 C 610.120,497.965 612.522,496.333 614.924,494.699 C 616.687,496.037 618.449,497.375 620.212,498.713 C 627.517,504.260 634.857,508.321 670.152,526.346 C 690.598,536.788 701.857,542 703.966,542 C 707.155,542 754.632,518.736 773.500,507.929 C 792.891,496.821 802.435,485.944 806.508,470.307 C 807.728,465.625 808,456.026 808,417.676 C 808,372.057 807.944,370.672 805.925,367.080 C 803.306,362.420 800.894,360.880 794,359.469 C 792.167,359.094 790.333,358.718 788.500,358.343 C 788.411,349.922 788.322,341.500 788.233,333.079 C 788.144,324.658 788.054,316.236 787.965,307.815 C 788.887,307.099 789.811,306.382 790.733,305.666 C 792.255,304.484 795.300,301.874 797.500,299.865 C 800.155,297.441 804.112,295.337 809.268,293.608 C 825.467,288.175 846.078,276.232 857.858,265.454 C 859.977,263.515 862.097,261.575 864.216,259.636 C 865.597,260.113 866.977,260.591 868.358,261.068 C 869.739,261.545 871.119,262.023 872.500,262.500 C 872.604,269.667 872.707,276.833 872.811,284 C 873.900,359.321 860.865,424.688 835.326,471.972 C 809.214,520.317 773.405,553.891 719.398,580.666 C 714.364,583.162 709.330,585.658 704.296,588.154 C 701.077,586.650 697.857,585.145 694.638,583.641 C 680.261,576.923 659.861,565.146 648,556.718 C 634.705,547.271 617,532.043 609.310,523.440 C 607.331,521.226 605.351,519.010 603.372,516.796 C 600.055,519.307 596.738,521.817 593.421,524.328 C 587.948,528.470 579.984,534.835 575.722,538.471 C 569.052,544.162 568.115,545.347 568.993,546.987 C 569.554,548.035 575.973,554.886 583.257,562.210 C 608.284,587.376 635.008,606.500 669,623.565 C 687.953,633.080 700.038,638 704.456,638 C 706.670,638 713.620,635.534 722.763,631.502 C 778.324,607.002 826.708,568.220 858.128,523 C 890.935,475.785 909.753,417.988 917.714,340 C 919.146,325.966 919.500,313.488 919.500,277 C 919.500,234.084 919.392,231.322 917.602,228.365 C 916.558,226.641 914.196,224.510 912.352,223.631 C 910.508,222.752 909,221.386 909,220.596 C 909,216.707 901.410,193.433 897.536,185.445 C 888.247,166.288 873.683,152.639 854.854,145.444 C 851.084,144.003 848,142.653 848,142.443 C 848,142.233 848.918,140.300 850.040,138.147 C 851.852,134.670 852.041,132.794 851.723,121.366 C 851.337,107.473 850.300,103.954 845.473,100.157 C 844.061,99.046 841.646,97.862 840.107,97.524 C 838.568,97.186 836.295,95.537 835.056,93.861 C 830.135,87.205 818.562,85.176 808,89.118 C 790.811,95.533 791.784,95.302 786.500,94.226 C 782.300,93.370 781.198,93.471 779.612,94.854 C 775.190,98.710 773.619,108.757 776.397,115.407 C 777.165,117.246 779.415,120.044 781.397,121.625 C 784.322,123.959 785,125.171 785,128.062 C 785,130.021 785.921,135.138 787.046,139.433 C 788.171,143.728 788.958,147.334 788.796,147.447 C 788.633,147.560 784.934,149.320 780.576,151.359 C 776.218,153.398 770.084,156.627 766.945,158.534 C 763.806,160.441 760.720,162 760.086,162 C 758.636,162 742.421,152.263 725.692,141.348 C 703.296,126.735 705.185,126.830 685.899,139.340 C 627.589,177.163 571.848,202.706 511.008,219.482 C 489.742,225.346 489.890,225.211 488.879,239.707 C 487.768,255.640 487.856,305.401 489.023,321.500 C 492.659,371.643 500.298,412.448 512.988,449.500 C 518.488,465.561 533.653,497.609 541.495,509.745 C 545.604,516.104 546.384,516.838 547.872,515.745 C 548.804,515.060 553.746,511.125 558.853,507 C 563.960,502.875 577.896,492.518 589.820,483.984 C 597.047,478.812 604.273,473.640 611.500,468.468 C 611.587,453.723 611.673,438.979 611.760,424.234 C 611.903,399.905 612.302,380 612.645,380 C 612.988,380 617.483,383.869 622.634,388.597 C 625.756,391.463 628.878,394.328 632,397.194 C 631.984,409.078 631.967,420.963 631.951,432.847 C 631.935,444.731 631.917,456.616 631.901,468.500 C 622.870,474.833 613.839,481.166 604.808,487.499 C 589.907,497.948 572.212,511.066 565.485,516.649 C 554.917,525.420 515.670,563.121 478.250,600.447 ZM 518.250,136.363 C 512.718,141.555 511.715,144.573 514.571,147.429 C 517.559,150.417 521.492,149.347 527.692,143.860 C 541.878,131.306 563.569,116.782 581.978,107.511 C 590.269,103.336 592.228,100.523 589.619,96.541 C 587.168,92.800 584.208,93.300 572.069,99.509 C 552.664,109.435 531.496,123.931 518.250,136.363 ZM 527.200,615.200 C 526.540,615.860 526,617.881 526,619.692 C 526,622.664 526.970,623.757 535.957,630.917 C 555.078,646.150 578.365,660.163 599.137,668.936 C 611.689,674.237 634.960,682 638.299,682 C 642.894,682 645.551,676.455 642.750,672.712 C 642.062,671.793 637,669.711 631.500,668.085 C 599.571,658.643 569.203,642.499 541.650,620.319 C 533.724,613.938 529.838,612.562 527.200,615.200 ZM 530.890,167.143 C 529.435,169.440 529.878,178.381 531.566,180.791 C 533.476,183.517 540.084,187.016 543.210,186.956 C 547.518,186.873 552.858,184.283 560.678,178.484 C 564.980,175.294 569.625,171.671 571,170.434 C 572.375,169.197 574.890,167.355 576.589,166.342 C 578.288,165.329 581.438,163.327 583.591,161.894 C 594.825,154.413 615.953,144.726 636,137.866 C 651.426,132.587 656.221,126.043 652.318,115.595 C 648.611,105.671 639.638,104.482 618.575,111.122 C 604.153,115.668 598.002,118.402 597.995,120.270 C 597.992,120.946 593.805,123.629 588.689,126.232 C 563.475,139.061 540.183,156.268 534.393,166.343 C 533.579,167.760 533.082,167.941 532.518,167.028 C 531.917,166.056 531.563,166.081 530.890,167.143 ZM 540.969,583.418 C 539.608,586.783 539.882,593.462 541.468,595.559 C 542.897,597.448 542.937,597.449 542.968,595.600 C 542.992,594.185 543.724,594.696 545.836,597.600 C 552.414,606.645 576.229,624.059 589.302,629.382 C 592.162,630.547 594.502,631.950 594.501,632.500 C 594.500,633.050 596.157,633.638 598.181,633.806 C 603.991,634.289 609.426,630.334 610.879,624.565 C 611.514,622.044 611.740,618.748 611.382,617.241 C 610.558,613.772 608.002,610.785 606.386,611.405 C 605.704,611.667 604.551,611.159 603.823,610.276 C 603.095,609.393 596.200,604.454 588.500,599.301 C 573.611,589.336 560.065,579 561.895,579 C 564.327,579 562.789,577.085 559.479,575.993 C 552.704,573.757 543.361,577.505 540.969,583.418 ZM 766.250,672.745 C 765.562,673.645 765,675.097 765,675.969 C 765,678.703 768.003,682 770.492,682 C 773.529,682 797.338,674.061 808.190,669.429 C 829.491,660.338 858.497,642.678 875,628.752 C 882.967,622.029 884.388,619.192 881.425,615.918 C 878.275,612.437 874.969,613.518 865.433,621.147 C 841.600,640.215 811.053,656.869 783.229,665.966 C 774.578,668.794 766.938,671.845 766.250,672.745 ZM 787.168,616.678 C 784.361,619.485 784,620.488 784,625.473 C 784,628.632 784.689,632.432 785.571,634.137 C 787.800,638.447 794.010,640.959 800.750,640.277 C 805.954,639.750 808.076,638.079 803.750,637.914 C 801.604,637.832 801.615,637.793 804,637.066 C 819.199,632.434 860.334,603.875 863.362,595.853 C 864.515,592.799 866.307,591.823 865.387,594.750 C 864.930,596.204 865.117,596.162 866.497,594.500 C 868.541,592.038 868.047,585.247 865.547,581.431 C 863.388,578.135 857.865,575.802 853.152,576.195 C 850.390,576.425 849.534,576.926 849.639,578.250 C 849.715,579.213 849.208,580 848.512,580 C 847.816,580 842.239,583.713 836.118,588.250 C 823.616,597.518 814.191,603.677 802.655,610.119 C 798.340,612.528 793.278,615.785 791.405,617.354 C 789.532,618.924 788,619.766 788,619.226 C 788,618.686 788.690,617.672 789.533,616.972 C 790.376,616.272 790.903,615.207 790.702,614.605 C 790.501,614.003 788.911,614.936 787.168,616.678 ZM 862.571,542.571 C 858.562,546.580 859.473,547.704 895.612,583.355 C 914.649,602.135 931.307,618.172 932.632,618.994 C 934.772,620.322 935.344,620.318 937.770,618.962 C 939.589,617.946 940.617,616.446 940.850,614.468 C 941.172,611.738 938.316,608.666 905.350,576.270 C 867.776,539.345 866.669,538.473 862.571,542.571 ZM 898.549,510 C 894.263,517.953 893.989,518.913 894.292,524.914 C 894.598,530.971 894.835,531.519 898.558,534.755 C 902.243,537.958 902.874,538.156 908.235,537.778 C 916.451,537.199 919.966,534.015 928.230,519.662 C 939.937,499.329 950.213,473.254 956.430,448.101 C 960.566,431.368 959.760,424.342 953.060,418.704 C 948.453,414.828 944.748,414.414 939.229,417.162 C 932.739,420.393 930.833,424.141 926.598,442 C 923.035,457.024 912.593,484.622 906.063,496.269 C 904.450,499.146 901.069,505.325 898.549,510 ZM 925.525,543 C 922.839,548.142 922.117,550.722 922.065,555.350 C 922.005,560.690 922.291,561.491 925.341,564.541 C 929.158,568.358 932.548,569.495 937.395,568.586 C 941.495,567.817 947.500,563.936 947.500,562.056 C 947.500,561.045 947.145,561.120 946.128,562.346 C 945.373,563.256 944.204,564 943.531,564 C 942.858,564 943.926,562.241 945.904,560.092 C 950.945,554.615 963.205,533.226 970.550,517.097 C 976.915,503.119 985.307,479.259 988.519,466.004 C 989.518,461.881 990.507,459.023 990.717,459.652 C 990.927,460.281 990.198,464.313 989.097,468.612 C 987.996,472.911 987.262,476.596 987.466,476.800 C 988.340,477.674 990.217,472.320 992.561,462.269 C 1000.118,429.862 998.153,418.786 984.574,417.255 C 977.184,416.422 971.491,420.933 969.118,429.500 C 968.509,431.700 966.399,440.250 964.429,448.500 C 959.827,467.776 956.892,477.457 952.453,488 C 950.485,492.675 947.553,499.772 945.939,503.771 C 942.230,512.960 936.534,524.319 933.037,529.500 C 931.552,531.700 930.018,534.175 929.628,535 C 929.238,535.825 927.392,539.425 925.525,543 ZM 926.880,309 C 926.021,313.104 926.615,320.894 928.482,330 C 929.215,333.575 930.355,339.875 931.017,344 C 932.730,354.683 933.659,357.274 937.286,361.466 C 939.705,364.262 941.611,365.383 944.996,366.001 C 950.837,367.067 954.670,365.468 958.814,360.235 C 961.789,356.479 961.999,355.691 961.983,348.356 C 961.952,334.567 957.573,312.608 953.404,305.337 C 950.592,300.432 945.527,297 941.100,297 C 933.829,297 928.441,301.547 926.880,309 ZM 928,380 C 925.346,382.654 925.448,386.499 928.223,388.443 C 930.161,389.800 936.710,390 979.394,390 C 1023.538,390 1028.522,389.838 1030.171,388.345 C 1032.448,386.284 1032.531,382.244 1030.345,379.829 C 1028.784,378.104 1025.880,378 979.345,378 C 931.333,378 929.946,378.054 928,380 ZM 949.615,230.333 C 946.126,232.619 946.202,236.471 949.880,243.779 C 961.398,266.663 971.450,298.558 975.476,325 C 978.076,342.073 978.638,343.871 981.610,344.617 C 983.006,344.967 985.240,344.756 986.574,344.148 C 989.666,342.739 989.743,339.016 987.024,322.500 C 982.647,295.914 975.173,271.069 964.169,246.526 C 956.590,229.622 954.407,227.193 949.615,230.333 Z" fill="#FFFFFF" stroke="none" />
  <path id="60" d="M 478.250,600.447 C 515.670,563.121 554.917,525.420 565.485,516.649 C 572.212,511.066 589.907,497.948 604.808,487.499 C 613.839,481.166 622.870,474.833 631.901,468.500 C 631.917,456.616 631.935,444.731 631.951,432.847 C 631.967,420.963 631.984,409.078 632,397.194 C 628.878,394.328 625.756,391.463 622.634,388.597 C 617.483,383.869 612.988,380 612.645,380 C 612.302,380 611.903,399.905 611.760,424.234 C 611.673,438.979 611.587,453.723 611.500,468.468 C 604.273,473.640 597.047,478.812 589.820,483.984 C 577.896,492.518 563.960,502.875 558.853,507 C 553.746,511.125 548.804,515.060 547.872,515.745 C 546.384,516.838 545.604,516.104 541.495,509.745 C 533.653,497.609 518.488,465.561 512.988,449.500 C 500.298,412.448 492.659,371.643 489.023,321.500 C 487.856,305.401 487.768,255.640 488.879,239.707 C 489.890,225.211 489.742,225.346 511.008,219.482 C 571.848,202.706 627.589,177.163 685.899,139.340 C 705.185,126.830 703.296,126.735 725.692,141.348 C 742.421,152.263 758.636,162 760.086,162 C 760.720,162 763.806,160.441 766.945,158.534 C 770.084,156.627 776.218,153.398 780.576,151.359 C 784.934,149.320 788.633,147.560 788.796,147.447 C 788.958,147.334 788.171,143.728 787.046,139.433 C 785.921,135.138 785,130.021 785,128.062 C 785,125.171 784.322,123.959 781.397,121.625 C 779.415,120.044 777.165,117.246 776.397,115.407 C 773.619,108.757 775.190,98.710 779.612,94.854 C 781.198,93.471 782.300,93.370 786.500,94.226 C 791.784,95.302 790.811,95.533 808,89.118 C 818.562,85.176 830.135,87.205 835.056,93.861 C 836.295,95.537 838.568,97.186 840.107,97.524 C 841.646,97.862 844.061,99.046 845.473,100.157 C 850.300,103.954 851.337,107.473 851.723,121.366 C 852.041,132.794 851.852,134.670 850.040,138.147 C 848.918,140.300 848,142.233 848,142.443 C 848,142.653 851.084,144.003 854.854,145.444 C 873.683,152.639 888.247,166.288 897.536,185.445 C 901.410,193.433 909,216.707 909,220.596 C 909,221.386 910.508,222.752 912.352,223.631 C 914.196,224.510 916.558,226.641 917.602,228.365 C 919.392,231.322 919.500,234.084 919.500,277 C 919.500,313.488 919.146,325.966 917.714,340 C 909.753,417.988 890.935,475.785 858.128,523 C 826.708,568.220 778.324,607.002 722.763,631.502 C 713.620,635.534 706.670,638 704.456,638 C 700.038,638 687.953,633.080 669,623.565 C 635.008,606.500 608.284,587.376 583.257,562.210 C 575.973,554.886 569.554,548.035 568.993,546.987 C 568.115,545.347 569.052,544.162 575.722,538.471 C 579.984,534.835 587.948,528.470 593.421,524.328 C 596.738,521.817 600.055,519.307 603.372,516.796 C 605.351,519.010 607.331,521.226 609.310,523.440 C 617,532.043 634.705,547.271 648,556.718 C 659.861,565.146 680.261,576.923 694.638,583.641 C 697.857,585.145 701.077,586.650 704.296,588.154 C 709.330,585.658 714.364,583.162 719.398,580.666 C 773.405,553.891 809.214,520.317 835.326,471.972 C 860.865,424.688 873.900,359.321 872.811,284 C 872.707,276.833 872.604,269.667 872.500,262.500 C 871.119,262.023 869.739,261.545 868.358,261.068 C 866.977,260.591 865.597,260.113 864.216,259.636 C 862.097,261.575 859.977,263.515 857.858,265.454 C 846.078,276.232 825.467,288.175 809.268,293.608 C 804.112,295.337 800.155,297.441 797.500,299.865 C 795.300,301.874 792.255,304.484 790.733,305.666 C 789.811,306.382 788.887,307.099 787.965,307.815 C 788.054,316.236 788.144,324.658 788.233,333.079 C 788.322,341.500 788.411,349.922 788.500,358.343 C 790.333,358.718 792.167,359.094 794,359.469 C 800.894,360.880 803.306,362.420 805.925,367.080 C 807.944,370.672 808,372.057 808,417.676 C 808,456.026 807.728,465.625 806.508,470.307 C 802.435,485.944 792.891,496.821 773.500,507.929 C 754.632,518.736 707.155,542 703.966,542 C 701.857,542 690.598,536.788 670.152,526.346 C 634.857,508.321 627.517,504.260 620.212,498.713 C 618.449,497.375 616.687,496.037 614.924,494.699 C 612.522,496.333 610.120,497.965 607.718,499.599 C 597.896,506.278 578.903,520.476 571,527.047 C 567.425,530.019 544.397,552.150 519.826,576.226 C 490.977,604.495 474.443,620 473.149,620 C 470.952,620 467,615.630 467,613.200 C 467,612.358 472.062,606.619 478.250,600.447 ZM 800.250,236.008 C 786.346,230.206 754.226,214.449 741.500,207.187 C 737.100,204.676 727,198.582 719.055,193.644 C 714.240,190.651 709.425,187.658 704.610,184.665 C 703.425,185.336 702.240,186.008 701.055,186.679 C 699.100,187.786 691.200,192.532 683.500,197.224 C 643.857,221.382 603.234,240.048 555.612,255.988 C 548.908,258.232 542.204,260.476 535.500,262.720 C 535.521,273.017 535.540,283.313 535.561,293.610 C 535.689,358.047 544.427,407.826 563.396,452.191 C 569.726,466.995 575.972,478.225 577.543,477.622 C 578.260,477.347 583.600,473.832 589.409,469.811 C 592.930,467.374 596.451,464.937 599.972,462.500 C 599.977,447.233 599.981,431.967 599.986,416.700 C 600.002,366.618 599.870,367.812 605.954,362.692 C 607.986,360.982 610.761,359.924 614.407,359.468 C 616.216,359.242 618.026,359.016 619.835,358.790 C 619.979,349.742 620.124,340.693 620.268,331.645 C 620.757,300.979 621.155,298.660 628.546,283.330 C 636.729,266.358 648.579,254.096 665.068,245.540 C 678.900,238.362 686.878,236.513 704,236.518 C 721.901,236.523 727.251,237.804 743.365,245.941 C 754.762,251.696 755.341,251.874 758.065,250.466 C 762.125,248.367 764.995,248.628 773.224,251.844 C 777.226,253.408 782.615,255.260 785.200,255.960 C 789.900,257.232 789.901,257.232 798.200,252.459 C 807.140,247.318 813,243.195 813,242.045 C 813,241.651 807.263,238.934 800.250,236.008 ZM 703.750,371.059 C 658.787,371.027 622.009,371.337 622.021,371.750 C 622.033,372.163 626.758,376.718 632.521,381.873 C 636.014,384.997 639.507,388.121 643,391.245 C 643,405.146 643,419.047 643,432.948 C 643,446.849 643,460.749 643,474.650 C 640.250,476.598 637.500,478.545 634.750,480.493 C 630.213,483.707 626.323,486.475 626.107,486.644 C 625.282,487.291 628.701,490.460 633.637,493.624 C 636.463,495.435 652.100,503.724 668.387,512.043 C 678.258,517.085 688.129,522.127 698,527.169 C 698,514.361 698,501.553 698,488.745 C 698,475.937 698,463.129 698,450.321 C 697.208,449.960 696.415,449.599 695.623,449.238 C 691.641,447.424 685.995,441.909 683.886,437.776 C 673.505,417.428 694.667,395.627 714.820,405.908 C 716.918,406.978 719.221,408.562 719.939,409.427 C 720.657,410.292 721.836,411 722.559,411 C 723.543,411 762.672,386.240 783.702,372.309 C 785.101,371.382 767.354,371.105 703.750,371.059 ZM 744.306,317 C 744.089,315.075 743.235,311.409 742.409,308.853 C 741.109,304.830 740.467,304.122 737.629,303.590 C 732.581,302.643 728.807,298.051 728.242,292.166 C 727.817,287.741 727.398,287.031 724.134,285.209 C 703.745,273.824 677.571,282.304 667.519,303.552 C 664.139,310.696 663.068,319.691 663.031,341.261 C 663.021,347.181 663.010,353.102 663,359.022 C 676.583,358.935 690.167,358.848 703.750,358.761 C 717.333,358.674 730.917,358.587 744.500,358.500 C 744.533,352.167 744.567,345.833 744.600,339.500 C 744.655,329.050 744.523,318.925 744.306,317 ZM 790.884,277.500 C 789.233,273.100 787.477,269.092 786.983,268.593 C 786.122,267.723 768.916,261.459 764.250,260.317 C 760.728,259.455 761.458,263.110 765.289,265.521 C 770.947,269.081 769.832,270.558 754.004,280.497 C 740.170,289.183 736.185,293 740.947,293 C 742.098,293 747.130,290.946 752.129,288.435 C 757.128,285.924 761.776,284.084 762.457,284.345 C 763.138,284.606 764.630,286.809 765.773,289.241 C 767.940,293.852 774.053,300 776.470,300 C 779.576,300 783.384,297.749 788.556,292.858 C 791.550,290.026 793.974,287.213 793.943,286.605 C 793.912,285.997 792.535,281.900 790.884,277.500 ZM 893.461,205.110 C 885.337,181.026 874.747,167.491 857.132,158.673 C 846.327,153.264 843.906,152.938 841.935,156.621 C 838.211,163.580 826.965,170 818.500,170 C 812.067,170 805.265,167.095 799.622,161.937 C 797.791,160.264 795.961,158.591 794.130,156.918 C 790.373,158.802 786.615,160.687 782.858,162.571 C 772.356,167.838 771.720,168.322 773.543,169.658 C 779.699,174.168 834.287,199.380 835.427,198.240 C 835.742,197.925 836,195.912 836,193.768 C 836,186.452 840.131,182.545 844.702,185.540 C 847.208,187.182 847.253,187.413 846.606,195.172 C 845.025,214.125 839.628,233.192 834.118,239.291 C 829.534,244.365 811.329,258.013 803.774,262.040 C 799.942,264.083 798.042,265.668 798.378,266.544 C 798.663,267.287 800.118,271.335 801.611,275.540 C 804.294,283.097 804.359,283.178 807.340,282.582 C 812.374,281.575 830.533,272.181 838.756,266.330 C 843.015,263.299 848.844,258.531 851.708,255.735 C 860.090,247.552 866.832,231.799 871.067,210.500 C 872.270,204.450 873.703,198.938 874.250,198.250 C 875.935,196.134 880.790,196.750 882.455,199.291 C 883.689,201.174 883.774,202.715 882.932,207.944 C 882.368,211.443 882.265,214.621 882.703,215.005 C 883.451,215.661 894.830,219 896.316,219 C 897.664,219 896.912,215.340 893.461,205.110 ZM 840.429,126.571 C 839.565,125.707 838.471,125 838,125 C 836.871,125 834,127.897 834,129.036 C 834,129.527 833.070,130.428 831.933,131.036 C 828.953,132.631 825.418,130.039 824.596,125.657 C 823.526,119.955 822.303,119.664 813.274,122.959 C 808.848,124.574 803.151,126.004 800.614,126.135 C 795.244,126.413 795.122,126.822 797.577,136.296 C 800.337,146.946 805.110,154.407 811.200,157.589 C 814.665,159.399 822.326,159.403 825.800,157.595 C 831.244,154.763 836,147.289 836,141.567 C 836,140.193 837.350,137.532 839,135.653 C 842.334,131.856 842.794,128.936 840.429,126.571 ZM 631,355 C 631,358.872 631.667,359 641.437,359 C 644.916,359 648.394,359 651.873,359 C 651.981,350.750 652.090,342.500 652.198,334.250 C 652.496,311.525 652.706,309.012 654.760,303.539 C 663.541,280.142 687.587,265.261 710.803,268.858 C 718.609,270.067 726.179,272.881 732.250,276.828 C 733.500,277.641 734.751,278.453 736.001,279.266 C 738.582,277.627 741.162,275.988 743.743,274.349 C 748.001,271.644 751.634,268.663 751.815,267.724 C 752.606,263.615 735.616,253.355 722.445,249.986 C 711.927,247.296 696.102,247.288 685.623,249.968 C 661.903,256.034 641.573,275.552 634.547,299 C 633.641,302.025 632.472,308.438 631.950,313.250 C 631.633,316.167 631.317,319.083 631,322 C 630.667,322 630.333,322 630,322 C 630.333,333 630.667,344 631,355 ZM 776.309,313.365 C 776.023,311.908 774.407,310.663 771.214,309.444 C 768.456,308.391 764.554,305.622 761.705,302.697 C 757.245,298.118 756.679,297.826 754.339,298.892 C 752.490,299.735 751.996,300.513 752.514,301.773 C 755.389,308.765 755.977,314.593 755.988,336.250 C 755.992,343.833 755.996,351.417 756,359 C 759.500,359 763,359 766.500,359 C 770,359 773.500,359 777,359 C 776.955,351.750 776.909,344.500 776.864,337.250 C 776.789,325.288 776.539,314.539 776.309,313.365 ZM 876,234 C 875.333,236.667 874.667,239.333 874,242 C 872.631,242 872.018,243.125 871.755,244.500 C 871.492,245.875 870.990,247 870.639,247 C 870.426,247 870.213,247 870,247 C 870,249.629 872.074,252.218 874.610,254.449 C 878.638,257.993 879.331,259.200 880.093,264.003 C 880.573,267.026 880.730,281.650 880.443,296.500 C 879.928,323.167 879.950,323.555 882.211,327.996 C 884.794,333.069 890.587,336.957 895.602,336.984 C 899.861,337.007 905.031,333.272 907.876,328.119 C 910.417,323.516 911.700,315.769 912.531,300 C 913.387,283.765 913.352,280.983 912.066,263.500 C 910.954,248.387 910.498,245.818 907.958,240.354 C 904.692,233.329 901.583,230.722 893.286,228.055 C 883.252,224.829 881.087,224.597 880.325,226.670 C 879.955,227.676 878.830,229.738 877.826,231.250 C 877.217,232.167 876.609,233.083 876,234 ZM 580.244,217.009 C 575.058,211.823 567.503,210.058 561,212.515 C 558.525,213.450 550.650,215.954 543.500,218.078 C 536.350,220.202 529.600,222.391 528.500,222.941 C 527.400,223.491 523.575,224.914 520,226.102 C 508.167,230.035 502.237,234.467 498.814,241.936 C 496.036,247.998 494.600,270.877 495.483,295 C 495.856,305.175 496.146,314.372 496.128,315.439 C 496.110,316.506 497.007,320.201 498.122,323.651 C 500.772,331.855 504.707,335.450 511.978,336.311 C 516.944,336.899 517.489,336.733 521.582,333.379 C 523.968,331.423 526.277,328.851 526.711,327.662 C 527.145,326.473 527.543,312 527.595,295.500 C 527.647,279 528.037,264.034 528.460,262.242 C 529.255,258.875 534.064,254 536.590,254 C 537.380,254 538.809,253.596 539.764,253.103 C 540.719,252.609 544.875,251.206 549,249.984 C 553.125,248.762 557.400,247.409 558.500,246.978 C 576.634,239.875 579.025,238.441 581.750,233.038 C 585.221,226.155 584.789,221.554 580.244,217.009 ZM 771.597,577.698 C 770.915,576.157 768.847,573.977 767.001,572.855 C 761.052,569.237 749.264,572.149 737.320,580.187 C 735.021,581.734 732.871,583 732.542,583 C 732.213,583 727.252,585.247 721.517,587.992 C 715.782,590.737 709.124,593.509 706.722,594.152 C 702.447,595.295 702.062,595.185 688.538,588.945 C 680.939,585.439 673.729,581.788 672.514,580.832 C 668.869,577.965 652.133,571 648.889,571 C 643.081,571 636.560,576.207 634.969,582.115 C 634.180,585.045 634.344,586.831 635.749,590.615 C 637.252,594.662 638.690,596.230 645.014,600.714 C 649.131,603.633 655.200,607.393 658.500,609.070 C 661.800,610.747 668.100,613.944 672.500,616.175 C 686.588,623.317 694.050,625.888 702.237,626.418 C 711.285,627.003 712.652,626.568 733.811,616.385 C 754.334,606.508 762.576,601.568 768.250,595.743 C 772.719,591.155 772.995,590.560 772.919,585.683 C 772.874,582.832 772.279,579.239 771.597,577.698 ZM 753.411,174.544 C 752.614,172.368 750.958,169.507 749.731,168.186 C 747.564,165.852 735.725,157 734.771,157 C 734.510,157 731.192,154.957 727.398,152.461 C 716.073,145.010 710.445,142.743 702.952,142.614 C 697.144,142.514 695.845,142.858 692.071,145.500 C 687.554,148.662 673.053,157.801 664.324,162.987 C 653.198,169.597 650.523,185.526 659.546,191.438 C 663.452,193.997 671.350,193.867 677.033,191.150 C 679.490,189.975 684.650,187.216 688.500,185.019 C 704.009,176.168 703.561,176.321 707.777,178.495 C 709.824,179.551 713.750,181.865 716.500,183.638 C 724.844,189.017 734.726,193 739.725,193 C 745.288,193 750.062,190.255 752.920,185.411 C 755.326,181.332 755.390,179.947 753.411,174.544 ZM 885.279,439.705 C 885,437.849 883.454,435.886 880.679,433.864 C 876.956,431.150 875.905,430.866 871.050,431.258 C 866.249,431.645 865.216,432.143 862.370,435.435 C 860.593,437.490 858.206,441.046 857.064,443.336 C 855.923,445.626 854.582,448.175 854.086,449 C 853.590,449.825 851.745,454.311 849.986,458.968 C 848.227,463.625 844.980,470.600 842.769,474.468 C 840.558,478.336 837.626,483.525 836.252,486 C 832.664,492.466 827.139,500.871 823.436,505.500 C 821.676,507.700 819.004,511.954 817.499,514.952 C 815.215,519.502 814.850,521.266 815.299,525.613 C 815.953,531.951 818.122,535.498 822.215,536.925 C 829.312,539.399 835.114,537.788 840.542,531.835 C 848.562,523.040 863.156,501.615 867.676,492 C 869.098,488.975 871.103,485.306 872.131,483.846 C 873.159,482.386 874,480.637 874,479.959 C 874,479.281 875.782,475.063 877.959,470.585 C 884.810,456.495 886.643,448.762 885.279,439.705 Z" fill="#000000" stroke="none" />
  <path id="26" d="M 800.250,236.008 C 807.263,238.934 813,241.651 813,242.045 C 813,243.195 807.140,247.318 798.200,252.459 C 789.901,257.232 789.900,257.232 785.200,255.960 C 782.615,255.260 777.226,253.408 773.224,251.844 C 764.995,248.628 762.125,248.367 758.065,250.466 C 755.341,251.874 754.762,251.696 743.365,245.941 C 727.251,237.804 721.901,236.523 704,236.518 C 686.878,236.513 678.900,238.362 665.068,245.540 C 648.579,254.096 636.729,266.358 628.546,283.330 C 621.155,298.660 620.757,300.979 620.268,331.645 C 620.124,340.693 619.979,349.742 619.835,358.790 C 618.026,359.016 616.216,359.242 614.407,359.468 C 610.761,359.924 607.986,360.982 605.954,362.692 C 599.870,367.812 600.002,366.618 599.986,416.700 C 599.981,431.967 599.977,447.233 599.972,462.500 C 596.451,464.937 592.930,467.374 589.409,469.811 C 583.600,473.832 578.260,477.347 577.543,477.622 C 575.972,478.225 569.726,466.995 563.396,452.191 C 544.427,407.826 535.689,358.047 535.561,293.610 C 535.540,283.313 535.521,273.017 535.500,262.720 C 542.204,260.476 548.908,258.232 555.612,255.988 C 603.234,240.048 643.857,221.382 683.500,197.224 C 691.200,192.532 699.100,187.786 701.055,186.679 C 702.240,186.008 703.425,185.336 704.610,184.665 C 709.425,187.658 714.240,190.651 719.055,193.644 C 727,198.582 737.100,204.676 741.500,207.187 C 754.226,214.449 786.346,230.206 800.250,236.008 Z" fill="#FFFFFF" stroke="none" />
  <path id="26" d="M 703.750,371.059 C 767.354,371.105 785.101,371.382 783.702,372.309 C 762.672,386.240 723.543,411 722.559,411 C 721.836,411 720.657,410.292 719.939,409.427 C 719.221,408.562 716.918,406.978 714.820,405.908 C 694.667,395.627 673.505,417.428 683.886,437.776 C 685.995,441.909 691.641,447.424 695.623,449.238 C 696.415,449.599 697.208,449.960 698,450.321 C 698,463.129 698,475.937 698,488.745 C 698,501.553 698,514.361 698,527.169 C 688.129,522.127 678.258,517.085 668.387,512.043 C 652.100,503.724 636.463,495.435 633.637,493.624 C 628.701,490.460 625.282,487.291 626.107,486.644 C 626.323,486.475 630.213,483.707 634.750,480.493 C 637.500,478.545 640.250,476.598 643,474.650 C 643,460.749 643,446.849 643,432.948 C 643,419.047 643,405.146 643,391.245 C 639.507,388.121 636.014,384.997 632.521,381.873 C 626.758,376.718 622.033,372.163 622.021,371.750 C 622.009,371.337 658.787,371.027 703.750,371.059 Z" fill="#FFFFFF" stroke="none" />
  <path id="26" d="M 893.461,205.110 C 896.912,215.340 897.664,219 896.316,219 C 894.830,219 883.451,215.661 882.703,215.005 C 882.265,214.621 882.368,211.443 882.932,207.944 C 883.774,202.715 883.689,201.174 882.455,199.291 C 880.790,196.750 875.935,196.134 874.250,198.250 C 873.703,198.938 872.270,204.450 871.067,210.500 C 866.832,231.799 860.090,247.552 851.708,255.735 C 848.844,258.531 843.015,263.299 838.756,266.330 C 830.533,272.181 812.374,281.575 807.340,282.582 C 804.359,283.178 804.294,283.097 801.611,275.540 C 800.118,271.335 798.663,267.287 798.378,266.544 C 798.042,265.668 799.942,264.083 803.774,262.040 C 811.329,258.013 829.534,244.365 834.118,239.291 C 839.628,233.192 845.025,214.125 846.606,195.172 C 847.253,187.413 847.208,187.182 844.702,185.540 C 840.131,182.545 836,186.452 836,193.768 C 836,195.912 835.742,197.925 835.427,198.240 C 834.287,199.380 779.699,174.168 773.543,169.658 C 771.720,168.322 772.356,167.838 782.858,162.571 C 786.615,160.687 790.373,158.802 794.130,156.918 C 795.961,158.591 797.791,160.264 799.622,161.937 C 805.265,167.095 812.067,170 818.500,170 C 826.965,170 838.211,163.580 841.935,156.621 C 843.906,152.938 846.327,153.264 857.132,158.673 C 874.747,167.491 885.337,181.026 893.461,205.110 Z" fill="#FFFFFF" stroke="none" />
  <path id="26" d="M 744.306,317 C 744.523,318.925 744.655,329.050 744.600,339.500 C 744.567,345.833 744.533,352.167 744.500,358.500 C 730.917,358.587 717.333,358.674 703.750,358.761 C 690.167,358.848 676.583,358.935 663,359.022 C 663.010,353.102 663.021,347.181 663.031,341.261 C 663.068,319.691 664.139,310.696 667.519,303.552 C 677.571,282.304 703.745,273.824 724.134,285.209 C 727.398,287.031 727.817,287.741 728.242,292.166 C 728.807,298.051 732.581,302.643 737.629,303.590 C 740.467,304.122 741.109,304.830 742.409,308.853 C 743.235,311.409 744.089,315.075 744.306,317 Z" fill="#FFFFFF" stroke="none" />
  <path id="38" d="M 580.244,217.009 C 584.789,221.554 585.221,226.155 581.750,233.038 C 579.025,238.441 576.634,239.875 558.500,246.978 C 557.400,247.409 553.125,248.762 549,249.984 C 544.875,251.206 540.719,252.609 539.764,253.103 C 538.809,253.596 537.380,254 536.590,254 C 534.064,254 529.255,258.875 528.460,262.242 C 528.037,264.034 527.647,279 527.595,295.500 C 527.543,312 527.145,326.473 526.711,327.662 C 526.277,328.851 523.968,331.423 521.582,333.379 C 517.489,336.733 516.944,336.899 511.978,336.311 C 504.707,335.450 500.772,331.855 498.122,323.651 C 497.007,320.201 496.110,316.506 496.128,315.439 C 496.146,314.372 495.856,305.175 495.483,295 C 494.600,270.877 496.036,247.998 498.814,241.936 C 502.237,234.467 508.167,230.035 520,226.102 C 523.575,224.914 527.400,223.491 528.500,222.941 C 529.600,222.391 536.350,220.202 543.500,218.078 C 550.650,215.954 558.525,213.450 561,212.515 C 567.503,210.058 575.058,211.823 580.244,217.009 ZM 577,225 C 576.667,224 576.333,223 576,222 C 575.713,221.417 575.427,220.833 575.140,220.250 C 573.558,217.032 565.093,218.145 547,223.948 C 537.925,226.859 527.012,230.357 522.748,231.721 C 509.974,235.809 504.936,240.516 503.480,249.723 C 503.065,252.350 502.337,262.038 501,288 C 501.299,292.417 501.597,296.833 501.896,301.250 C 503.232,321 504.679,326.687 508.945,328.970 C 512.108,330.663 516.535,330.170 518.595,327.897 C 520.361,325.948 520.539,323.416 521.042,293.147 C 521.644,256.886 521.956,255.044 528.135,251.227 C 529.986,250.084 534.650,248.157 538.500,246.946 C 553.388,242.263 563.680,238.596 568,236.436 C 574.916,232.978 578.343,228.624 577,225 Z" fill="#0E0200" stroke="none" />
  <path id="35" d="M 410.648,324 C 410.855,322.625 411.949,316.325 413.081,310 C 417.678,284.312 420.981,272.791 432.146,243.500 C 436.280,232.654 449.292,207.314 453.099,202.696 C 456.393,198.700 461.576,195.989 465.872,196.016 C 470.536,196.045 476.167,200.075 477.728,204.500 C 479.875,210.587 478.829,215.430 472.539,228.518 C 463.360,247.616 462.564,249.044 461.344,248.577 C 459.735,247.962 455.822,257.442 456.526,260.249 C 456.849,261.537 455.792,266.515 454.089,271.727 C 447.842,290.843 443.483,309.361 440.490,329.500 C 438.671,341.738 436.253,346.783 430.875,349.564 C 422.989,353.642 413.212,350.027 411.047,342.231 C 410.056,338.664 409.852,329.302 410.648,324 ZM 418.686,335 C 418.044,341.621 420.021,345 424.536,345 C 428.511,345 429.642,342.085 431.905,326 C 437.024,289.615 447.506,256.922 464.548,224.185 C 468.647,216.312 472,209.146 472,208.263 C 472,205.645 468.898,203 465.830,203 C 462.426,203 461.788,203.928 452.070,223 C 440.478,245.751 432.384,267.326 426.524,291.098 C 423.563,303.110 419.657,324.986 418.686,335 Z" fill="#FFF3E7" stroke="none" />
  <path id="38" d="M 771.597,577.698 C 772.279,579.239 772.874,582.832 772.919,585.683 C 772.995,590.560 772.719,591.155 768.250,595.743 C 762.576,601.568 754.334,606.508 733.811,616.385 C 712.652,626.568 711.285,627.003 702.237,626.418 C 694.050,625.888 686.588,623.317 672.500,616.175 C 668.100,613.944 661.800,610.747 658.500,609.070 C 655.200,607.393 649.131,603.633 645.014,600.714 C 638.690,596.230 637.252,594.662 635.749,590.615 C 634.344,586.831 634.180,585.045 634.969,582.115 C 636.560,576.207 643.081,571 648.889,571 C 652.133,571 668.869,577.965 672.514,580.832 C 673.729,581.788 680.939,585.439 688.538,588.945 C 702.062,595.185 702.447,595.295 706.722,594.152 C 709.124,593.509 715.782,590.737 721.517,587.992 C 727.252,585.247 732.213,583 732.542,583 C 732.871,583 735.021,581.734 737.320,580.187 C 749.264,572.149 761.052,569.237 767.001,572.855 C 768.847,573.977 770.915,576.157 771.597,577.698 ZM 765,587 C 765,585 765,583 765,581 C 764.524,580.453 764.049,579.906 763.573,579.359 C 761.080,576.492 754.936,578.280 741.236,585.861 C 710.058,603.115 705.205,604.357 691.684,598.550 C 686.975,596.528 678.257,592.144 672.311,588.808 C 649.714,576.131 644.826,575.225 641,583 C 641.182,583.950 641.364,584.899 641.546,585.849 C 641.846,587.416 643.534,590.075 645.296,591.760 C 653.288,599.401 687.941,617.378 699.880,620.077 C 705.873,621.432 711.858,619.574 730.500,610.577 C 755.245,598.634 765,591.967 765,587 Z" fill="#0E0200" stroke="none" />
  <path id="35" d="M 925.525,543 C 927.392,539.425 929.238,535.825 929.628,535 C 930.018,534.175 931.552,531.700 933.037,529.500 C 936.534,524.319 942.230,512.960 945.939,503.771 C 947.553,499.772 950.485,492.675 952.453,488 C 956.892,477.457 959.827,467.776 964.429,448.500 C 966.399,440.250 968.509,431.700 969.118,429.500 C 971.491,420.933 977.184,416.422 984.574,417.255 C 998.153,418.786 1000.118,429.862 992.561,462.269 C 990.217,472.320 988.340,477.674 987.466,476.800 C 987.262,476.596 987.996,472.911 989.097,468.612 C 990.198,464.313 990.927,460.281 990.717,459.652 C 990.507,459.023 989.518,461.881 988.519,466.004 C 985.307,479.259 976.915,503.119 970.550,517.097 C 963.205,533.226 950.945,554.615 945.904,560.092 C 943.926,562.241 942.858,564 943.531,564 C 944.204,564 945.373,563.256 946.128,562.346 C 947.145,561.120 947.500,561.045 947.500,562.056 C 947.500,563.936 941.495,567.817 937.395,568.586 C 932.548,569.495 929.158,568.358 925.341,564.541 C 922.291,561.491 922.005,560.690 922.065,555.350 C 922.117,550.722 922.839,548.142 925.525,543 ZM 935.065,543.500 C 931.226,549.550 928.066,555.082 928.043,555.795 C 927.986,557.521 932.534,562 934.344,562 C 936.934,562 939.838,558.649 946.477,548 C 959.567,527.004 972.670,497.625 979.629,473.663 C 983.721,459.573 988.990,435.058 988.996,430.079 C 989.003,423.932 983.351,420.745 979.664,424.819 C 978.754,425.825 977.330,430.631 976.479,435.569 C 969.955,473.440 955.323,511.573 935.065,543.500 Z" fill="#FFF3E7" stroke="none" />
  <path id="29" d="M 631,322 C 631.317,319.083 631.633,316.167 631.950,313.250 C 632.472,308.438 633.641,302.025 634.547,299 C 641.573,275.552 661.903,256.034 685.623,249.968 C 696.102,247.288 711.927,247.296 722.445,249.986 C 735.616,253.355 752.606,263.615 751.815,267.724 C 751.634,268.663 748.001,271.644 743.743,274.349 C 741.162,275.988 738.582,277.627 736.001,279.266 C 734.751,278.453 733.500,277.641 732.250,276.828 C 726.179,272.881 718.609,270.067 710.803,268.858 C 687.587,265.261 663.541,280.142 654.760,303.539 C 652.706,309.012 652.496,311.525 652.198,334.250 C 652.090,342.500 651.981,350.750 651.873,359 C 648.394,359 644.916,359 641.437,359 C 631.667,359 631,358.872 631,355 C 631,344 631,333 631,322 ZM 706.333,254.667 C 705.017,253.351 695.175,254.037 687.609,255.972 C 660.592,262.882 641.227,285.532 637.511,314.570 C 636.807,320.073 638.202,322.490 641.702,321.823 C 643.109,321.555 643.780,319.781 644.788,313.662 C 646.403,303.857 649.882,294.523 654.533,287.516 C 663.347,274.238 679.393,263.956 694.500,261.907 C 707.015,260.210 707,260.216 707,257.648 C 707,256.375 706.700,255.034 706.333,254.667 Z" fill="#FD514E" stroke="none" />
  <path id="35" d="M 448.287,411.111 C 449.029,408.787 450.787,406.823 453.880,404.861 C 459.754,401.136 464.724,401.056 468.959,404.619 C 472.772,407.827 474.361,410.858 475.974,418 C 482.499,446.883 486.650,461.674 491.676,473.950 C 495.623,483.591 508.508,509.709 510.447,512 C 512.545,514.479 514,519.987 514,525.453 C 514,529.965 513.595,530.995 510.750,533.713 C 506.851,537.438 500.918,539.299 497.313,537.929 C 495.724,537.325 494.999,536.443 495.347,535.537 C 495.680,534.670 495.107,533.851 493.900,533.468 C 490.533,532.399 483.278,521.283 474.993,504.500 C 463.095,480.397 455.082,456.510 451.007,433 C 450.006,427.225 449.144,423.737 449.093,425.250 C 449.042,426.763 448.550,428 448,428 C 446.678,428 446.890,415.484 448.287,411.111 ZM 456,422 C 455.831,423.917 455.663,425.833 455.494,427.750 C 454.854,435.023 458.365,449.602 466.030,471.500 C 472.291,489.388 476.813,498.873 482,505 C 483.060,506.750 484.121,508.500 485.181,510.250 C 486.931,513.138 490.121,518.425 492.271,522 C 497.961,531.461 500.915,533.085 505,529 C 507.800,526.200 507.508,523.700 503.681,517.702 C 486.656,491.020 473.453,455.260 467.978,421 C 466.680,412.876 464.964,410 461.416,410 C 457.270,410 456,412.816 456,422 Z" fill="#FFF3E7" stroke="none" />
  <path id="35" d="M 530.890,167.143 C 531.563,166.081 531.917,166.056 532.518,167.028 C 533.082,167.941 533.579,167.760 534.393,166.343 C 540.183,156.268 563.475,139.061 588.689,126.232 C 593.805,123.629 597.992,120.946 597.995,120.270 C 598.002,118.402 604.153,115.668 618.575,111.122 C 639.638,104.482 648.611,105.671 652.318,115.595 C 656.221,126.043 651.426,132.587 636,137.866 C 615.953,144.726 594.825,154.413 583.591,161.894 C 581.438,163.327 578.288,165.329 576.589,166.342 C 574.890,167.355 572.375,169.197 571,170.434 C 569.625,171.671 564.980,175.294 560.678,178.484 C 552.858,184.283 547.518,186.873 543.210,186.956 C 540.084,187.016 533.476,183.517 531.566,180.791 C 529.878,178.381 529.435,169.440 530.890,167.143 ZM 632,129 C 633.641,128.526 635.282,128.051 636.923,127.577 C 644.812,125.296 646,124.368 646,120.488 C 646,117.938 645.364,116.629 643.546,115.438 C 641.249,113.933 640.497,114.001 631.796,116.499 C 609.008,123.040 585.852,133.808 566,147.096 C 554.013,155.120 539.041,167.460 537,171 C 537.172,171.829 537.344,172.658 537.516,173.487 C 537.800,174.855 539.171,176.722 540.564,177.634 C 542.989,179.223 543.263,179.180 551,174 C 551.250,174.022 551.500,174.043 551.750,174.065 C 552.162,174.101 555.387,171.824 558.916,169.006 C 562.445,166.188 568.520,161.882 572.416,159.438 C 576.312,156.994 580.483,154.322 581.685,153.500 C 586.316,150.332 601.352,142.758 610.711,138.879 C 616.095,136.648 622.075,134.158 624,133.346 C 625.925,132.534 628.513,131.224 632,129 Z" fill="#FFF3E7" stroke="none" />
  <path id="35" d="M 898.549,510 C 901.069,505.325 904.450,499.146 906.063,496.269 C 912.593,484.622 923.035,457.024 926.598,442 C 930.833,424.141 932.739,420.393 939.229,417.162 C 944.748,414.414 948.453,414.828 953.060,418.704 C 959.760,424.342 960.566,431.368 956.430,448.101 C 950.213,473.254 939.937,499.329 928.230,519.662 C 919.966,534.015 916.451,537.199 908.235,537.778 C 902.874,538.156 902.243,537.958 898.558,534.755 C 894.835,531.519 894.598,530.971 894.292,524.914 C 893.989,518.913 894.263,517.953 898.549,510 ZM 908.189,512 C 901.684,523.146 900.830,526.631 903.918,529.425 C 908.743,533.792 912.717,529.433 924.360,507 C 935.363,485.801 943.991,461.715 948.479,439.668 C 951.061,426.983 950.812,424.040 946.981,421.990 C 944.330,420.571 940.275,422.902 939.547,426.263 C 931.787,462.068 922.478,487.517 908.189,512 Z" fill="#FFF3E7" stroke="none" />
  <path id="38" d="M 885.279,439.705 C 886.643,448.762 884.810,456.495 877.959,470.585 C 875.782,475.063 874,479.281 874,479.959 C 874,480.637 873.159,482.386 872.131,483.846 C 871.103,485.306 869.098,488.975 867.676,492 C 863.156,501.615 848.562,523.040 840.542,531.835 C 835.114,537.788 829.312,539.399 822.215,536.925 C 818.122,535.498 815.953,531.951 815.299,525.613 C 814.850,521.266 815.215,519.502 817.499,514.952 C 819.004,511.954 821.676,507.700 823.436,505.500 C 827.139,500.871 832.664,492.466 836.252,486 C 837.626,483.525 840.558,478.336 842.769,474.468 C 844.980,470.600 848.227,463.625 849.986,458.968 C 851.745,454.311 853.590,449.825 854.086,449 C 854.582,448.175 855.923,445.626 857.064,443.336 C 858.206,441.046 860.593,437.490 862.370,435.435 C 865.216,432.143 866.249,431.645 871.050,431.258 C 875.905,430.866 876.956,431.150 880.679,433.864 C 883.454,435.886 885,437.849 885.279,439.705 ZM 877,441 C 877,439.480 875.875,438.804 874.500,438.519 C 873.667,438.346 872.833,438.173 872,438 C 871.709,437.820 871.417,437.639 871.126,437.459 C 869.265,436.306 864.228,442.172 861.481,448.692 C 851.809,471.645 842.114,489.764 830.519,506.558 C 827.079,511.540 823.530,516.828 821,521 C 821,522.167 821,523.333 821,524.500 C 821,526.765 821.771,528.771 823.185,530.185 C 825.106,532.106 825.864,532.255 829.470,531.418 C 832.835,530.637 834.608,529.212 839.344,523.483 C 846.633,514.665 850.375,509.036 859.113,493.740 C 875.175,465.624 882.476,444.097 877,441 Z" fill="#0E0200" stroke="none" />
  <path id="38" d="M 753.411,174.544 C 755.390,179.947 755.326,181.332 752.920,185.411 C 750.062,190.255 745.288,193 739.725,193 C 734.726,193 724.844,189.017 716.500,183.638 C 713.750,181.865 709.824,179.551 707.777,178.495 C 703.561,176.321 704.009,176.168 688.500,185.019 C 684.650,187.216 679.490,189.975 677.033,191.150 C 671.350,193.867 663.452,193.997 659.546,191.438 C 650.523,185.526 653.198,169.597 664.324,162.987 C 673.053,157.801 687.554,148.662 692.071,145.500 C 695.845,142.858 697.144,142.514 702.952,142.614 C 710.445,142.743 716.073,145.010 727.398,152.461 C 731.192,154.957 734.510,157 734.771,157 C 735.725,157 747.564,165.852 749.731,168.186 C 750.958,169.507 752.614,172.368 753.411,174.544 ZM 662,183 C 663,183.667 664,184.333 665,185 C 665.002,185.250 665.004,185.500 665.006,185.750 C 665.009,186.163 666.814,186.432 669.018,186.349 C 672.021,186.236 676.447,184.239 686.692,178.372 C 703.770,168.592 704.300,168.553 717.076,176.146 C 736.023,187.406 740.746,188.843 745.472,184.778 C 747.923,182.670 748.201,181.888 747.616,178.768 C 746.764,174.227 742.871,170.672 727.822,160.692 C 709.571,148.589 704.793,147.094 696.465,150.877 C 687.239,155.068 665.877,170.371 660,177 C 660,177.814 660,178.627 660,179.441 C 660,180.784 660.450,182.134 662,183 Z" fill="#0E0200" stroke="none" />
  <path id="35" d="M 787.168,616.678 C 788.911,614.936 790.501,614.003 790.702,614.605 C 790.903,615.207 790.376,616.272 789.533,616.972 C 788.690,617.672 788,618.686 788,619.226 C 788,619.766 789.532,618.924 791.405,617.354 C 793.278,615.785 798.340,612.528 802.655,610.119 C 814.191,603.677 823.616,597.518 836.118,588.250 C 842.239,583.713 847.816,580 848.512,580 C 849.208,580 849.715,579.213 849.639,578.250 C 849.534,576.926 850.390,576.425 853.152,576.195 C 857.865,575.802 863.388,578.135 865.547,581.431 C 868.047,585.247 868.541,592.038 866.497,594.500 C 865.117,596.162 864.930,596.204 865.387,594.750 C 866.307,591.823 864.515,592.799 863.362,595.853 C 860.334,603.875 819.199,632.434 804,637.066 C 801.615,637.793 801.604,637.832 803.750,637.914 C 808.076,638.079 805.954,639.750 800.750,640.277 C 794.010,640.959 787.800,638.447 785.571,634.137 C 784.689,632.432 784,628.632 784,625.473 C 784,620.488 784.361,619.485 787.168,616.678 ZM 805,616 C 803.250,616.879 801.500,617.757 799.750,618.636 C 796.862,620.086 793.713,621.886 791,624 C 791,624.810 791,625.619 791,626.429 C 791,632.055 796.314,633.410 805,630 C 805.685,630 806.371,630 807.056,630 C 813.465,630 851.988,604.286 852,600 C 853.339,598.786 854.678,597.571 856.017,596.357 C 860.539,592.255 861.772,588.991 860.148,585.426 C 858.245,581.249 853.813,582.369 846,589 C 845.231,589.250 844.461,589.500 843.692,589.750 C 842.423,590.162 839.610,591.871 837.442,593.548 C 832.841,597.106 829.853,599.022 823.283,602.627 C 820.652,604.071 817.600,606.027 816.500,606.974 C 815.400,607.921 811.825,610.198 808.555,612.033 C 805.285,613.868 803.148,615.512 805,616 Z" fill="#FFF3E7" stroke="none" />
  <path id="60" d="M 935.065,543.500 C 955.323,511.573 969.955,473.440 976.479,435.569 C 977.330,430.631 978.754,425.825 979.664,424.819 C 983.351,420.745 989.003,423.932 988.996,430.079 C 988.990,435.058 983.721,459.573 979.629,473.663 C 972.670,497.625 959.567,527.004 946.477,548 C 939.838,558.649 936.934,562 934.344,562 C 932.534,562 927.986,557.521 928.043,555.795 C 928.066,555.082 931.226,549.550 935.065,543.500 Z" fill="#000000" stroke="none" />
  <path id="60" d="M 421.829,424.655 C 424.228,422.484 427.287,422.555 429.346,424.830 C 430.319,425.905 431.847,431.368 433.051,438.080 C 439.915,476.333 453.755,511.646 474.302,543.334 C 480.473,552.852 481.214,554.490 480.396,556.816 C 479.396,559.661 475.270,561.701 472.595,560.675 C 469.866,559.628 457.402,539.508 448.636,522 C 436.086,496.936 427.112,470.751 422.011,444.318 C 419.485,431.231 419.445,426.813 421.829,424.655 Z" fill="#000000" stroke="none" />
  <path id="60" d="M 418.686,335 C 419.657,324.986 423.563,303.110 426.524,291.098 C 432.384,267.326 440.478,245.751 452.070,223 C 461.788,203.928 462.426,203 465.830,203 C 468.898,203 472,205.645 472,208.263 C 472,209.146 468.647,216.312 464.548,224.185 C 447.506,256.922 437.024,289.615 431.905,326 C 429.642,342.085 428.511,345 424.536,345 C 420.021,345 418.044,341.621 418.686,335 Z" fill="#000000" stroke="none" />
  <path id="35" d="M 540.969,583.418 C 543.361,577.505 552.704,573.757 559.479,575.993 C 562.789,577.085 564.327,579 561.895,579 C 560.065,579 573.611,589.336 588.500,599.301 C 596.200,604.454 603.095,609.393 603.823,610.276 C 604.551,611.159 605.704,611.667 606.386,611.405 C 608.002,610.785 610.558,613.772 611.382,617.241 C 611.740,618.748 611.514,622.044 610.879,624.565 C 609.426,630.334 603.991,634.289 598.181,633.806 C 596.157,633.638 594.500,633.050 594.501,632.500 C 594.502,631.950 592.162,630.547 589.302,629.382 C 576.229,624.059 552.414,606.645 545.836,597.600 C 543.724,594.696 542.992,594.185 542.968,595.600 C 542.937,597.449 542.897,597.448 541.468,595.559 C 539.882,593.462 539.608,586.783 540.969,583.418 ZM 548.829,583.655 C 546.604,585.669 546.482,588.815 548.517,591.720 C 554.050,599.619 592.727,626 598.775,626 C 601.731,626 604,623.353 604,619.904 C 604,617.442 603.222,616.497 599.318,614.225 C 588.666,608.024 570.963,595.725 563.141,589.090 C 554.522,581.779 551.972,580.810 548.829,583.655 Z" fill="#FFF3E7" stroke="none" />
  <path id="35" d="M 926.880,309 C 928.441,301.547 933.829,297 941.100,297 C 945.527,297 950.592,300.432 953.404,305.337 C 957.573,312.608 961.952,334.567 961.983,348.356 C 961.999,355.691 961.789,356.479 958.814,360.235 C 954.670,365.468 950.837,367.067 944.996,366.001 C 941.611,365.383 939.705,364.262 937.286,361.466 C 933.659,357.274 932.730,354.683 931.017,344 C 930.355,339.875 929.215,333.575 928.482,330 C 926.615,320.894 926.021,313.104 926.880,309 ZM 935.295,307 C 934.607,308.375 934.247,310.175 934.494,311 C 936.058,316.214 938.183,327.448 939.980,340 C 941.685,351.909 942.427,354.813 944.138,356.250 C 946.726,358.424 947.924,358.441 950.913,356.348 C 953.160,354.774 953.242,354.315 952.649,346.597 C 951.992,338.051 948.682,318.250 946.781,311.500 C 945.190,305.848 943.210,303.843 939.574,304.201 C 937.522,304.403 936.143,305.306 935.295,307 Z" fill="#FFF3E7" stroke="none" />
  <path id="60" d="M 527.200,615.200 C 529.838,612.562 533.724,613.938 541.650,620.319 C 569.203,642.499 599.571,658.643 631.500,668.085 C 637,669.711 642.062,671.793 642.750,672.712 C 645.551,676.455 642.894,682 638.299,682 C 634.960,682 611.689,674.237 599.137,668.936 C 578.365,660.163 555.078,646.150 535.957,630.917 C 526.970,623.757 526,622.664 526,619.692 C 526,617.881 526.540,615.860 527.200,615.200 Z" fill="#000000" stroke="none" />
  <path id="38" d="M 878,234 C 877.333,234 876.667,234 876,234 C 876.609,233.083 877.217,232.167 877.826,231.250 C 878.830,229.738 879.955,227.676 880.325,226.670 C 881.087,224.597 883.252,224.829 893.286,228.055 C 901.583,230.722 904.692,233.329 907.958,240.354 C 910.498,245.818 910.954,248.387 912.066,263.500 C 913.352,280.983 913.387,283.765 912.531,300 C 911.700,315.769 910.417,323.516 907.876,328.119 C 905.031,333.272 899.861,337.007 895.602,336.984 C 890.587,336.957 884.794,333.069 882.211,327.996 C 879.950,323.555 879.928,323.167 880.443,296.500 C 880.730,281.650 880.573,267.026 880.093,264.003 C 879.331,259.200 878.638,257.993 874.610,254.449 C 872.074,252.218 870,249.629 870,247 C 870.213,247 870.426,247 870.639,247 C 870.990,247 871.492,245.875 871.755,244.500 C 872.018,243.125 872.631,242 874,242 C 874.333,242.667 874.667,243.333 875,244 C 874.917,244.389 874.833,244.779 874.750,245.168 C 874.612,245.811 875.541,246.879 876.814,247.542 C 881.204,249.830 884.792,254.186 886.117,258.836 C 887.102,262.291 887.397,270.630 887.254,291 C 887.040,321.374 887.723,326.699 892,328 C 895.487,328.872 897.062,328.646 897.750,328.062 C 898.167,327.708 898.583,327.354 899,327 C 899.692,326.219 900.384,325.439 901.077,324.658 C 904.046,321.310 904.929,312.423 904.967,285.474 C 905.002,260.560 903.870,247.498 901.199,242.009 C 899.192,237.886 893.719,234.552 886.150,232.844 C 882.033,231.915 880.477,231.909 878,234 Z" fill="#0E0200" stroke="none" />
  <path id="60" d="M 456,422 C 456,412.816 457.270,410 461.416,410 C 464.964,410 466.680,412.876 467.978,421 C 473.453,455.260 486.656,491.020 503.681,517.702 C 507.508,523.700 507.800,526.200 505,529 C 500.915,533.085 497.961,531.461 492.271,522 C 490.121,518.425 486.931,513.138 485.181,510.250 C 484.121,508.500 483.060,506.750 482,505 C 480.624,501.750 479.249,498.500 477.873,495.250 C 466.613,468.647 462.827,455.969 456,422 Z" fill="#000000" stroke="none" />
  <path id="60" d="M 766.250,672.745 C 766.938,671.845 774.578,668.794 783.229,665.966 C 811.053,656.869 841.600,640.215 865.433,621.147 C 874.969,613.518 878.275,612.437 881.425,615.918 C 884.388,619.192 882.967,622.029 875,628.752 C 858.497,642.678 829.491,660.338 808.190,669.429 C 797.338,674.061 773.529,682 770.492,682 C 768.003,682 765,678.703 765,675.969 C 765,675.097 765.562,673.645 766.250,672.745 Z" fill="#000000" stroke="none" />
  <path id="49" d="M 576,222 C 571.941,220.112 569.530,220.623 561.499,223.547 C 551.504,227.187 539.547,231.090 520.242,237.013 C 513.509,239.079 509.641,240.802 508.984,242.029 C 506.174,247.280 506.230,320.825 509.048,326.090 C 510.136,328.124 514.870,328.729 516.550,327.050 C 517.117,326.483 517.500,310.472 517.500,287.300 C 517.500,274.367 517.500,261.433 517.500,248.500 C 521.333,247.356 525.167,246.211 529,245.067 C 535.325,243.179 547.925,239.019 557,235.824 C 569.633,231.376 573.910,229.426 575.250,227.507 C 575.833,226.671 576.417,225.836 577,225 C 578.343,228.624 574.916,232.978 568,236.436 C 563.680,238.596 553.388,242.263 538.500,246.946 C 534.650,248.157 529.986,250.084 528.135,251.227 C 521.956,255.044 521.644,256.886 521.042,293.147 C 520.539,323.416 520.361,325.948 518.595,327.897 C 516.535,330.170 512.108,330.663 508.945,328.970 C 504.679,326.687 503.232,321 501.896,301.250 C 501.597,296.833 501.299,292.417 501,288 C 502.337,262.038 503.065,252.350 503.480,249.723 C 504.936,240.516 509.974,235.809 522.748,231.721 C 527.012,230.357 537.925,226.859 547,223.948 C 565.093,218.145 573.558,217.032 575.140,220.250 C 575.427,220.833 575.713,221.417 576,222 Z" fill="#440807" stroke="none" />
  <path id="29" d="M 577,225 C 576.417,225.836 575.833,226.671 575.250,227.507 C 573.910,229.426 569.633,231.376 557,235.824 C 547.925,239.019 535.325,243.179 529,245.067 C 525.167,246.211 521.333,247.356 517.500,248.500 C 517.500,261.433 517.500,274.367 517.500,287.300 C 517.500,310.472 517.117,326.483 516.550,327.050 C 514.870,328.729 510.136,328.124 509.048,326.090 C 506.230,320.825 506.174,247.280 508.984,242.029 C 509.641,240.802 513.509,239.079 520.242,237.013 C 539.547,231.090 551.504,227.187 561.499,223.547 C 569.530,220.623 571.941,220.112 576,222 C 576.333,223 576.667,224 577,225 Z" fill="#FD514E" stroke="none" />
  <path id="60" d="M 537,171 C 539.041,167.460 554.013,155.120 566,147.096 C 585.852,133.808 609.008,123.040 631.796,116.499 C 640.497,114.001 641.249,113.933 643.546,115.438 C 645.364,116.629 646,117.938 646,120.488 C 646,124.368 644.812,125.296 636.923,127.577 C 635.282,128.051 633.641,128.526 632,129 C 628.417,130.181 624.833,131.361 621.250,132.542 C 607.228,137.162 587.155,147.050 574,155.819 C 568.225,159.668 560.688,165.333 551,174 C 543.263,179.180 542.989,179.223 540.564,177.634 C 539.171,176.722 537.800,174.855 537.516,173.487 C 537.344,172.658 537.172,171.829 537,171 Z" fill="#000000" stroke="none" />
  <path id="60" d="M 949.615,230.333 C 954.407,227.193 956.590,229.622 964.169,246.526 C 975.173,271.069 982.647,295.914 987.024,322.500 C 989.743,339.016 989.666,342.739 986.574,344.148 C 985.240,344.756 983.006,344.967 981.610,344.617 C 978.638,343.871 978.076,342.073 975.476,325 C 971.450,298.558 961.398,266.663 949.880,243.779 C 946.202,236.471 946.126,232.619 949.615,230.333 Z" fill="#000000" stroke="none" />
  <path id="60" d="M 908.189,512 C 922.478,487.517 931.787,462.068 939.547,426.263 C 940.275,422.902 944.330,420.571 946.981,421.990 C 950.812,424.040 951.061,426.983 948.479,439.668 C 943.991,461.715 935.363,485.801 924.360,507 C 912.717,529.433 908.743,533.792 903.918,529.425 C 900.830,526.631 901.684,523.146 908.189,512 Z" fill="#000000" stroke="none" />
  <path id="29" d="M 765,587 C 762.750,588.511 760.500,590.021 758.250,591.532 C 749.672,597.292 710.974,616.727 706.358,617.593 C 703.740,618.084 701.211,617.552 696.187,615.453 C 681.099,609.151 649.756,592.550 644.750,588.208 C 642.374,586.147 642.479,581.350 644.928,580.039 C 647.444,578.692 648.197,579.010 663.500,587.875 C 670.650,592.017 682.716,598.271 690.312,601.773 C 694.916,603.896 699.519,606.018 704.123,608.141 C 708.464,606.134 712.805,604.127 717.146,602.120 C 724.309,598.808 736.923,592.198 745.177,587.431 C 758.554,579.705 760.446,578.885 765,581 C 765,583 765,585 765,587 Z" fill="#FD514E" stroke="none" />
  <path id="29" d="M 776.309,313.365 C 776.539,314.539 776.789,325.288 776.864,337.250 C 776.909,344.500 776.955,351.750 777,359 C 773.500,359 770,359 766.500,359 C 763,359 759.500,359 756,359 C 755.996,351.417 755.992,343.833 755.988,336.250 C 755.977,314.593 755.389,308.765 752.514,301.773 C 751.996,300.513 752.490,299.735 754.339,298.892 C 756.679,297.826 757.245,298.118 761.705,302.697 C 764.554,305.622 768.456,308.391 771.214,309.444 C 774.407,310.663 776.023,311.908 776.309,313.365 Z" fill="#FD514E" stroke="none" />
  <path id="35" d="M 447.638,331.500 C 448.609,323.383 452.509,307.729 454.401,304.356 C 460.035,294.311 472.803,293.277 479.429,302.329 C 482.298,306.249 481.995,318.917 478.701,332.681 C 474.918,348.489 470.843,353.650 462.401,353.323 C 451.898,352.917 446.102,344.349 447.638,331.500 ZM 457.459,330.383 C 456.766,334.847 456.153,339.002 456.099,339.615 C 455.926,341.568 460.073,346 462.073,346 C 465.777,346 467.674,342.656 468.948,333.885 C 469.618,329.273 471.072,321.549 472.179,316.721 C 474.049,308.567 474.077,307.766 472.573,305.471 C 470.430,302.200 465.620,302.081 463.641,305.250 C 461.963,307.936 459.201,319.165 457.459,330.383 Z" fill="#FFF3E7" stroke="none" />
  <path id="60" d="M 928,380 C 929.946,378.054 931.333,378 979.345,378 C 1025.880,378 1028.784,378.104 1030.345,379.829 C 1032.531,382.244 1032.448,386.284 1030.171,388.345 C 1028.522,389.838 1023.538,390 979.394,390 C 936.710,390 930.161,389.800 928.223,388.443 C 925.448,386.499 925.346,382.654 928,380 Z" fill="#000000" stroke="none" />
  <path id="26" d="M 840.429,126.571 C 842.794,128.936 842.334,131.856 839,135.653 C 837.350,137.532 836,140.193 836,141.567 C 836,147.289 831.244,154.763 825.800,157.595 C 822.326,159.403 814.665,159.399 811.200,157.589 C 805.110,154.407 800.337,146.946 797.577,136.296 C 795.122,126.822 795.244,126.413 800.614,126.135 C 803.151,126.004 808.848,124.574 813.274,122.959 C 822.303,119.664 823.526,119.955 824.596,125.657 C 825.418,130.039 828.953,132.631 831.933,131.036 C 833.070,130.428 834,129.527 834,129.036 C 834,127.897 836.871,125 838,125 C 838.471,125 839.565,125.707 840.429,126.571 Z" fill="#FFFFFF" stroke="none" />
  <path id="29" d="M 877,441 C 877,441.836 877,442.673 877,443.509 C 877,447.655 866.462,472.602 858.842,486.494 C 851.436,499.996 841.292,515.690 834.113,524.750 C 829.876,530.098 826.768,531.368 824.200,528.800 C 821.680,526.280 823.093,522.703 830.485,512.890 C 843.558,495.535 854.887,474.919 864.518,450.955 C 867.047,444.663 869.765,439.174 872,438 C 872.833,438.173 873.667,438.346 874.500,438.519 C 875.875,438.804 877,439.480 877,441 Z" fill="#FD514E" stroke="none" />
  <path id="26" d="M 790.884,277.500 C 792.535,281.900 793.912,285.997 793.943,286.605 C 793.974,287.213 791.550,290.026 788.556,292.858 C 783.384,297.749 779.576,300 776.470,300 C 774.053,300 767.940,293.852 765.773,289.241 C 764.630,286.809 763.138,284.606 762.457,284.345 C 761.776,284.084 757.128,285.924 752.129,288.435 C 747.130,290.946 742.098,293 740.947,293 C 736.185,293 740.170,289.183 754.004,280.497 C 769.832,270.558 770.947,269.081 765.289,265.521 C 761.458,263.110 760.728,259.455 764.250,260.317 C 768.916,261.459 786.122,267.723 786.983,268.593 C 787.477,269.092 789.233,273.100 790.884,277.500 Z" fill="#FFFFFF" stroke="none" />
  <path id="60" d="M 518.250,136.363 C 531.496,123.931 552.664,109.435 572.069,99.509 C 584.208,93.300 587.168,92.800 589.619,96.541 C 592.228,100.523 590.269,103.336 581.978,107.511 C 563.569,116.782 541.878,131.306 527.692,143.860 C 521.492,149.347 517.559,150.417 514.571,147.429 C 511.715,144.573 512.718,141.555 518.250,136.363 Z" fill="#000000" stroke="none" />
  <path id="29" d="M 665,185 C 664,184.333 663,183.667 662,183 C 661.835,182.476 661.669,181.952 661.504,181.428 C 660.656,178.741 662.754,176.293 669.245,172.398 C 672.685,170.334 681.678,164.634 689.229,159.732 C 700.692,152.290 703.342,150.958 705.284,151.660 C 707.388,152.420 716.769,158.257 738.775,172.500 C 744.418,176.152 746.593,178.159 746.845,179.944 C 747.213,182.548 744.851,185 741.975,185 C 740.372,185 726.714,177.014 712.325,167.663 C 708.379,165.098 704.710,163 704.172,163 C 703.634,163 696.532,167.269 688.390,172.487 C 680.248,177.705 671.654,182.654 665,185 Z" fill="#FD514E" stroke="none" />
  <path id="29" d="M 874,242 C 874.667,239.333 875.333,236.667 876,234 C 876.667,234 877.333,234 878,234 C 880.917,234.817 883.833,235.635 886.750,236.452 C 900.442,240.289 899.990,239.384 901.026,265 C 901.923,287.179 900.837,320.421 899,327 C 898.583,327.354 898.167,327.708 897.750,328.062 C 897.062,328.646 895.487,328.872 892,328 C 891.649,327.528 891.298,327.055 890.947,326.583 C 890.220,325.605 890.175,319.025 890.804,305.333 C 891.707,285.663 890.978,251.393 889.610,249.179 C 889.218,248.545 885.771,247.121 875,244 C 874.667,243.333 874.333,242.667 874,242 Z" fill="#FD514E" stroke="none" />
  <path id="49" d="M 765,581 C 760.446,578.885 758.554,579.705 745.177,587.431 C 736.923,592.198 724.309,598.808 717.146,602.120 C 712.805,604.127 708.464,606.134 704.123,608.141 C 699.519,606.018 694.916,603.896 690.312,601.773 C 682.716,598.271 670.650,592.017 663.500,587.875 C 648.197,579.010 647.444,578.692 644.928,580.039 C 642.479,581.350 642.374,586.147 644.750,588.208 C 649.756,592.550 681.099,609.151 696.187,615.453 C 701.211,617.552 703.740,618.084 706.358,617.593 C 710.974,616.727 749.672,597.292 758.250,591.532 C 760.500,590.021 762.750,588.511 765,587 C 765,591.967 755.245,598.634 730.500,610.577 C 711.858,619.574 705.873,621.432 699.880,620.077 C 687.941,617.378 653.288,599.401 645.296,591.760 C 643.534,590.075 641.846,587.416 641.546,585.849 C 641.364,584.899 641.182,583.950 641,583 C 644.826,575.225 649.714,576.131 672.311,588.808 C 678.257,592.144 686.975,596.528 691.684,598.550 C 705.205,604.357 710.058,603.115 741.236,585.861 C 754.936,578.280 761.080,576.492 763.573,579.359 C 764.049,579.906 764.524,580.453 765,581 Z" fill="#440807" stroke="none" />
  <path id="60" d="M 862.571,542.571 C 866.669,538.473 867.776,539.345 905.350,576.270 C 938.316,608.666 941.172,611.738 940.850,614.468 C 940.617,616.446 939.589,617.946 937.770,618.962 C 935.344,620.318 934.772,620.322 932.632,618.994 C 931.307,618.172 914.649,602.135 895.612,583.355 C 859.473,547.704 858.562,546.580 862.571,542.571 Z" fill="#000000" stroke="none" />
  <path id="60" d="M 439.571,120.571 C 443.692,116.450 444.666,117.232 482.718,155.232 C 514.672,187.142 519,191.830 519,194.532 C 519,198.405 517.419,200 513.582,200 C 510.948,200 505.951,195.393 474.282,163.768 C 436.143,125.681 435.393,124.749 439.571,120.571 Z" fill="#000000" stroke="none" />
  <path id="60" d="M 791,624 C 793.713,621.886 796.862,620.086 799.750,618.636 C 801.500,617.757 803.250,616.879 805,616 C 807.583,614.620 810.167,613.241 812.750,611.861 C 823.353,606.198 832.967,599.588 846,589 C 853.813,582.369 858.245,581.249 860.148,585.426 C 861.772,588.991 860.539,592.255 856.017,596.357 C 854.678,597.571 853.339,598.786 852,600 C 849.750,601.610 847.500,603.219 845.250,604.829 C 832.031,614.285 825.778,618.196 805,630 C 796.314,633.410 791,632.055 791,626.429 C 791,625.619 791,624.810 791,624 Z" fill="#000000" stroke="none" />
  <path id="60" d="M 377.829,379.655 C 379.478,378.162 384.462,378 428.606,378 C 482.580,378 482,377.935 482,384 C 482,390.067 482.597,390 428.432,390 C 382.113,390 379.216,389.895 377.655,388.171 C 375.469,385.756 375.552,381.716 377.829,379.655 Z" fill="#000000" stroke="none" />
  <path id="49" d="M 665,185 C 671.654,182.654 680.248,177.705 688.390,172.487 C 696.532,167.269 703.634,163 704.172,163 C 704.710,163 708.379,165.098 712.325,167.663 C 726.714,177.014 740.372,185 741.975,185 C 744.851,185 747.213,182.548 746.845,179.944 C 746.593,178.159 744.418,176.152 738.775,172.500 C 716.769,158.257 707.388,152.420 705.284,151.660 C 703.342,150.958 700.692,152.290 689.229,159.732 C 681.678,164.634 672.685,170.334 669.245,172.398 C 662.754,176.293 660.656,178.741 661.504,181.428 C 661.669,181.952 661.835,182.476 662,183 C 660.450,182.134 660,180.784 660,179.441 C 660,178.627 660,177.814 660,177 C 665.877,170.371 687.239,155.068 696.465,150.877 C 704.793,147.094 709.571,148.589 727.822,160.692 C 742.871,170.672 746.764,174.227 747.616,178.768 C 748.201,181.888 747.923,182.670 745.472,184.778 C 740.746,188.843 736.023,187.406 717.076,176.146 C 704.300,168.553 703.770,168.592 686.692,178.372 C 676.447,184.239 672.021,186.236 669.018,186.349 C 666.814,186.432 665.009,186.163 665.006,185.750 C 665.004,185.500 665.002,185.250 665,185 Z" fill="#440807" stroke="none" />
  <path id="60" d="M 548.829,583.655 C 551.972,580.810 554.522,581.779 563.141,589.090 C 570.963,595.725 588.666,608.024 599.318,614.225 C 603.222,616.497 604,617.442 604,619.904 C 604,623.353 601.731,626 598.775,626 C 592.727,626 554.050,599.619 548.517,591.720 C 546.482,588.815 546.604,585.669 548.829,583.655 Z" fill="#000000" stroke="none" />
  <path id="49" d="M 872,438 C 869.765,439.174 867.047,444.663 864.518,450.955 C 854.887,474.919 843.558,495.535 830.485,512.890 C 823.093,522.703 821.680,526.280 824.200,528.800 C 826.768,531.368 829.876,530.098 834.113,524.750 C 841.292,515.690 851.436,499.996 858.842,486.494 C 866.462,472.602 877,447.655 877,443.509 C 877,442.673 877,441.836 877,441 C 882.476,444.097 875.175,465.624 859.113,493.740 C 850.375,509.036 846.633,514.665 839.344,523.483 C 834.608,529.212 832.835,530.637 829.470,531.418 C 825.864,532.255 825.106,532.106 823.185,530.185 C 821.771,528.771 821,526.765 821,524.500 C 821,523.333 821,522.167 821,521 C 823.530,516.828 827.079,511.540 830.519,506.558 C 842.114,489.764 851.809,471.645 861.481,448.692 C 864.228,442.172 869.265,436.306 871.126,437.459 C 871.417,437.639 871.709,437.820 872,438 Z" fill="#440807" stroke="none" />
  <path id="60" d="M 935.295,307 C 936.143,305.306 937.522,304.403 939.574,304.201 C 943.210,303.843 945.190,305.848 946.781,311.500 C 948.682,318.250 951.992,338.051 952.649,346.597 C 953.242,354.315 953.160,354.774 950.913,356.348 C 947.924,358.441 946.726,358.424 944.138,356.250 C 942.427,354.813 941.685,351.909 939.980,340 C 938.183,327.448 936.058,316.214 934.494,311 C 934.247,310.175 934.607,308.375 935.295,307 Z" fill="#000000" stroke="none" />
  <path id="49" d="M 899,327 C 900.837,320.421 901.923,287.179 901.026,265 C 899.990,239.384 900.442,240.289 886.750,236.452 C 883.833,235.635 880.917,234.817 878,234 C 880.477,231.909 882.033,231.915 886.150,232.844 C 893.719,234.552 899.192,237.886 901.199,242.009 C 903.870,247.498 905.002,260.560 904.967,285.474 C 904.929,312.423 904.046,321.310 901.077,324.658 C 900.384,325.439 899.692,326.219 899,327 Z" fill="#440807" stroke="none" />
  <path id="60" d="M 457.459,330.383 C 459.201,319.165 461.963,307.936 463.641,305.250 C 465.620,302.081 470.430,302.200 472.573,305.471 C 474.077,307.766 474.049,308.567 472.179,316.721 C 471.072,321.549 469.618,329.273 468.948,333.885 C 467.674,342.656 465.777,346 462.073,346 C 460.073,346 455.926,341.568 456.099,339.615 C 456.153,339.002 456.766,334.847 457.459,330.383 Z" fill="#000000" stroke="none" />
  <path id="49" d="M 875,244 C 885.771,247.121 889.218,248.545 889.610,249.179 C 890.978,251.393 891.707,285.663 890.804,305.333 C 890.175,319.025 890.220,325.605 890.947,326.583 C 891.298,327.055 891.649,327.528 892,328 C 887.723,326.699 887.040,321.374 887.254,291 C 887.397,270.630 887.102,262.291 886.117,258.836 C 884.792,254.186 881.204,249.830 876.814,247.542 C 875.541,246.879 874.612,245.811 874.750,245.168 C 874.833,244.779 874.917,244.389 875,244 Z" fill="#440807" stroke="none" />
  <path id="26" d="M 706.333,254.667 C 706.700,255.034 707,256.375 707,257.648 C 707,260.216 707.015,260.210 694.500,261.907 C 679.393,263.956 663.347,274.238 654.533,287.516 C 649.882,294.523 646.403,303.857 644.788,313.662 C 643.780,319.781 643.109,321.555 641.702,321.823 C 638.202,322.490 636.807,320.073 637.511,314.570 C 641.227,285.532 660.592,262.882 687.609,255.972 C 695.175,254.037 705.017,253.351 706.333,254.667 Z" fill="#FFFFFF" stroke="none" />
  <path id="64" d="M 482,505 C 476.813,498.873 472.291,489.388 466.030,471.500 C 458.365,449.602 454.854,435.023 455.494,427.750 C 455.663,425.833 455.831,423.917 456,422 C 462.827,455.969 466.613,468.647 477.873,495.250 C 479.249,498.500 480.624,501.750 482,505 Z" fill="#EFB5B3" stroke="none" />
  <path id="64" d="M 632,129 C 628.513,131.224 625.925,132.534 624,133.346 C 622.075,134.158 616.095,136.648 610.711,138.879 C 601.352,142.758 586.316,150.332 581.685,153.500 C 580.483,154.322 576.312,156.994 572.416,159.438 C 568.520,161.882 562.445,166.188 558.916,169.006 C 555.387,171.824 552.162,174.101 551.750,174.065 C 551.500,174.043 551.250,174.022 551,174 C 560.688,165.333 568.225,159.668 574,155.819 C 587.155,147.050 607.228,137.162 621.250,132.542 C 624.833,131.361 628.417,130.181 632,129 Z" fill="#EFB5B3" stroke="none" />
  <path id="64" d="M 805,616 C 803.148,615.512 805.285,613.868 808.555,612.033 C 811.825,610.198 815.400,607.921 816.500,606.974 C 817.600,606.027 820.652,604.071 823.283,602.627 C 829.853,599.022 832.841,597.106 837.442,593.548 C 839.610,591.871 842.423,590.162 843.692,589.750 C 844.461,589.500 845.231,589.250 846,589 C 832.967,599.588 823.353,606.198 812.750,611.861 C 810.167,613.241 807.583,614.620 805,616 Z" fill="#EFB5B3" stroke="none" />
  <path id="64" d="M 852,600 C 851.988,604.286 813.465,630 807.056,630 C 806.371,630 805.685,630 805,630 C 825.778,618.196 832.031,614.285 845.250,604.829 C 847.500,603.219 849.750,601.610 852,600 Z" fill="#EFB5B3" stroke="none" />
  <path id="38" d="M 631,322 C 631,333 631,344 631,355 C 630.667,344 630.333,333 630,322 C 630.333,322 630.667,322 631,322 Z" fill="#0E0200" stroke="none" />
</svg>
