<svg width="656" height="595" viewBox="0 0 656 595" fill="none" xmlns="http://www.w3.org/2000/svg">
<path d="M102.183 513.332C139.603 476.006 178.85 438.305 189.418 429.534C196.145 423.951 213.84 410.833 228.741 400.384C237.772 394.051 246.803 387.718 255.834 381.385C255.85 369.501 255.868 357.616 255.884 345.732C255.9 333.848 255.917 321.963 255.933 310.079C252.811 307.213 249.689 304.348 246.567 301.482C241.416 296.754 236.921 292.885 236.578 292.885C236.235 292.885 235.836 312.79 235.693 337.119C235.606 351.864 235.52 366.608 235.433 381.353C228.206 386.525 220.98 391.697 213.753 396.869C201.829 405.403 187.893 415.76 182.786 419.885C177.679 424.01 172.737 427.945 171.805 428.63C170.317 429.723 169.537 428.989 165.428 422.63C157.586 410.494 142.421 378.446 136.921 362.385C124.231 325.333 116.592 284.528 112.956 234.385C111.789 218.286 111.701 168.525 112.812 152.592C113.823 138.096 113.675 138.231 134.941 132.367C195.781 115.591 251.522 90.0481 309.832 52.2251C329.118 39.7151 327.229 39.6201 349.625 54.2331C366.354 65.1481 382.569 74.8851 384.019 74.8851C384.653 74.8851 387.739 73.3261 390.878 71.4191C394.017 69.5121 400.151 66.2831 404.509 64.2441C408.867 62.2051 412.566 60.4451 412.729 60.3321C412.891 60.2191 412.104 56.6131 410.979 52.3181C409.854 48.0231 408.933 42.9061 408.933 40.9471C408.933 38.0561 408.255 36.8441 405.33 34.5101C403.348 32.9291 401.098 30.1311 400.33 28.2921C397.552 21.6421 399.123 11.5951 403.545 7.73911C405.131 6.35611 406.233 6.25511 410.433 7.11111C415.717 8.18711 414.744 8.41811 431.933 2.00311C442.495 -1.93889 454.068 0.0901117 458.989 6.74611C460.228 8.42211 462.501 10.0711 464.04 10.4091C465.579 10.7471 467.994 11.9311 469.406 13.0421C474.233 16.8391 475.27 20.3581 475.656 34.2511C475.974 45.6791 475.785 47.5551 473.973 51.0321C472.851 53.1851 471.933 55.1181 471.933 55.3281C471.933 55.5381 475.017 56.8881 478.787 58.3291C497.616 65.5241 512.18 79.1731 521.469 98.3301C525.343 106.318 532.933 129.592 532.933 133.481C532.933 134.271 534.441 135.637 536.285 136.516C538.129 137.395 540.491 139.526 541.535 141.25C543.325 144.207 543.433 146.969 543.433 189.885C543.433 226.373 543.079 238.851 541.647 252.885C533.686 330.873 514.868 388.67 482.061 435.885C450.641 481.105 402.257 519.887 346.696 544.387C337.553 548.419 330.603 550.885 328.389 550.885C323.971 550.885 311.886 545.965 292.933 536.45C258.941 519.385 232.217 500.261 207.19 475.095C199.906 467.771 193.487 460.92 192.926 459.872C192.048 458.232 192.985 457.047 199.655 451.356C203.917 447.72 211.881 441.355 217.354 437.213C220.671 434.702 223.988 432.192 227.305 429.681C229.284 431.895 231.264 434.111 233.243 436.325C240.933 444.928 258.638 460.156 271.933 469.603C283.794 478.031 304.194 489.808 318.571 496.526C321.79 498.03 325.01 499.535 328.229 501.039C333.263 498.543 338.297 496.047 343.331 493.551C397.338 466.776 433.147 433.202 459.259 384.857C484.798 337.573 497.833 272.206 496.744 196.885C496.64 189.718 496.537 182.552 496.433 175.385C495.052 174.908 493.672 174.43 492.291 173.953C490.91 173.476 489.53 172.998 488.149 172.521C486.03 174.46 483.91 176.4 481.791 178.339C470.011 189.117 449.4 201.06 433.201 206.493C428.045 208.222 424.088 210.326 421.433 212.75C419.233 214.759 416.188 217.369 414.666 218.551C413.744 219.267 412.82 219.984 411.898 220.7C411.987 229.121 412.077 237.543 412.166 245.964C412.255 254.385 412.344 262.807 412.433 271.228C414.266 271.603 416.1 271.979 417.933 272.354C424.827 273.765 427.239 275.305 429.858 279.965C431.877 283.557 431.933 284.942 431.933 330.561C431.933 368.911 431.661 378.51 430.441 383.192C426.368 398.829 416.824 409.706 397.433 420.814C378.565 431.621 331.088 454.885 327.899 454.885C325.79 454.885 314.531 449.673 294.085 439.231C258.79 421.206 251.45 417.145 244.145 411.598C242.382 410.26 240.62 408.922 238.857 407.584C236.455 409.218 234.053 410.85 231.651 412.484C221.829 419.163 202.836 433.361 194.933 439.932C191.358 442.904 168.33 465.035 143.759 489.111C114.91 517.38 98.376 532.885 97.082 532.885C94.885 532.885 90.933 528.515 90.933 526.085C90.933 525.243 95.995 519.504 102.183 513.332ZM424.183 148.893C410.279 143.091 378.159 127.334 365.433 120.072C361.033 117.561 350.933 111.467 342.988 106.529C338.173 103.536 333.358 100.543 328.543 97.5501C327.358 98.2211 326.173 98.8931 324.988 99.5641C323.033 100.671 315.133 105.417 307.433 110.109C267.79 134.267 227.167 152.933 179.545 168.873C172.841 171.117 166.137 173.361 159.433 175.605C159.454 185.902 159.473 196.198 159.494 206.495C159.622 270.932 168.36 320.711 187.329 365.076C193.659 379.88 199.905 391.11 201.476 390.507C202.193 390.232 207.533 386.717 213.342 382.696C216.863 380.259 220.384 377.822 223.905 375.385C223.91 360.118 223.914 344.852 223.919 329.585C223.935 279.503 223.803 280.697 229.887 275.577C231.919 273.867 234.694 272.809 238.34 272.353C240.149 272.127 241.959 271.901 243.768 271.675C243.912 262.627 244.057 253.578 244.201 244.53C244.69 213.864 245.088 211.545 252.479 196.215C260.662 179.243 272.512 166.981 289.001 158.425C302.833 151.247 310.811 149.398 327.933 149.403C345.834 149.408 351.184 150.689 367.298 158.826C378.695 164.581 379.274 164.759 381.998 163.351C386.058 161.252 388.928 161.513 397.157 164.729C401.159 166.293 406.548 168.145 409.133 168.845C413.833 170.117 413.834 170.117 422.133 165.344C431.073 160.203 436.933 156.08 436.933 154.93C436.933 154.536 431.196 151.819 424.183 148.893ZM327.683 283.944C282.72 283.912 245.942 284.222 245.954 284.635C245.966 285.048 250.691 289.603 256.454 294.758C259.947 297.882 263.44 301.006 266.933 304.13C266.933 318.031 266.933 331.932 266.933 345.833C266.933 359.734 266.933 373.634 266.933 387.535C264.183 389.483 261.433 391.43 258.683 393.378C254.146 396.592 250.256 399.36 250.04 399.529C249.215 400.176 252.634 403.345 257.57 406.509C260.396 408.32 276.033 416.609 292.32 424.928C302.191 429.97 312.062 435.012 321.933 440.054C321.933 427.246 321.933 414.438 321.933 401.63C321.933 388.822 321.933 376.014 321.933 363.206C321.141 362.845 320.348 362.484 319.556 362.123C315.574 360.309 309.928 354.794 307.819 350.661C297.438 330.313 318.6 308.512 338.753 318.793C340.851 319.863 343.154 321.447 343.872 322.312C344.59 323.177 345.769 323.885 346.492 323.885C347.476 323.885 386.605 299.125 407.635 285.194C409.034 284.267 391.287 283.99 327.683 283.944ZM368.239 229.885C368.022 227.96 367.168 224.294 366.342 221.738C365.042 217.715 364.4 217.007 361.562 216.475C356.514 215.528 352.74 210.936 352.175 205.051C351.75 200.626 351.331 199.916 348.067 198.094C327.678 186.709 301.504 195.189 291.452 216.437C288.072 223.581 287.001 232.576 286.964 254.146C286.954 260.066 286.943 265.987 286.933 271.907C300.516 271.82 314.1 271.733 327.683 271.646C341.266 271.559 354.85 271.472 368.433 271.385C368.466 265.052 368.5 258.718 368.533 252.385C368.588 241.935 368.456 231.81 368.239 229.885ZM414.817 190.385C413.166 185.985 411.41 181.977 410.916 181.478C410.055 180.608 392.849 174.344 388.183 173.202C384.661 172.34 385.391 175.995 389.222 178.406C394.88 181.966 393.765 183.443 377.937 193.382C364.103 202.068 360.118 205.885 364.88 205.885C366.031 205.885 371.063 203.831 376.062 201.32C381.061 198.809 385.709 196.969 386.39 197.23C387.071 197.491 388.563 199.694 389.706 202.126C391.873 206.737 397.986 212.885 400.403 212.885C403.509 212.885 407.317 210.634 412.489 205.743C415.483 202.911 417.907 200.098 417.876 199.49C417.845 198.882 416.468 194.785 414.817 190.385ZM517.394 117.995C509.27 93.9111 498.68 80.3761 481.065 71.5581C470.26 66.1491 467.839 65.8231 465.868 69.5061C462.144 76.4651 450.898 82.8851 442.433 82.8851C436 82.8851 429.198 79.9801 423.555 74.8221C421.724 73.1491 419.894 71.4761 418.063 69.8031C414.306 71.6871 410.548 73.5721 406.791 75.4561C396.289 80.7231 395.653 81.2071 397.476 82.5431C403.632 87.0531 458.22 112.265 459.36 111.125C459.675 110.81 459.933 108.797 459.933 106.653C459.933 99.3371 464.064 95.4301 468.635 98.4251C471.141 100.067 471.186 100.298 470.539 108.057C468.958 127.01 463.561 146.077 458.051 152.176C453.467 157.25 435.262 170.898 427.707 174.925C423.875 176.968 421.975 178.553 422.311 179.429C422.596 180.172 424.051 184.22 425.544 188.425C428.227 195.982 428.292 196.063 431.273 195.467C436.307 194.46 454.466 185.066 462.689 179.215C466.948 176.184 472.777 171.416 475.641 168.62C484.023 160.437 490.765 144.684 495 123.385C496.203 117.335 497.636 111.823 498.183 111.135C499.868 109.019 504.723 109.635 506.388 112.176C507.622 114.059 507.707 115.6 506.865 120.829C506.301 124.328 506.198 127.506 506.636 127.89C507.384 128.546 518.763 131.885 520.249 131.885C521.597 131.885 520.845 128.225 517.394 117.995ZM464.362 39.4561C463.498 38.5921 462.404 37.8851 461.933 37.8851C460.804 37.8851 457.933 40.7821 457.933 41.9211C457.933 42.4121 457.003 43.3131 455.866 43.9211C452.886 45.5161 449.351 42.9241 448.529 38.5421C447.459 32.8401 446.236 32.5491 437.207 35.8441C432.781 37.4591 427.084 38.8891 424.547 39.0201C419.177 39.2981 419.055 39.7071 421.51 49.1811C424.27 59.8311 429.043 67.2921 435.133 70.4741C438.598 72.2841 446.259 72.2881 449.733 70.4801C455.177 67.6481 459.933 60.1741 459.933 54.4521C459.933 53.0781 461.283 50.4171 462.933 48.5381C466.267 44.7411 466.727 41.8211 464.362 39.4561ZM254.933 267.885C254.933 271.757 255.6 271.885 265.37 271.885C268.849 271.885 272.327 271.885 275.806 271.885C275.914 263.635 276.023 255.385 276.131 247.135C276.429 224.41 276.639 221.897 278.693 216.424C287.474 193.027 311.52 178.146 334.736 181.743C342.542 182.952 350.112 185.766 356.183 189.713C357.433 190.526 358.684 191.338 359.934 192.151C362.515 190.512 365.095 188.873 367.676 187.234C371.934 184.529 375.567 181.548 375.748 180.609C376.539 176.5 359.549 166.24 346.378 162.871C335.86 160.181 320.035 160.173 309.556 162.853C285.836 168.919 265.506 188.437 258.48 211.885C257.574 214.91 256.405 221.323 255.883 226.135C255.566 229.052 255.25 231.968 254.933 234.885C254.6 234.885 254.266 234.885 253.933 234.885C254.266 245.885 254.6 256.885 254.933 267.885ZM400.242 226.25C399.956 224.793 398.34 223.548 395.147 222.329C392.389 221.276 388.487 218.507 385.638 215.582C381.178 211.003 380.612 210.711 378.272 211.777C376.423 212.62 375.929 213.398 376.447 214.658C379.322 221.65 379.91 227.478 379.921 249.135C379.925 256.718 379.929 264.302 379.933 271.885C383.433 271.885 386.933 271.885 390.433 271.885C393.933 271.885 397.433 271.885 400.933 271.885C400.888 264.635 400.842 257.385 400.797 250.135C400.722 238.173 400.472 227.424 400.242 226.25ZM499.933 146.885C499.266 149.552 498.6 152.218 497.933 154.885C496.564 154.885 495.951 156.01 495.688 157.385C495.425 158.76 494.923 159.885 494.572 159.885C494.359 159.885 494.146 159.885 493.933 159.885C493.933 162.514 496.007 165.103 498.543 167.334C502.571 170.878 503.264 172.085 504.026 176.888C504.506 179.911 504.663 194.535 504.376 209.385C503.861 236.052 503.883 236.44 506.144 240.881C508.727 245.954 514.52 249.842 519.535 249.869C523.794 249.892 528.964 246.157 531.809 241.004C534.35 236.401 535.633 228.654 536.464 212.885C537.32 196.65 537.285 193.868 535.999 176.385C534.887 161.272 534.431 158.703 531.891 153.239C528.625 146.214 525.516 143.607 517.219 140.94C507.185 137.714 505.02 137.482 504.258 139.555C503.888 140.561 502.763 142.623 501.759 144.135C501.15 145.052 500.542 145.968 499.933 146.885ZM204.177 129.894C198.991 124.708 191.436 122.943 184.933 125.4C182.458 126.335 174.583 128.839 167.433 130.963C160.283 133.087 153.533 135.276 152.433 135.826C151.333 136.376 147.508 137.799 143.933 138.987C132.1 142.92 126.17 147.352 122.747 154.821C119.969 160.883 118.533 183.762 119.416 207.885C119.789 218.06 120.079 227.257 120.061 228.324C120.043 229.391 120.94 233.086 122.055 236.536C124.705 244.74 128.64 248.335 135.911 249.196C140.877 249.784 141.422 249.618 145.515 246.264C147.901 244.308 150.21 241.736 150.644 240.547C151.078 239.358 151.476 224.885 151.528 208.385C151.58 191.885 151.97 176.919 152.393 175.127C153.188 171.76 157.997 166.885 160.523 166.885C161.313 166.885 162.742 166.481 163.697 165.988C164.652 165.494 168.808 164.091 172.933 162.869C177.058 161.647 181.333 160.294 182.433 159.863C200.567 152.76 202.958 151.326 205.683 145.923C209.154 139.04 208.722 134.439 204.177 129.894ZM395.53 490.583C394.848 489.042 392.78 486.862 390.934 485.74C384.985 482.122 373.197 485.034 361.253 493.072C358.954 494.619 356.804 495.885 356.475 495.885C356.146 495.885 351.185 498.132 345.45 500.877C339.715 503.622 333.057 506.394 330.655 507.037C326.38 508.18 325.995 508.07 312.471 501.83C304.872 498.324 297.662 494.673 296.447 493.717C292.802 490.85 276.066 483.885 272.822 483.885C267.014 483.885 260.493 489.092 258.902 495C258.113 497.93 258.277 499.716 259.682 503.5C261.185 507.547 262.623 509.115 268.947 513.599C273.064 516.518 279.133 520.278 282.433 521.955C285.733 523.632 292.033 526.829 296.433 529.06C310.521 536.202 317.983 538.773 326.17 539.303C335.218 539.888 336.585 539.453 357.744 529.27C378.267 519.393 386.509 514.453 392.183 508.628C396.652 504.04 396.928 503.445 396.852 498.568C396.807 495.717 396.212 492.124 395.53 490.583ZM377.344 87.4291C376.547 85.2531 374.891 82.3921 373.664 81.0711C371.497 78.7371 359.658 69.8851 358.704 69.8851C358.443 69.8851 355.125 67.8421 351.331 65.3461C340.006 57.8951 334.378 55.6281 326.885 55.4991C321.077 55.3991 319.778 55.7431 316.004 58.3851C311.487 61.5471 296.986 70.6861 288.257 75.8721C277.131 82.4821 274.456 98.4111 283.479 104.323C287.385 106.882 295.283 106.752 300.966 104.035C303.423 102.86 308.583 100.101 312.433 97.9041C327.942 89.0531 327.494 89.2061 331.71 91.3801C333.757 92.4361 337.683 94.7501 340.433 96.5231C348.777 101.902 358.659 105.885 363.658 105.885C369.221 105.885 373.995 103.14 376.853 98.2961C379.259 94.2171 379.323 92.8321 377.344 87.4291ZM509.212 352.59C508.933 350.734 507.387 348.771 504.612 346.749C500.889 344.035 499.838 343.751 494.983 344.143C490.182 344.53 489.149 345.028 486.303 348.32C484.526 350.375 482.139 353.931 480.997 356.221C479.856 358.511 478.515 361.06 478.019 361.885C477.523 362.71 475.678 367.196 473.919 371.853C472.16 376.51 468.913 383.485 466.702 387.353C464.491 391.221 461.559 396.41 460.185 398.885C456.597 405.351 451.072 413.756 447.369 418.385C445.609 420.585 442.937 424.839 441.432 427.837C439.148 432.387 438.783 434.151 439.232 438.498C439.886 444.836 442.055 448.383 446.148 449.81C453.245 452.284 459.047 450.673 464.475 444.72C472.495 435.925 487.089 414.5 491.609 404.885C493.031 401.86 495.036 398.191 496.064 396.731C497.092 395.271 497.933 393.522 497.933 392.844C497.933 392.166 499.715 387.948 501.892 383.47C508.743 369.38 510.576 361.647 509.212 352.59Z" fill="black"/>
<path d="M327.683 283.944C391.287 283.99 409.034 284.267 407.635 285.194C386.605 299.125 347.476 323.885 346.492 323.885C345.769 323.885 344.59 323.177 343.872 322.312C343.154 321.447 340.851 319.863 338.753 318.793C318.6 308.512 297.438 330.313 307.819 350.661C309.928 354.794 315.574 360.309 319.556 362.123C320.348 362.484 321.141 362.845 321.933 363.206C321.933 376.014 321.933 388.822 321.933 401.63C321.933 414.438 321.933 427.246 321.933 440.054C312.062 435.012 302.191 429.97 292.32 424.928C276.033 416.609 260.396 408.32 257.57 406.509C252.634 403.345 249.215 400.176 250.04 399.529C250.256 399.36 254.146 396.592 258.683 393.378C261.433 391.43 264.183 389.483 266.933 387.535C266.933 373.634 266.933 359.734 266.933 345.833C266.933 331.932 266.933 318.031 266.933 304.13C263.44 301.006 259.947 297.882 256.454 294.758C250.691 289.603 245.966 285.048 245.954 284.635C245.942 284.222 282.72 283.912 327.683 283.944Z" fill="#FFF3E7"/>
<path d="M517.394 117.995C520.845 128.225 521.597 131.885 520.249 131.885C518.763 131.885 507.384 128.546 506.636 127.89C506.198 127.506 506.301 124.328 506.865 120.829C507.707 115.6 507.622 114.059 506.388 112.176C504.723 109.635 499.868 109.019 498.183 111.135C497.636 111.823 496.203 117.335 495 123.385C490.765 144.684 484.023 160.437 475.641 168.62C472.777 171.416 466.948 176.184 462.689 179.215C454.466 185.066 436.307 194.46 431.273 195.467C428.292 196.063 428.227 195.982 425.544 188.425C424.051 184.22 422.596 180.172 422.311 179.429C421.975 178.553 423.875 176.968 427.707 174.925C435.262 170.898 453.467 157.25 458.051 152.176C463.561 146.077 468.958 127.01 470.539 108.057C471.186 100.298 471.141 100.067 468.635 98.4251C464.064 95.4301 459.933 99.3371 459.933 106.653C459.933 108.797 459.675 110.81 459.36 111.125C458.22 112.265 403.632 87.0531 397.476 82.5431C395.653 81.2071 396.289 80.7231 406.791 75.4561C410.548 73.5721 414.306 71.6871 418.063 69.8031C419.894 71.4761 421.724 73.1491 423.555 74.8221C429.198 79.9801 436 82.8851 442.433 82.8851C450.898 82.8851 462.144 76.4651 465.868 69.5061C467.839 65.8231 470.26 66.1491 481.065 71.5581C498.68 80.3761 509.27 93.9111 517.394 117.995Z" fill="white"/>
<path d="M204.177 129.894C208.722 134.439 209.154 139.04 205.683 145.923C202.958 151.326 200.567 152.76 182.433 159.863C181.333 160.294 177.058 161.647 172.933 162.869C168.808 164.091 164.652 165.494 163.697 165.988C162.742 166.481 161.313 166.885 160.523 166.885C157.997 166.885 153.188 171.76 152.393 175.127C151.97 176.919 151.58 191.885 151.528 208.385C151.476 224.885 151.078 239.358 150.644 240.547C150.21 241.736 147.901 244.308 145.515 246.264C141.422 249.618 140.877 249.784 135.911 249.196C128.64 248.335 124.705 244.74 122.055 236.536C120.94 233.086 120.043 229.391 120.061 228.324C120.079 227.257 119.789 218.06 119.416 207.885C118.533 183.762 119.969 160.883 122.747 154.821C126.17 147.352 132.1 142.92 143.933 138.987C147.508 137.799 151.333 136.376 152.433 135.826C153.533 135.276 160.283 133.087 167.433 130.963C174.583 128.839 182.458 126.335 184.933 125.4C191.436 122.943 198.991 124.708 204.177 129.894ZM200.933 137.885C200.6 136.885 200.266 135.885 199.933 134.885C199.646 134.302 199.36 133.718 199.073 133.135C197.491 129.917 189.026 131.03 170.933 136.833C161.858 139.744 150.945 143.242 146.681 144.606C133.907 148.694 128.869 153.401 127.413 162.608C126.998 165.235 126.27 174.923 124.933 200.885C125.232 205.302 125.53 209.718 125.829 214.135C127.165 233.885 128.612 239.572 132.878 241.855C136.041 243.548 140.468 243.055 142.528 240.782C144.294 238.833 144.472 236.301 144.975 206.032C145.577 169.771 145.889 167.929 152.068 164.112C153.919 162.969 158.583 161.042 162.433 159.831C177.321 155.148 187.613 151.481 191.933 149.321C198.849 145.863 202.276 141.509 200.933 137.885Z" fill="#0E0200"/>
<path d="M34.581 236.885C34.788 235.51 35.882 229.21 37.014 222.885C41.611 197.197 44.914 185.676 56.079 156.385C60.213 145.539 73.225 120.199 77.032 115.581C80.326 111.585 85.509 108.874 89.805 108.901C94.469 108.93 100.1 112.96 101.661 117.385C103.808 123.472 102.762 128.315 96.472 141.403C87.293 160.501 86.497 161.929 85.277 161.462C83.668 160.847 79.755 170.327 80.459 173.134C80.782 174.422 79.725 179.4 78.022 184.612C71.775 203.728 67.416 222.246 64.423 242.385C62.604 254.623 60.186 259.668 54.808 262.449C46.922 266.527 37.145 262.912 34.98 255.116C33.989 251.549 33.785 242.187 34.581 236.885ZM42.619 247.885C41.977 254.506 43.954 257.885 48.469 257.885C52.444 257.885 53.575 254.97 55.838 238.885C60.957 202.5 71.439 169.807 88.481 137.07C92.58 129.197 95.933 122.031 95.933 121.148C95.933 118.53 92.831 115.885 89.763 115.885C86.359 115.885 85.721 116.813 76.003 135.885C64.411 158.636 56.317 180.211 50.457 203.983C47.496 215.995 43.59 237.871 42.619 247.885Z" fill="#FFF3E7"/>
<path d="M395.53 490.583C396.212 492.124 396.807 495.717 396.852 498.568C396.928 503.445 396.652 504.04 392.183 508.628C386.509 514.453 378.267 519.393 357.744 529.27C336.585 539.453 335.218 539.888 326.17 539.303C317.983 538.773 310.521 536.202 296.433 529.06C292.033 526.829 285.733 523.632 282.433 521.955C279.133 520.278 273.064 516.518 268.947 513.599C262.623 509.115 261.185 507.547 259.682 503.5C258.277 499.716 258.113 497.93 258.902 495C260.493 489.092 267.014 483.885 272.822 483.885C276.066 483.885 292.802 490.85 296.447 493.717C297.662 494.673 304.872 498.324 312.471 501.83C325.995 508.07 326.38 508.18 330.655 507.037C333.057 506.394 339.715 503.622 345.45 500.877C351.185 498.132 356.146 495.885 356.475 495.885C356.804 495.885 358.954 494.619 361.253 493.072C373.197 485.034 384.985 482.122 390.934 485.74C392.78 486.862 394.848 489.042 395.53 490.583ZM388.933 499.885C388.933 497.885 388.933 495.885 388.933 493.885C388.457 493.338 387.982 492.791 387.506 492.244C385.013 489.377 378.869 491.165 365.169 498.746C333.991 516 329.138 517.242 315.617 511.435C310.908 509.413 302.19 505.029 296.244 501.693C273.647 489.016 268.759 488.11 264.933 495.885C265.115 496.835 265.297 497.784 265.479 498.734C265.779 500.301 267.467 502.96 269.229 504.645C277.221 512.286 311.874 530.263 323.813 532.962C329.806 534.317 335.791 532.459 354.433 523.462C379.178 511.519 388.933 504.852 388.933 499.885Z" fill="#0E0200"/>
<path d="M549.458 455.885C551.325 452.31 553.171 448.71 553.561 447.885C553.951 447.06 555.485 444.585 556.97 442.385C560.467 437.204 566.163 425.845 569.872 416.656C571.486 412.657 574.418 405.56 576.386 400.885C580.825 390.342 583.76 380.661 588.362 361.385C590.332 353.135 592.442 344.585 593.051 342.385C595.424 333.818 601.117 329.307 608.507 330.14C622.086 331.671 624.051 342.747 616.494 375.154C614.15 385.205 612.273 390.559 611.399 389.685C611.195 389.481 611.929 385.796 613.03 381.497C614.131 377.198 614.86 373.166 614.65 372.537C614.44 371.908 613.451 374.766 612.452 378.889C609.24 392.144 600.848 416.004 594.483 429.982C587.138 446.111 574.878 467.5 569.837 472.977C567.859 475.126 566.791 476.885 567.464 476.885C568.137 476.885 569.306 476.141 570.061 475.231C571.078 474.005 571.433 473.93 571.433 474.941C571.433 476.821 565.428 480.702 561.328 481.471C556.481 482.38 553.091 481.243 549.274 477.426C546.224 474.376 545.938 473.575 545.998 468.235C546.05 463.607 546.772 461.027 549.458 455.885ZM558.998 456.385C555.159 462.435 551.999 467.967 551.976 468.68C551.919 470.406 556.467 474.885 558.277 474.885C560.867 474.885 563.771 471.534 570.41 460.885C583.5 439.889 596.603 410.51 603.562 386.548C607.654 372.458 612.923 347.943 612.929 342.964C612.936 336.817 607.284 333.63 603.597 337.704C602.687 338.71 601.263 343.516 600.412 348.454C593.888 386.325 579.256 424.458 558.998 456.385Z" fill="#FFF3E7"/>
<path d="M254.933 234.885C255.25 231.968 255.566 229.052 255.883 226.135C256.405 221.323 257.574 214.91 258.48 211.885C265.506 188.437 285.836 168.919 309.556 162.853C320.035 160.173 335.86 160.181 346.378 162.871C359.549 166.24 376.539 176.5 375.748 180.609C375.567 181.548 371.934 184.529 367.676 187.234C365.095 188.873 362.515 190.512 359.934 192.151C358.684 191.338 357.433 190.526 356.183 189.713C350.112 185.766 342.542 182.952 334.736 181.743C311.52 178.146 287.474 193.027 278.693 216.424C276.639 221.897 276.429 224.41 276.131 247.135C276.023 255.385 275.914 263.635 275.806 271.885C272.327 271.885 268.849 271.885 265.37 271.885C255.6 271.885 254.933 271.757 254.933 267.885C254.933 256.885 254.933 245.885 254.933 234.885ZM330.266 167.552C328.95 166.236 319.108 166.922 311.542 168.857C284.525 175.767 265.16 198.417 261.444 227.455C260.74 232.958 262.135 235.375 265.635 234.708C267.042 234.44 267.713 232.666 268.721 226.547C270.336 216.742 273.815 207.408 278.466 200.401C287.28 187.123 303.326 176.841 318.433 174.792C330.948 173.095 330.933 173.101 330.933 170.533C330.933 169.26 330.633 167.919 330.266 167.552Z" fill="#FD514E"/>
<path d="M72.22 323.996C72.962 321.672 74.72 319.708 77.813 317.746C83.687 314.021 88.657 313.941 92.892 317.504C96.705 320.712 98.294 323.743 99.907 330.885C106.432 359.768 110.583 374.559 115.609 386.835C119.556 396.476 132.441 422.594 134.38 424.885C136.478 427.364 137.933 432.872 137.933 438.338C137.933 442.85 137.528 443.88 134.683 446.598C130.784 450.323 124.851 452.184 121.246 450.814C119.657 450.21 118.932 449.328 119.28 448.422C119.613 447.555 119.04 446.736 117.833 446.353C114.466 445.284 107.211 434.168 98.926 417.385C87.028 393.282 79.015 369.395 74.94 345.885C73.939 340.11 73.077 336.622 73.026 338.135C72.975 339.648 72.483 340.885 71.933 340.885C70.611 340.885 70.823 328.369 72.22 323.996ZM79.933 334.885C79.764 336.802 79.596 338.718 79.427 340.635C78.787 347.908 82.298 362.487 89.963 384.385C96.224 402.273 100.746 411.758 105.933 417.885C106.993 419.635 108.054 421.385 109.114 423.135C110.864 426.023 114.054 431.31 116.204 434.885C121.894 444.346 124.848 445.97 128.933 441.885C131.733 439.085 131.441 436.585 127.614 430.587C110.589 403.905 97.386 368.145 91.911 333.885C90.613 325.761 88.897 322.885 85.349 322.885C81.203 322.885 79.933 325.701 79.933 334.885Z" fill="#FFF3E7"/>
<path d="M154.823 80.0281C155.496 78.9661 155.85 78.9411 156.451 79.9131C157.015 80.8261 157.512 80.6451 158.326 79.2281C164.116 69.1531 187.408 51.9461 212.622 39.1171C217.738 36.5141 221.925 33.8311 221.928 33.1551C221.935 31.2871 228.086 28.5531 242.508 24.0071C263.571 17.3671 272.544 18.5561 276.251 28.4801C280.154 38.9281 275.359 45.4721 259.933 50.7511C239.886 57.6111 218.758 67.2981 207.524 74.7791C205.371 76.2121 202.221 78.2141 200.522 79.2271C198.823 80.2401 196.308 82.0821 194.933 83.3191C193.558 84.5561 188.913 88.1791 184.611 91.3691C176.791 97.1681 171.451 99.7581 167.143 99.8411C164.017 99.9011 157.409 96.4021 155.499 93.6761C153.811 91.2661 153.368 82.3251 154.823 80.0281ZM255.933 41.8851C257.574 41.4111 259.215 40.9361 260.856 40.4621C268.745 38.1811 269.933 37.2531 269.933 33.3731C269.933 30.8231 269.297 29.5141 267.479 28.3231C265.182 26.8181 264.43 26.8861 255.729 29.3841C232.941 35.9251 209.785 46.6931 189.933 59.9811C177.946 68.0051 162.974 80.3451 160.933 83.8851C161.105 84.7141 161.277 85.5431 161.449 86.3721C161.733 87.7401 163.104 89.6071 164.497 90.5191C166.922 92.1081 167.196 92.0651 174.933 86.8851C175.183 86.9071 175.433 86.9281 175.683 86.9501C176.095 86.9861 179.32 84.7091 182.849 81.8911C186.378 79.0731 192.453 74.7671 196.349 72.3231C200.245 69.8791 204.416 67.2071 205.618 66.3851C210.249 63.2171 225.285 55.6431 234.644 51.7641C240.028 49.5331 246.008 47.0431 247.933 46.2311C249.858 45.4191 252.446 44.1091 255.933 41.8851Z" fill="#FFF3E7"/>
<path d="M522.482 422.885C525.002 418.21 528.383 412.031 529.996 409.154C536.526 397.507 546.968 369.909 550.531 354.885C554.766 337.026 556.672 333.278 563.162 330.047C568.681 327.299 572.386 327.713 576.993 331.589C583.693 337.227 584.499 344.253 580.363 360.986C574.146 386.139 563.87 412.214 552.163 432.547C543.899 446.9 540.384 450.084 532.168 450.663C526.807 451.041 526.176 450.843 522.491 447.64C518.768 444.404 518.531 443.856 518.225 437.799C517.922 431.798 518.196 430.838 522.482 422.885ZM532.122 424.885C525.617 436.031 524.763 439.516 527.851 442.31C532.676 446.677 536.65 442.318 548.293 419.885C559.296 398.686 567.924 374.6 572.412 352.553C574.994 339.868 574.745 336.925 570.914 334.875C568.263 333.456 564.208 335.787 563.48 339.148C555.72 374.953 546.411 400.402 532.122 424.885Z" fill="#FFF3E7"/>
<path d="M509.212 352.59C510.576 361.647 508.743 369.38 501.892 383.47C499.715 387.948 497.933 392.166 497.933 392.844C497.933 393.522 497.092 395.271 496.064 396.731C495.036 398.191 493.031 401.86 491.609 404.885C487.089 414.5 472.495 435.925 464.475 444.72C459.047 450.673 453.245 452.284 446.148 449.81C442.055 448.383 439.886 444.836 439.232 438.498C438.783 434.151 439.148 432.387 441.432 427.837C442.937 424.839 445.609 420.585 447.369 418.385C451.072 413.756 456.597 405.351 460.185 398.885C461.559 396.41 464.491 391.221 466.702 387.353C468.913 383.485 472.16 376.51 473.919 371.853C475.678 367.196 477.523 362.71 478.019 361.885C478.515 361.06 479.856 358.511 480.997 356.221C482.139 353.931 484.526 350.375 486.303 348.32C489.149 345.028 490.182 344.53 494.983 344.143C499.838 343.751 500.889 344.035 504.612 346.749C507.387 348.771 508.933 350.734 509.212 352.59ZM500.933 353.885C500.933 352.365 499.808 351.689 498.433 351.404C497.6 351.231 496.766 351.058 495.933 350.885C495.642 350.705 495.35 350.524 495.059 350.344C493.198 349.191 488.161 355.057 485.414 361.577C475.742 384.53 466.047 402.649 454.452 419.443C451.012 424.425 447.463 429.713 444.933 433.885C444.933 435.052 444.933 436.218 444.933 437.385C444.933 439.65 445.704 441.656 447.118 443.07C449.039 444.991 449.797 445.14 453.403 444.303C456.768 443.522 458.541 442.097 463.277 436.368C470.566 427.55 474.308 421.921 483.046 406.625C499.108 378.509 506.409 356.982 500.933 353.885Z" fill="#0E0200"/>
<path d="M377.344 87.4292C379.323 92.8322 379.259 94.2171 376.853 98.2961C373.995 103.14 369.221 105.885 363.658 105.885C358.659 105.885 348.777 101.902 340.433 96.5231C337.683 94.7501 333.757 92.4361 331.71 91.3801C327.494 89.2061 327.942 89.0531 312.433 97.9041C308.583 100.101 303.423 102.86 300.966 104.035C295.283 106.752 287.385 106.882 283.479 104.323C274.456 98.4111 277.131 82.4821 288.257 75.8721C296.986 70.6861 311.487 61.5471 316.004 58.3851C319.778 55.7431 321.077 55.3991 326.885 55.4991C334.378 55.6281 340.006 57.8951 351.331 65.3461C355.125 67.8421 358.443 69.8851 358.704 69.8851C359.658 69.8851 371.497 78.7371 373.664 81.0711C374.891 82.3921 376.547 85.2532 377.344 87.4292ZM285.933 95.8851C286.933 96.5521 287.933 97.2181 288.933 97.8851C288.935 98.1351 288.937 98.3851 288.939 98.6351C288.942 99.0481 290.747 99.3171 292.951 99.2341C295.954 99.1211 300.38 97.1241 310.625 91.2571C327.703 81.4771 328.233 81.4381 341.009 89.0311C359.956 100.291 364.679 101.728 369.405 97.6631C371.856 95.5551 372.134 94.7731 371.549 91.6531C370.697 87.1121 366.804 83.5571 351.755 73.5771C333.504 61.4741 328.726 59.9791 320.398 63.7621C311.172 67.9531 289.81 83.2561 283.933 89.8851C283.933 90.6991 283.933 91.5121 283.933 92.3261C283.933 93.6691 284.383 95.0191 285.933 95.8851Z" fill="#0E0200"/>
<path d="M411.101 529.563C412.844 527.821 414.434 526.888 414.635 527.49C414.836 528.092 414.309 529.157 413.466 529.857C412.623 530.557 411.933 531.571 411.933 532.111C411.933 532.651 413.465 531.809 415.338 530.239C417.211 528.67 422.273 525.413 426.588 523.004C438.124 516.562 447.549 510.403 460.051 501.135C466.172 496.598 471.749 492.885 472.445 492.885C473.141 492.885 473.648 492.098 473.572 491.135C473.467 489.811 474.323 489.31 477.085 489.08C481.798 488.687 487.321 491.02 489.48 494.316C491.98 498.132 492.474 504.923 490.43 507.385C489.05 509.047 488.863 509.089 489.32 507.635C490.24 504.708 488.448 505.684 487.295 508.738C484.267 516.76 443.132 545.319 427.933 549.951C425.548 550.678 425.537 550.717 427.683 550.799C432.009 550.964 429.887 552.635 424.683 553.162C417.943 553.844 411.733 551.332 409.504 547.022C408.622 545.317 407.933 541.517 407.933 538.358C407.933 533.373 408.294 532.37 411.101 529.563ZM428.933 528.885C427.183 529.764 425.433 530.642 423.683 531.521C420.795 532.971 417.646 534.771 414.933 536.885C414.933 537.695 414.933 538.504 414.933 539.314C414.933 544.94 420.247 546.295 428.933 542.885C429.618 542.885 430.304 542.885 430.989 542.885C437.398 542.885 475.921 517.171 475.933 512.885C477.272 511.671 478.611 510.456 479.95 509.242C484.472 505.14 485.705 501.876 484.081 498.311C482.178 494.134 477.746 495.254 469.933 501.885C469.164 502.135 468.394 502.385 467.625 502.635C466.356 503.047 463.543 504.756 461.375 506.433C456.774 509.991 453.786 511.907 447.216 515.512C444.585 516.956 441.533 518.912 440.433 519.859C439.333 520.806 435.758 523.083 432.488 524.918C429.218 526.753 427.081 528.397 428.933 528.885Z" fill="#FFF3E7"/>
<path d="M558.998 456.385C579.256 424.458 593.888 386.325 600.412 348.454C601.263 343.516 602.687 338.71 603.597 337.704C607.284 333.63 612.936 336.817 612.929 342.964C612.923 347.943 607.654 372.458 603.562 386.548C596.603 410.51 583.5 439.889 570.41 460.885C563.771 471.534 560.867 474.885 558.277 474.885C556.467 474.885 551.919 470.406 551.976 468.68C551.999 467.967 555.159 462.435 558.998 456.385Z" fill="black"/>
<path d="M45.762 337.54C48.161 335.369 51.22 335.44 53.279 337.715C54.252 338.79 55.78 344.253 56.984 350.965C63.848 389.218 77.688 424.531 98.235 456.219C104.406 465.737 105.147 467.375 104.329 469.701C103.329 472.546 99.203 474.586 96.528 473.56C93.799 472.513 81.335 452.393 72.569 434.885C60.019 409.821 51.045 383.636 45.944 357.203C43.418 344.116 43.378 339.698 45.762 337.54Z" fill="black"/>
<path d="M42.619 247.885C43.59 237.871 47.496 215.995 50.457 203.983C56.317 180.211 64.411 158.636 76.003 135.885C85.721 116.813 86.359 115.885 89.763 115.885C92.831 115.885 95.933 118.53 95.933 121.148C95.933 122.031 92.58 129.197 88.481 137.07C71.439 169.807 60.957 202.5 55.838 238.885C53.575 254.97 52.444 257.885 48.469 257.885C43.954 257.885 41.977 254.506 42.619 247.885Z" fill="black"/>
<path d="M164.902 496.303C167.294 490.39 176.637 486.642 183.412 488.878C186.722 489.97 188.26 491.885 185.828 491.885C183.998 491.885 197.544 502.221 212.433 512.186C220.133 517.339 227.028 522.278 227.756 523.161C228.484 524.044 229.637 524.552 230.319 524.29C231.935 523.67 234.491 526.657 235.315 530.126C235.673 531.633 235.447 534.929 234.812 537.45C233.359 543.219 227.924 547.174 222.114 546.691C220.09 546.523 218.433 545.935 218.434 545.385C218.435 544.835 216.095 543.432 213.235 542.267C200.162 536.944 176.347 519.53 169.769 510.485C167.657 507.581 166.925 507.07 166.901 508.485C166.87 510.334 166.83 510.333 165.401 508.444C163.815 506.347 163.541 499.668 164.902 496.303ZM172.762 496.54C170.537 498.554 170.415 501.7 172.45 504.605C177.983 512.504 216.66 538.885 222.708 538.885C225.664 538.885 227.933 536.238 227.933 532.789C227.933 530.327 227.155 529.382 223.251 527.11C212.599 520.909 194.896 508.61 187.074 501.975C178.455 494.664 175.905 493.695 172.762 496.54Z" fill="#FFF3E7"/>
<path d="M550.813 221.885C552.374 214.432 557.762 209.885 565.033 209.885C569.46 209.885 574.525 213.317 577.337 218.222C581.506 225.493 585.885 247.452 585.916 261.241C585.932 268.576 585.722 269.364 582.747 273.12C578.603 278.353 574.77 279.952 568.929 278.886C565.544 278.268 563.638 277.147 561.219 274.351C557.592 270.159 556.663 267.568 554.95 256.885C554.288 252.76 553.148 246.46 552.415 242.885C550.548 233.779 549.954 225.989 550.813 221.885ZM559.228 219.885C558.54 221.26 558.18 223.06 558.427 223.885C559.991 229.099 562.116 240.333 563.913 252.885C565.618 264.794 566.36 267.698 568.071 269.135C570.659 271.309 571.857 271.326 574.846 269.233C577.093 267.659 577.175 267.2 576.582 259.482C575.925 250.936 572.615 231.135 570.714 224.385C569.123 218.733 567.143 216.728 563.507 217.086C561.455 217.288 560.076 218.191 559.228 219.885Z" fill="#FFF3E7"/>
<path d="M151.133 528.085C153.771 525.447 157.657 526.823 165.583 533.204C193.136 555.384 223.504 571.528 255.433 580.97C260.933 582.596 265.995 584.678 266.683 585.597C269.484 589.34 266.827 594.885 262.232 594.885C258.893 594.885 235.622 587.122 223.07 581.821C202.298 573.048 179.011 559.035 159.89 543.802C150.903 536.642 149.933 535.549 149.933 532.577C149.933 530.766 150.473 528.745 151.133 528.085Z" fill="black"/>
<path d="M501.933 146.885C501.266 146.885 500.6 146.885 499.933 146.885C500.542 145.968 501.15 145.052 501.759 144.135C502.763 142.623 503.888 140.561 504.258 139.555C505.02 137.482 507.185 137.714 517.219 140.94C525.516 143.607 528.625 146.214 531.891 153.239C534.431 158.703 534.887 161.272 535.999 176.385C537.285 193.868 537.32 196.65 536.464 212.885C535.633 228.654 534.35 236.401 531.809 241.004C528.964 246.157 523.794 249.892 519.535 249.869C514.52 249.842 508.727 245.954 506.144 240.881C503.883 236.44 503.861 236.052 504.376 209.385C504.663 194.535 504.506 179.911 504.026 176.888C503.264 172.085 502.571 170.878 498.543 167.334C496.007 165.103 493.933 162.514 493.933 159.885C494.146 159.885 494.359 159.885 494.572 159.885C494.923 159.885 495.425 158.76 495.688 157.385C495.951 156.01 496.564 154.885 497.933 154.885C498.266 155.552 498.6 156.218 498.933 156.885C498.85 157.274 498.766 157.664 498.683 158.053C498.545 158.696 499.474 159.764 500.747 160.427C505.137 162.715 508.725 167.071 510.05 171.721C511.035 175.176 511.33 183.515 511.187 203.885C510.973 234.259 511.656 239.584 515.933 240.885C519.42 241.757 520.995 241.531 521.683 240.947C522.1 240.593 522.516 240.239 522.933 239.885C523.625 239.104 524.317 238.324 525.01 237.543C527.979 234.195 528.862 225.308 528.9 198.359C528.935 173.445 527.803 160.383 525.132 154.894C523.125 150.771 517.652 147.437 510.083 145.729C505.966 144.8 504.41 144.794 501.933 146.885Z" fill="#0E0200"/>
<path d="M79.933 334.885C79.933 325.701 81.203 322.885 85.349 322.885C88.897 322.885 90.613 325.761 91.911 333.885C97.386 368.145 110.589 403.905 127.614 430.587C131.441 436.585 131.733 439.085 128.933 441.885C124.848 445.97 121.894 444.346 116.204 434.885C114.054 431.31 110.864 426.023 109.114 423.135C108.054 421.385 106.993 419.635 105.933 417.885C104.557 414.635 103.182 411.385 101.806 408.135C90.546 381.532 86.76 368.854 79.933 334.885Z" fill="black"/>
<path d="M390.183 585.63C390.871 584.73 398.511 581.679 407.162 578.851C434.986 569.754 465.533 553.1 489.366 534.032C498.902 526.403 502.208 525.322 505.358 528.803C508.321 532.077 506.9 534.914 498.933 541.637C482.43 555.563 453.424 573.223 432.123 582.314C421.271 586.946 397.462 594.885 394.425 594.885C391.936 594.885 388.933 591.588 388.933 588.854C388.933 587.982 389.495 586.53 390.183 585.63Z" fill="black"/>
<path d="M199.933 134.885C195.874 132.997 193.463 133.508 185.432 136.432C175.437 140.072 163.48 143.975 144.175 149.898C137.442 151.964 133.574 153.687 132.917 154.914C130.107 160.165 130.163 233.71 132.981 238.975C134.069 241.009 138.803 241.614 140.483 239.935C141.05 239.368 141.433 223.357 141.433 200.185C141.433 187.252 141.433 174.318 141.433 161.385C145.266 160.241 149.1 159.096 152.933 157.952C159.258 156.064 171.858 151.904 180.933 148.709C193.566 144.261 197.843 142.311 199.183 140.392C199.766 139.556 200.35 138.721 200.933 137.885C202.276 141.509 198.849 145.863 191.933 149.321C187.613 151.481 177.321 155.148 162.433 159.831C158.583 161.042 153.919 162.969 152.068 164.112C145.889 167.929 145.577 169.771 144.975 206.032C144.472 236.301 144.294 238.833 142.528 240.782C140.468 243.055 136.041 243.548 132.878 241.855C128.612 239.572 127.165 233.885 125.829 214.135C125.53 209.718 125.232 205.302 124.933 200.885C126.27 174.923 126.998 165.235 127.413 162.608C128.869 153.401 133.907 148.694 146.681 144.606C150.945 143.242 161.858 139.744 170.933 136.833C189.026 131.03 197.491 129.917 199.073 133.135C199.36 133.718 199.646 134.302 199.933 134.885Z" fill="#440807"/>
<path d="M200.933 137.885C200.35 138.721 199.766 139.556 199.183 140.392C197.843 142.311 193.566 144.261 180.933 148.709C171.858 151.904 159.258 156.064 152.933 157.952C149.1 159.096 145.266 160.241 141.433 161.385C141.433 174.318 141.433 187.252 141.433 200.185C141.433 223.357 141.05 239.368 140.483 239.935C138.803 241.614 134.069 241.009 132.981 238.975C130.163 233.71 130.107 160.165 132.917 154.914C133.574 153.687 137.442 151.964 144.175 149.898C163.48 143.975 175.437 140.072 185.432 136.432C193.463 133.508 195.874 132.997 199.933 134.885C200.266 135.885 200.6 136.885 200.933 137.885Z" fill="#FD514E"/>
<path d="M160.933 83.8851C162.974 80.3451 177.946 68.0051 189.933 59.9811C209.785 46.6931 232.941 35.9251 255.729 29.3841C264.43 26.8861 265.182 26.8181 267.479 28.3231C269.297 29.5141 269.933 30.8231 269.933 33.3731C269.933 37.2531 268.745 38.1811 260.856 40.4621C259.215 40.9361 257.574 41.4111 255.933 41.8851C252.35 43.0661 248.766 44.2461 245.183 45.4271C231.161 50.0471 211.088 59.9351 197.933 68.7041C192.158 72.5531 184.621 78.2181 174.933 86.8851C167.196 92.0651 166.922 92.1081 164.497 90.5191C163.104 89.6071 161.733 87.7401 161.449 86.3721C161.277 85.5431 161.105 84.7141 160.933 83.8851Z" fill="black"/>
<path d="M573.548 143.218C578.34 140.078 580.523 142.507 588.102 159.411C599.106 183.954 606.58 208.799 610.957 235.385C613.676 251.901 613.599 255.624 610.507 257.033C609.173 257.641 606.939 257.852 605.543 257.502C602.571 256.756 602.009 254.958 599.409 237.885C595.383 211.443 585.331 179.548 573.813 156.664C570.135 149.356 570.059 145.504 573.548 143.218Z" fill="black"/>
<path d="M532.122 424.885C546.411 400.402 555.72 374.953 563.48 339.148C564.208 335.787 568.263 333.456 570.914 334.875C574.745 336.925 574.994 339.868 572.412 352.553C567.924 374.6 559.296 398.686 548.293 419.885C536.65 442.318 532.676 446.677 527.851 442.31C524.763 439.516 525.617 436.031 532.122 424.885Z" fill="black"/>
<path d="M388.933 499.885C386.683 501.396 384.433 502.906 382.183 504.417C373.605 510.177 334.907 529.612 330.291 530.478C327.673 530.969 325.144 530.437 320.12 528.338C305.032 522.036 273.689 505.435 268.683 501.093C266.307 499.032 266.412 494.235 268.861 492.924C271.377 491.577 272.13 491.895 287.433 500.76C294.583 504.902 306.649 511.156 314.245 514.658C318.849 516.781 323.452 518.903 328.056 521.026C332.397 519.019 336.738 517.012 341.079 515.005C348.242 511.693 360.856 505.083 369.11 500.316C382.487 492.59 384.379 491.77 388.933 493.885C388.933 495.885 388.933 497.885 388.933 499.885Z" fill="#FD514E"/>
<path d="M400.242 226.25C400.472 227.424 400.722 238.173 400.797 250.135C400.842 257.385 400.888 264.635 400.933 271.885C397.433 271.885 393.933 271.885 390.433 271.885C386.933 271.885 383.433 271.885 379.933 271.885C379.929 264.302 379.925 256.718 379.921 249.135C379.91 227.478 379.322 221.65 376.447 214.658C375.929 213.398 376.423 212.62 378.272 211.777C380.612 210.711 381.178 211.003 385.638 215.582C388.487 218.507 392.389 221.276 395.147 222.329C398.34 223.548 399.956 224.793 400.242 226.25Z" fill="#FD514E"/>
<path d="M71.571 244.385C72.542 236.268 76.442 220.614 78.334 217.241C83.968 207.196 96.736 206.162 103.362 215.214C106.231 219.134 105.928 231.802 102.634 245.566C98.851 261.374 94.776 266.535 86.334 266.208C75.831 265.802 70.035 257.234 71.571 244.385ZM81.392 243.268C80.699 247.732 80.086 251.887 80.032 252.5C79.859 254.453 84.006 258.885 86.006 258.885C89.71 258.885 91.607 255.541 92.881 246.77C93.551 242.158 95.005 234.434 96.112 229.606C97.982 221.452 98.01 220.651 96.506 218.356C94.363 215.085 89.553 214.966 87.574 218.135C85.896 220.821 83.134 232.05 81.392 243.268Z" fill="#FFF3E7"/>
<path d="M551.933 292.885C553.879 290.939 555.266 290.885 603.278 290.885C649.813 290.885 652.717 290.989 654.278 292.714C656.464 295.129 656.381 299.169 654.104 301.23C652.455 302.723 647.471 302.885 603.327 302.885C560.643 302.885 554.094 302.685 552.156 301.328C549.381 299.384 549.279 295.539 551.933 292.885Z" fill="black"/>
<path d="M464.362 39.4561C466.727 41.8211 466.267 44.7411 462.933 48.5381C461.283 50.4171 459.933 53.0781 459.933 54.4521C459.933 60.1741 455.177 67.6481 449.733 70.4801C446.259 72.2881 438.598 72.2841 435.133 70.4741C429.043 67.2921 424.27 59.8311 421.51 49.1811C419.055 39.7071 419.177 39.2981 424.547 39.0201C427.084 38.8891 432.781 37.4591 437.207 35.8441C446.236 32.5491 447.459 32.8401 448.529 38.5421C449.351 42.9241 452.886 45.5161 455.866 43.9211C457.003 43.3131 457.933 42.4121 457.933 41.9211C457.933 40.7821 460.804 37.8851 461.933 37.8851C462.404 37.8851 463.498 38.5921 464.362 39.4561Z" fill="white"/>
<path d="M500.933 353.885C500.933 354.721 500.933 355.558 500.933 356.394C500.933 360.54 490.395 385.487 482.775 399.379C475.369 412.881 465.225 428.575 458.046 437.635C453.809 442.983 450.701 444.253 448.133 441.685C445.613 439.165 447.026 435.588 454.418 425.775C467.491 408.42 478.82 387.804 488.451 363.84C490.98 357.548 493.698 352.059 495.933 350.885C496.766 351.058 497.6 351.231 498.433 351.404C499.808 351.689 500.933 352.365 500.933 353.885Z" fill="#FD514E"/>
<path d="M414.817 190.385C416.468 194.785 417.845 198.882 417.876 199.49C417.907 200.098 415.483 202.911 412.489 205.743C407.317 210.634 403.509 212.885 400.403 212.885C397.986 212.885 391.873 206.737 389.706 202.126C388.563 199.694 387.071 197.491 386.39 197.23C385.709 196.969 381.061 198.809 376.062 201.32C371.063 203.831 366.031 205.885 364.88 205.885C360.118 205.885 364.103 202.068 377.937 193.382C393.765 183.443 394.88 181.966 389.222 178.406C385.391 175.995 384.661 172.34 388.183 173.202C392.849 174.344 410.055 180.608 410.916 181.478C411.41 181.977 413.166 185.985 414.817 190.385Z" fill="white"/>
<path d="M142.183 49.2481C155.429 36.8161 176.597 22.3201 196.002 12.3941C208.141 6.18514 211.101 5.68513 213.552 9.42613C216.161 13.4081 214.202 16.2211 205.911 20.3961C187.502 29.6671 165.811 44.1911 151.625 56.7451C145.425 62.2321 141.492 63.3021 138.504 60.3141C135.648 57.4581 136.651 54.4401 142.183 49.2481Z" fill="black"/>
<path d="M288.933 97.8851C287.933 97.2181 286.933 96.5521 285.933 95.8851C285.768 95.3611 285.602 94.8371 285.437 94.3131C284.589 91.6261 286.687 89.1781 293.178 85.2831C296.618 83.2191 305.611 77.5191 313.162 72.6171C324.625 65.1751 327.275 63.8431 329.217 64.5451C331.321 65.3051 340.702 71.1421 362.708 85.3851C368.351 89.0371 370.526 91.0441 370.778 92.8291C371.146 95.4331 368.784 97.8851 365.908 97.8851C364.305 97.8851 350.647 89.8991 336.258 80.5481C332.312 77.9831 328.643 75.8851 328.105 75.8851C327.567 75.8851 320.465 80.1541 312.323 85.3721C304.181 90.5901 295.587 95.5391 288.933 97.8851Z" fill="#FD514E"/>
<path d="M497.933 154.885C498.6 152.218 499.266 149.552 499.933 146.885C500.6 146.885 501.266 146.885 501.933 146.885C504.85 147.702 507.766 148.52 510.683 149.337C524.375 153.174 523.923 152.269 524.959 177.885C525.856 200.064 524.77 233.306 522.933 239.885C522.516 240.239 522.1 240.593 521.683 240.947C520.995 241.531 519.42 241.757 515.933 240.885C515.582 240.413 515.231 239.94 514.88 239.468C514.153 238.49 514.108 231.91 514.737 218.218C515.64 198.548 514.911 164.278 513.543 162.064C513.151 161.43 509.704 160.006 498.933 156.885C498.6 156.218 498.266 155.552 497.933 154.885Z" fill="#FD514E"/>
<path d="M388.933 493.885C384.379 491.77 382.487 492.59 369.11 500.316C360.856 505.083 348.242 511.693 341.079 515.005C336.738 517.012 332.397 519.019 328.056 521.026C323.452 518.903 318.849 516.781 314.245 514.658C306.649 511.156 294.583 504.902 287.433 500.76C272.13 491.895 271.377 491.577 268.861 492.924C266.412 494.235 266.307 499.032 268.683 501.093C273.689 505.435 305.032 522.036 320.12 528.338C325.144 530.437 327.673 530.969 330.291 530.478C334.907 529.612 373.605 510.177 382.183 504.417C384.433 502.906 386.683 501.396 388.933 499.885C388.933 504.852 379.178 511.519 354.433 523.462C335.791 532.459 329.806 534.317 323.813 532.962C311.874 530.263 277.221 512.286 269.229 504.645C267.467 502.96 265.779 500.301 265.479 498.734C265.297 497.784 265.115 496.835 264.933 495.885C268.759 488.11 273.647 489.016 296.244 501.693C302.19 505.029 310.908 509.413 315.617 511.435C329.138 517.242 333.991 516 365.169 498.746C378.869 491.165 385.013 489.377 387.506 492.244C387.982 492.791 388.457 493.338 388.933 493.885Z" fill="#440807"/>
<path d="M486.504 455.456C490.602 451.358 491.709 452.23 529.283 489.155C562.249 521.551 565.105 524.623 564.783 527.353C564.55 529.331 563.522 530.831 561.703 531.847C559.277 533.203 558.705 533.207 556.565 531.879C555.24 531.057 538.582 515.02 519.545 496.24C483.406 460.589 482.495 459.465 486.504 455.456Z" fill="black"/>
<path d="M63.504 33.4562C67.625 29.3352 68.599 30.1171 106.651 68.1171C138.605 100.027 142.933 104.715 142.933 107.417C142.933 111.29 141.352 112.885 137.515 112.885C134.881 112.885 129.884 108.278 98.215 76.6532C60.076 38.5662 59.326 37.6342 63.504 33.4562Z" fill="black"/>
<path d="M414.933 536.885C417.646 534.771 420.795 532.971 423.683 531.521C425.433 530.642 427.183 529.764 428.933 528.885C431.516 527.505 434.1 526.126 436.683 524.746C447.286 519.083 456.9 512.473 469.933 501.885C477.746 495.254 482.178 494.134 484.081 498.311C485.705 501.876 484.472 505.14 479.95 509.242C478.611 510.456 477.272 511.671 475.933 512.885C473.683 514.495 471.433 516.104 469.183 517.714C455.964 527.17 449.711 531.081 428.933 542.885C420.247 546.295 414.933 544.94 414.933 539.314C414.933 538.504 414.933 537.695 414.933 536.885Z" fill="black"/>
<path d="M1.76202 292.54C3.41102 291.047 8.39499 290.885 52.539 290.885C106.513 290.885 105.933 290.82 105.933 296.885C105.933 302.952 106.53 302.885 52.365 302.885C6.04601 302.885 3.14901 302.78 1.58801 301.056C-0.597993 298.641 -0.514982 294.601 1.76202 292.54Z" fill="black"/>
<path d="M288.933 97.8851C295.587 95.5391 304.181 90.5901 312.323 85.3721C320.465 80.1541 327.567 75.8851 328.105 75.8851C328.643 75.8851 332.312 77.9831 336.258 80.5481C350.647 89.8991 364.305 97.8851 365.908 97.8851C368.784 97.8851 371.146 95.4331 370.778 92.8291C370.526 91.0441 368.351 89.0371 362.708 85.3851C340.702 71.1421 331.321 65.3051 329.217 64.5451C327.275 63.8431 324.625 65.1751 313.162 72.6171C305.611 77.5191 296.618 83.2191 293.178 85.2831C286.687 89.1781 284.589 91.6261 285.437 94.3131C285.602 94.8371 285.768 95.3611 285.933 95.8851C284.383 95.0191 283.933 93.6691 283.933 92.3261C283.933 91.5121 283.933 90.6991 283.933 89.8851C289.81 83.2561 311.172 67.9531 320.398 63.7621C328.726 59.9791 333.504 61.4741 351.755 73.5771C366.804 83.5571 370.697 87.1121 371.549 91.6531C372.134 94.7731 371.856 95.5551 369.405 97.6631C364.679 101.728 359.956 100.291 341.009 89.0311C328.233 81.4381 327.703 81.4771 310.625 91.2571C300.38 97.1241 295.954 99.1211 292.951 99.2341C290.747 99.3171 288.942 99.0481 288.939 98.6351C288.937 98.3851 288.935 98.1351 288.933 97.8851Z" fill="#440807"/>
<path d="M172.762 496.54C175.905 493.695 178.455 494.664 187.074 501.975C194.896 508.61 212.599 520.909 223.251 527.11C227.155 529.382 227.933 530.327 227.933 532.789C227.933 536.238 225.664 538.885 222.708 538.885C216.66 538.885 177.983 512.504 172.45 504.605C170.415 501.7 170.537 498.554 172.762 496.54Z" fill="black"/>
<path d="M495.933 350.885C493.698 352.059 490.98 357.548 488.451 363.84C478.82 387.804 467.491 408.42 454.418 425.775C447.026 435.588 445.613 439.165 448.133 441.685C450.701 444.253 453.809 442.983 458.046 437.635C465.225 428.575 475.369 412.881 482.775 399.379C490.395 385.487 500.933 360.54 500.933 356.394C500.933 355.558 500.933 354.721 500.933 353.885C506.409 356.982 499.108 378.509 483.046 406.625C474.308 421.921 470.566 427.55 463.277 436.368C458.541 442.097 456.768 443.522 453.403 444.303C449.797 445.14 449.039 444.991 447.118 443.07C445.704 441.656 444.933 439.65 444.933 437.385C444.933 436.218 444.933 435.052 444.933 433.885C447.463 429.713 451.012 424.425 454.452 419.443C466.047 402.649 475.742 384.53 485.414 361.577C488.161 355.057 493.198 349.191 495.059 350.344C495.35 350.524 495.642 350.705 495.933 350.885Z" fill="#440807"/>
<path d="M559.228 219.885C560.076 218.191 561.455 217.288 563.507 217.086C567.143 216.728 569.123 218.733 570.714 224.385C572.615 231.135 575.925 250.936 576.582 259.482C577.175 267.2 577.093 267.659 574.846 269.233C571.857 271.326 570.659 271.309 568.071 269.135C566.36 267.698 565.618 264.794 563.913 252.885C562.116 240.333 559.991 229.099 558.427 223.885C558.18 223.06 558.54 221.26 559.228 219.885Z" fill="black"/>
<path d="M522.933 239.885C524.77 233.306 525.856 200.064 524.959 177.885C523.923 152.269 524.375 153.174 510.683 149.337C507.766 148.52 504.85 147.702 501.933 146.885C504.41 144.794 505.966 144.8 510.083 145.729C517.652 147.437 523.125 150.771 525.132 154.894C527.803 160.383 528.935 173.445 528.9 198.359C528.862 225.308 527.979 234.195 525.01 237.543C524.317 238.324 523.625 239.104 522.933 239.885Z" fill="#440807"/>
<path d="M81.392 243.268C83.134 232.05 85.896 220.821 87.574 218.135C89.553 214.966 94.363 215.085 96.506 218.356C98.01 220.651 97.982 221.452 96.112 229.606C95.005 234.434 93.551 242.158 92.881 246.77C91.607 255.541 89.71 258.885 86.006 258.885C84.006 258.885 79.859 254.453 80.032 252.5C80.086 251.887 80.699 247.732 81.392 243.268Z" fill="black"/>
<path d="M498.933 156.885C509.704 160.006 513.151 161.43 513.543 162.064C514.911 164.278 515.64 198.548 514.737 218.218C514.108 231.91 514.153 238.49 514.88 239.468C515.231 239.94 515.582 240.413 515.933 240.885C511.656 239.584 510.973 234.259 511.187 203.885C511.33 183.515 511.035 175.176 510.05 171.721C508.725 167.071 505.137 162.715 500.747 160.427C499.474 159.764 498.545 158.696 498.683 158.053C498.766 157.664 498.85 157.274 498.933 156.885Z" fill="#440807"/>
<path d="M330.266 167.552C330.633 167.919 330.933 169.26 330.933 170.533C330.933 173.101 330.948 173.095 318.433 174.792C303.326 176.841 287.28 187.123 278.466 200.401C273.815 207.408 270.336 216.742 268.721 226.547C267.713 232.666 267.042 234.44 265.635 234.708C262.135 235.375 260.74 232.958 261.444 227.455C265.16 198.417 284.525 175.767 311.542 168.857C319.108 166.922 328.95 166.236 330.266 167.552Z" fill="white"/>
<path d="M105.933 417.885C100.746 411.758 96.224 402.273 89.963 384.385C82.298 362.487 78.787 347.908 79.427 340.635C79.596 338.718 79.764 336.802 79.933 334.885C86.76 368.854 90.546 381.532 101.806 408.135C103.182 411.385 104.557 414.635 105.933 417.885Z" fill="#EFB5B3"/>
<path d="M255.933 41.8851C252.446 44.1091 249.858 45.4191 247.933 46.2311C246.008 47.0431 240.028 49.5331 234.644 51.7641C225.285 55.6431 210.249 63.2171 205.618 66.3851C204.416 67.2071 200.245 69.8791 196.349 72.3231C192.453 74.7671 186.378 79.0731 182.849 81.8911C179.32 84.7091 176.095 86.9861 175.683 86.9501C175.433 86.9281 175.183 86.9071 174.933 86.8851C184.621 78.2181 192.158 72.5531 197.933 68.7041C211.088 59.9351 231.161 50.0471 245.183 45.4271C248.766 44.2461 252.35 43.0661 255.933 41.8851Z" fill="#EFB5B3"/>
<path d="M428.933 528.885C427.081 528.397 429.218 526.753 432.488 524.918C435.758 523.083 439.333 520.806 440.433 519.859C441.533 518.912 444.585 516.956 447.216 515.512C453.786 511.907 456.774 509.991 461.375 506.433C463.543 504.756 466.356 503.047 467.625 502.635C468.394 502.385 469.164 502.135 469.933 501.885C456.9 512.473 447.286 519.083 436.683 524.746C434.1 526.126 431.516 527.505 428.933 528.885Z" fill="#EFB5B3"/>
<path d="M475.933 512.885C475.921 517.171 437.398 542.885 430.989 542.885C430.304 542.885 429.618 542.885 428.933 542.885C449.711 531.081 455.964 527.17 469.183 517.714C471.433 516.104 473.683 514.495 475.933 512.885Z" fill="#EFB5B3"/>
<path d="M254.933 234.885C254.933 245.885 254.933 256.885 254.933 267.885C254.6 256.885 254.266 245.885 253.933 234.885C254.266 234.885 254.6 234.885 254.933 234.885Z" fill="#0E0200"/>
</svg>
