<?xml version="1.0" encoding="UTF-8"?>
<svg width="1408" height="768" viewBox="0 0 1408 768" xmlns="http://www.w3.org/2000/svg">
  <path id="12" d="M 0,768 C 0,512 0,256 0,0 C 469.333,0 938.667,0 1408,0 C 1408,256 1408,512 1408,768 C 938.667,768 469.333,768 0,768 ZM 456,531 C 456.083,529.780 456.167,528.561 456.250,527.341 C 456.486,523.884 456.952,523.425 464.723,518.977 C 481.608,509.313 502.260,504.790 519.774,506.919 C 531.261,508.316 541.681,511.339 562.761,519.392 C 601.858,534.327 605.680,535.023 654,536 C 653.917,553.417 653.833,570.833 653.750,588.250 C 653.667,605.667 653.583,623.083 653.500,640.500 C 649.833,642.408 646.167,644.315 642.500,646.223 C 629.385,653.047 625.752,656.523 626.194,661.828 C 626.296,663.052 626.398,664.276 626.500,665.500 C 635.927,665.589 645.353,665.677 654.780,665.766 C 664.207,665.855 673.633,665.942 683.060,666.031 C 683.911,665.180 684.761,664.330 685.612,663.479 C 688.024,661.067 688.148,660.431 687.878,651.899 C 687.678,645.593 687.961,642.642 688.815,642.114 C 689.684,641.577 691.036,625.332 693.490,585.929 C 695.389,555.443 697.180,528.812 698,523 C 698.250,523.021 698.500,523.041 698.750,523.062 C 699.162,523.096 702.088,522.196 711,519 C 712.204,539.250 713.407,559.500 714.611,579.750 C 717.423,627.055 718.530,640.745 719.611,641.610 C 720.622,642.418 721,645.324 721,652.288 C 721,661.450 721.112,661.943 723.654,663.943 C 726.222,665.963 727.220,666.022 754.404,665.765 C 763.769,665.677 773.135,665.588 782.500,665.500 C 782.471,664.087 782.443,662.673 782.414,661.260 C 782.361,658.653 781.624,656.242 780.498,654.998 C 779.491,653.885 773.336,650.169 766.821,646.741 C 762.872,644.663 758.924,642.585 754.975,640.507 C 755.317,590.338 755.658,540.169 756,490 C 756.250,490.040 756.500,490.079 756.750,490.119 C 757.162,490.185 764.284,483.547 772.575,475.369 C 789.461,458.714 796.649,449.531 821.001,413.500 C 846.274,376.107 855.805,365.174 872,355 C 872.463,354.656 872.927,354.313 873.390,353.969 C 877.885,350.634 887.981,347.776 897,347.286 C 905.470,346.825 907.366,347.060 914.490,349.458 C 933.430,355.832 947.876,368.592 964.554,393.683 C 971.689,404.417 978.908,418.496 985.954,435.417 C 990.412,446.123 992.391,448.749 993.609,445.576 C 994.881,442.262 980.322,410.507 969.733,393.500 C 947.235,357.364 918.428,338.498 892.330,342.808 C 882.352,344.456 873.743,348.348 872,352 C 871.482,352 870.965,352 870.447,352 C 863.148,352 840.595,376.941 820.487,407.250 C 816.200,413.712 812.311,419 811,419 C 809.067,415.070 807.134,411.141 805.201,407.211 C 795.551,387.594 783.569,370.351 766.620,351.683 C 763.327,348.056 760.034,344.428 756.741,340.801 C 756.980,335.970 757.220,331.139 757.459,326.308 C 757.698,321.477 757.938,316.646 758.177,311.815 C 763.064,316.624 767.951,321.432 772.838,326.241 C 780.902,334.175 789.561,341.866 792.081,343.330 C 803.398,349.907 815.986,346.707 822.496,335.598 C 831,321.087 848.026,262.473 845.098,257.785 C 844.111,256.204 844.333,255.393 846.444,252.884 C 847.835,251.230 852.151,243.508 856.034,235.722 C 863.894,219.963 864.678,215.752 859.853,215.193 C 857.385,214.907 857.241,214.621 857.733,210.953 C 858.368,206.221 856.658,203.641 853.311,204.281 C 851.441,204.639 851,204.286 851,202.433 C 851,195.944 843.441,195.698 841.005,202.107 C 840.575,203.238 840.146,204.369 839.716,205.500 C 839.510,204.500 839.304,203.500 839.098,202.500 C 838.556,199.868 838.059,199.500 835.040,199.500 C 831.196,199.500 831.504,198.845 826.865,216.884 C 826.146,219.679 825.427,222.473 824.708,225.268 C 824.007,223.807 823.305,222.347 822.604,220.886 C 820.122,215.718 815.980,213.592 813.406,216.166 C 811.989,217.583 812.046,218.930 814.019,230.612 C 815.216,237.698 816.677,244.396 817.267,245.497 C 818.124,247.097 818.015,247.562 816.726,247.812 C 815.613,248.028 812.576,255.149 806.916,270.812 C 802.407,283.290 798.402,293.856 798.017,294.292 C 797.631,294.728 791.957,288.653 785.408,280.794 C 764.605,255.830 763.343,255.008 732,246 C 729,243.333 726,240.667 723,238 C 723,236.290 723,234.581 723,232.871 C 723,228.388 723.453,227.242 726.597,223.761 C 730.586,219.345 734.975,210.718 734.990,207.263 C 734.997,205.666 735.979,204.618 738.422,203.597 C 740.304,202.811 742.616,200.990 743.559,199.551 C 746.014,195.804 745.788,189.468 743.098,186.605 C 741.013,184.386 740.968,183.922 742.013,175.329 C 744.918,151.436 735.900,137.476 714.271,132.388 C 701.097,129.289 686.365,132.722 680.643,140.224 C 679.189,142.130 678,144.154 678,144.723 C 678,145.292 676.641,146.320 674.980,147.008 C 666.275,150.614 663.152,161.477 666.384,176.907 C 667.689,183.139 667.658,183.413 665.274,186.907 C 661.951,191.776 662.606,197.365 666.954,201.250 C 668.647,202.762 670.682,204 671.477,204 C 672.331,204 673.391,205.736 674.066,208.244 C 675.670,214.200 678.511,219.453 682.543,223.916 C 685.539,227.232 686,228.427 686,238 C 682.333,241 678.667,244 675,247 C 670.636,248.548 666.272,250.097 661.908,251.645 C 643.539,258.162 636.947,263.416 629.979,277.094 C 629.029,278.959 628.079,280.822 627.129,282.687 C 623.357,282.891 619.587,283.095 615.815,283.299 C 586.375,284.892 559.546,293.779 534.953,310.084 C 523.239,317.850 503.113,337.789 494.177,350.481 C 477.882,373.625 465.751,401.154 458.382,431.711 C 452.780,454.943 451.839,466.318 451,521 C 451,521.432 451,521.863 451,522.294 C 451,523.006 448.816,525.254 446.147,527.290 C 438.797,532.895 425.037,547.590 417.287,558.109 C 408.633,569.856 401,582.146 401,584.334 C 401,588.115 403.828,585.445 409.271,576.525 C 422.046,555.590 435.125,540.736 452,528 C 452.351,531.323 452.703,534.647 453.054,537.970 C 456.234,568.061 468.432,608.959 482.720,637.431 C 486.360,644.685 487.488,646.182 488.723,645.403 C 490.022,644.584 489.586,643.134 485.741,635.472 C 470.411,604.922 458.858,564.341 456,531 ZM 422.571,366.571 C 421.707,367.435 421,368.979 421,370 C 421,371.985 423.494,375 425.137,375 C 427.737,375 430,372.750 430,370.165 C 430,365.338 425.824,363.318 422.571,366.571 ZM 456.571,251.571 C 454.280,253.862 454.225,290.112 456.509,292.008 C 458.430,293.602 486.757,293.447 488.704,291.831 C 489.681,291.020 490,286.131 490,271.949 C 490,256.186 489.746,252.888 488.429,251.571 C 486.115,249.257 458.885,249.257 456.571,251.571 ZM 552.798,148.625 C 552.359,148.896 552.004,149.429 552.009,149.809 C 552.025,151.081 572.190,174.500 573.269,174.500 C 575.990,174.500 574.314,171.631 565.371,160.981 C 555.298,148.985 554.108,147.815 552.798,148.625 ZM 576.314,211.174 C 572.217,215.023 574.314,221.161 580.200,222.553 C 582.285,223.046 583.480,222.611 585.450,220.641 C 588.528,217.563 588.712,214.142 585.961,211.189 C 583.360,208.397 579.277,208.391 576.314,211.174 ZM 785.934,104.035 C 783.499,105.338 783.338,110.611 785.655,113.171 C 787.686,115.415 791.322,115.536 793.429,113.429 C 795.284,111.574 795.512,105.912 793.800,104.200 C 792.326,102.726 788.529,102.646 785.934,104.035 ZM 826.189,557.039 C 821.672,561.247 824.743,569 830.927,569 C 832.918,569 834.536,568.134 835.984,566.293 C 841.171,559.699 832.315,551.332 826.189,557.039 ZM 870,481 C 868.149,482.851 868,484.334 868,500.929 C 868,515.894 868.259,519.117 869.571,520.429 C 870.857,521.715 873.815,522 885.871,522 C 895.993,522 900.975,521.625 901.800,520.800 C 902.647,519.953 903,514.162 903,501.129 C 903,485.345 902.759,482.392 901.345,480.829 C 899.893,479.225 897.988,479 885.845,479 C 873.333,479 871.807,479.193 870,481 ZM 891.200,161.200 C 890.350,162.050 890,168.015 890,181.665 C 890,199.688 890.124,200.997 891.934,201.965 C 893.003,202.537 900.129,203 907.863,203 C 919.252,203 922.150,202.708 923.429,201.429 C 924.746,200.112 925,196.822 925,181.129 C 925,167.896 924.648,162.048 923.800,161.200 C 922.973,160.373 917.911,160 907.500,160 C 897.089,160 892.027,160.373 891.200,161.200 ZM 922.798,273.625 C 921.805,274.238 921.739,277 922.717,277 C 923.112,277 930.133,274.441 938.321,271.312 C 951.589,266.242 955.383,264.050 953.740,262.407 C 953.308,261.975 925.100,272.203 922.798,273.625 Z" fill="#FFFFFF" stroke="none" />
  <path id="49" d="M 654,531 C 653.253,395.763 652.640,353.575 652.154,350 C 651.860,347.833 651.565,345.667 651.271,343.500 C 650.398,347.909 649.524,352.319 648.651,356.728 C 645.975,370.240 641.605,407.731 640.401,427.500 C 640.033,433.550 639.339,439 638.859,439.611 C 638.324,440.292 638.919,442.422 640.397,445.111 C 643.372,450.524 647.266,464.585 646.478,467.068 C 645.769,469.302 642.608,470.439 640.454,469.234 C 639.581,468.746 638,467.031 636.940,465.423 C 636.298,464.449 635.655,463.474 635.013,462.500 C 635.015,464 635.016,465.500 635.018,467 C 635.021,469.475 635.688,473.975 636.500,477 C 639.506,488.198 637.957,491.206 630.248,489.144 C 623.996,487.472 616.544,481.782 613.236,476.155 C 610.583,471.642 610.501,471.053 610.542,456.812 C 610.581,443.090 610.457,442.092 608.642,441.617 C 606.764,441.126 606.718,440.284 607.290,416.304 C 608.282,374.731 612.537,341.561 621.551,305.132 C 624.051,295.029 625.882,286.549 625.620,286.287 C 625.358,286.025 619.599,286.316 612.822,286.934 C 573.079,290.556 542.273,304.547 515.958,330.929 C 494.665,352.276 479.333,377.654 468.491,409.495 C 458.579,438.604 453.048,476.613 454.413,506.250 C 454.609,510.500 454.804,514.750 455,519 C 454.804,519.524 454.609,520.049 454.413,520.573 C 454.089,521.441 453.192,521.890 451,521 C 451.839,466.318 452.780,454.943 458.382,431.711 C 465.751,401.154 477.882,373.625 494.177,350.481 C 503.113,337.789 523.239,317.850 534.953,310.084 C 559.546,293.779 586.375,284.892 615.815,283.299 C 619.587,283.095 623.357,282.891 627.129,282.687 C 628.079,280.822 629.029,278.959 629.979,277.094 C 636.947,263.416 643.539,258.162 661.908,251.645 C 666.272,250.097 670.636,248.548 675,247 C 675.333,248 675.667,249 676,250 C 649.153,259.182 641.264,263.996 634.728,275.186 C 630,283.281 622.382,312.547 617.528,341.270 C 614.185,361.048 612.233,379.966 611.029,404.250 C 610.686,411.167 610.343,418.083 610,425 C 610,426.333 610,427.667 610,429 C 610,432 610,435 610,438 C 613.917,437.995 617.833,437.990 621.750,437.985 C 628.213,437.977 633.998,437.639 634.606,437.235 C 635.214,436.831 636.002,434.812 636.356,432.750 C 636.571,431.500 636.785,430.250 637,429 C 637,427.333 637,425.667 637,424 C 640.848,380.695 643.349,362.248 648.641,338.110 C 650.807,328.230 651.119,324.745 650.735,314.721 C 650.311,303.645 650.909,300.463 653.007,302.637 C 653.465,303.112 654.588,322.400 655.501,345.500 C 656.414,368.600 657.336,388.062 657.549,388.750 C 657.852,389.726 668.097,390 704.372,390 C 719.850,390 735.330,390 750.808,390 C 751.029,386.583 751.249,383.167 751.470,379.750 C 751.835,374.112 752.891,352.406 753.817,331.513 C 755.405,295.681 755.608,293.505 757.403,293.160 C 759.174,292.820 759.262,293.274 758.663,299.721 C 758.448,302.030 758.234,304.339 758.019,306.648 C 763.433,311.994 768.845,317.340 774.259,322.686 C 783.191,331.507 792.394,339.686 794.710,340.862 C 797.464,342.261 800.784,343 804.310,343 C 812.090,343 816.800,339.352 821.376,329.782 C 825.779,320.573 832.112,302.204 836.556,285.750 C 837.704,281.500 838.852,277.250 840,273 C 840.333,271.667 840.667,270.333 841,269 C 841.167,265.932 841.333,262.865 841.500,259.797 C 837.432,258.491 833.364,257.185 829.296,255.879 C 825.228,254.573 821.160,253.267 817.092,251.961 C 816.743,253.301 816.395,254.640 816.046,255.980 C 815.697,257.320 815.349,258.660 815,260 C 814.333,261.333 813.667,262.667 813,264 C 797.989,305.339 795.848,310.235 794.912,309.305 C 793.975,308.374 793.987,307.116 794.968,303.613 C 795.388,302.114 795.807,300.616 796.227,299.117 C 791.272,293.222 786.319,287.326 781.364,281.431 C 764.096,260.884 760.117,257.911 743.351,253.020 C 739.901,252.013 736.450,251.007 733,250 C 732.667,248.667 732.333,247.333 732,246 C 763.343,255.008 764.605,255.830 785.408,280.794 C 791.957,288.653 797.631,294.728 798.017,294.292 C 798.402,293.856 802.407,283.290 806.916,270.812 C 812.576,255.149 815.613,248.028 816.726,247.812 C 818.015,247.562 818.124,247.097 817.267,245.497 C 816.677,244.396 815.216,237.698 814.019,230.612 C 812.046,218.930 811.989,217.583 813.406,216.166 C 815.980,213.592 820.122,215.718 822.604,220.886 C 823.305,222.347 824.007,223.807 824.708,225.268 C 825.427,222.473 826.146,219.679 826.865,216.884 C 831.504,198.845 831.196,199.500 835.040,199.500 C 838.059,199.500 838.556,199.868 839.098,202.500 C 839.304,203.500 839.510,204.500 839.716,205.500 C 840.146,204.369 840.575,203.238 841.005,202.107 C 843.441,195.698 851,195.944 851,202.433 C 851,204.286 851.441,204.639 853.311,204.281 C 856.658,203.641 858.368,206.221 857.733,210.953 C 857.241,214.621 857.385,214.907 859.853,215.193 C 864.678,215.752 863.894,219.963 856.034,235.722 C 852.151,243.508 847.835,251.230 846.444,252.884 C 844.333,255.393 844.111,256.204 845.098,257.785 C 848.026,262.473 831,321.087 822.496,335.598 C 815.986,346.707 803.398,349.907 792.081,343.330 C 789.561,341.866 780.902,334.175 772.838,326.241 C 767.951,321.432 763.064,316.624 758.177,311.815 C 757.938,316.646 757.698,321.477 757.459,326.308 C 757.220,331.139 756.980,335.970 756.741,340.801 C 760.034,344.428 763.327,348.056 766.620,351.683 C 783.569,370.351 795.551,387.594 805.201,407.211 C 807.134,411.141 809.067,415.070 811,419 C 810.333,420.333 809.667,421.667 809,423 C 796.691,397.882 787.515,382.441 777.206,369.500 C 767.832,357.733 757.739,346.858 756.974,347.701 C 755.258,349.594 753.776,405.504 754.379,445.641 C 754.586,459.427 754.793,473.214 755,487 C 755.333,488 755.667,489 756,490 C 755.658,540.169 755.317,590.338 754.975,640.507 C 758.924,642.585 762.872,644.663 766.821,646.741 C 773.336,650.169 779.491,653.885 780.498,654.998 C 781.624,656.242 782.361,658.653 782.414,661.260 C 782.443,662.673 782.471,664.087 782.500,665.500 C 773.135,665.588 763.769,665.677 754.404,665.765 C 727.220,666.022 726.222,665.963 723.654,663.943 C 721.112,661.943 721,661.450 721,652.288 C 721,645.324 720.622,642.418 719.611,641.610 C 718.530,640.745 717.423,627.055 714.611,579.750 C 713.407,559.500 712.204,539.250 711,519 C 710.667,518 710.333,517 710,516 C 706.161,443.869 705.333,434 704.377,434 C 703.424,434 702.496,444.461 700.559,477 C 699.706,491.333 698.853,505.667 698,520 C 698,521 698,522 698,523 C 697.180,528.812 695.389,555.443 693.490,585.929 C 691.036,625.332 689.684,641.577 688.815,642.114 C 687.961,642.642 687.678,645.593 687.878,651.899 C 688.148,660.431 688.024,661.067 685.612,663.479 C 684.761,664.330 683.911,665.180 683.060,666.031 C 673.633,665.942 664.207,665.855 654.780,665.766 C 645.353,665.677 635.927,665.589 626.500,665.500 C 626.398,664.276 626.296,663.052 626.194,661.828 C 625.752,656.523 629.385,653.047 642.500,646.223 C 646.167,644.315 649.833,642.408 653.500,640.500 C 653.583,623.083 653.667,605.667 653.750,588.250 C 653.833,570.833 653.917,553.417 654,536 C 654,534.333 654,532.667 654,531 ZM 640.657,454.951 C 639.428,450.799 637.396,445.961 636.143,444.201 C 633.871,441.011 633.835,441 624.967,441 C 617.226,441 615.937,441.248 615.046,442.914 C 613.525,445.755 612.383,465.500 613.789,464.631 C 614.497,464.194 615.123,465.314 615.517,467.722 C 616.786,475.477 617.176,476.990 618.049,477.530 C 618.543,477.835 618.903,475.264 618.853,471.792 C 618.803,468.332 619.028,465.275 619.354,465 C 619.679,464.725 620.773,468.227 621.784,472.783 C 623.053,478.502 624.343,481.753 625.950,483.283 C 628.131,485.359 628.234,485.373 627.572,483.500 C 626.292,479.876 624.030,469.543 624.015,467.250 C 623.988,463.131 626.782,464.734 627.501,469.250 C 628.524,475.678 630.881,483.457 632.454,485.594 C 634.754,488.718 635.401,485.088 633.616,479.077 C 628.689,462.486 632.339,448.840 638.468,460.936 C 641.047,466.026 643.046,467.505 642.946,464.250 C 642.917,463.288 641.887,459.103 640.657,454.951 ZM 684.268,646.250 C 684.140,644.833 684.013,643.417 683.885,642 C 679.591,642 675.297,642 671.003,642 C 666.709,642 662.414,642 658.120,642 C 653.683,644.337 649.247,646.675 644.810,649.012 C 631.899,655.814 629,657.955 629,660.691 C 629,662.511 681.983,662.617 683.800,660.800 C 684.951,659.649 685.089,655.368 684.268,646.250 ZM 751.250,462.750 C 751.162,439.833 751.074,416.917 750.986,394 C 735.540,394 720.093,394 704.647,394 C 689.201,394 673.753,394 658.307,394 C 658.089,398.052 657.872,402.105 657.654,406.157 C 657.294,412.843 657,467.968 657,528.657 C 657,565.438 657,602.219 657,639 C 662,639 667,639 672,639 C 677,639 682,639 687,639 C 687.016,637.917 687.033,636.833 687.049,635.750 C 687.076,633.963 689.910,587.950 693.349,533.500 C 695.433,500.500 697.517,467.500 699.601,434.500 C 698.751,434.330 697.901,434.160 697.051,433.990 C 695.648,433.710 694.500,432.810 694.500,431.990 C 694.500,430.770 696.298,430.500 704.417,430.500 C 711.494,430.500 714.454,430.860 714.753,431.758 C 715.005,432.515 713.944,433.261 712.086,433.633 C 710.389,433.972 709.001,434.531 709.001,434.875 C 709.001,435.219 710.790,464.300 712.975,499.500 C 715.160,534.700 717.882,579.025 719.023,598 C 720.164,616.975 721.321,633.963 721.594,635.750 C 721.759,636.833 721.926,637.917 722.091,639 C 726.860,639 731.628,639 736.397,639 C 741.166,639 745.935,639 750.704,639 C 750.918,636.250 751.132,633.500 751.346,630.750 C 751.699,626.213 751.881,602.025 751.751,577 C 751.621,551.975 751.395,500.562 751.250,462.750 ZM 778.943,659.374 C 777.952,656.697 774.496,654.249 765,649.500 C 760.875,647.437 756.306,644.906 754.846,643.875 C 752.568,642.266 750.279,642 738.712,642 C 723.151,642 724.038,641.329 724.014,653.128 C 724.005,657.540 724.458,660.136 725.372,660.894 C 726.341,661.698 734.532,661.955 753.237,661.767 C 762.068,661.678 770.899,661.589 779.730,661.500 C 779.468,660.791 779.205,660.083 778.943,659.374 ZM 859.588,218 C 859.361,218 857.088,220.925 854.537,224.500 C 850.514,230.138 847,232.791 847,230.190 C 847,229.381 850.331,220.823 853.387,213.782 C 855.264,209.457 855.407,208 853.957,208 C 853.383,208 850.916,212.275 848.475,217.500 C 844.249,226.545 842.875,228.226 841.514,226.023 C 841.039,225.254 845.441,208.472 847.750,202.250 C 848.005,201.562 847.559,201 846.759,201 C 845.817,201 843.801,205.056 841.043,212.500 C 838.152,220.301 836.289,224 835.251,224 C 833.993,224 833.829,223.064 834.334,218.750 C 834.672,215.863 835.248,210.913 835.614,207.750 C 836.777,197.707 834.479,201.345 830.878,215.250 C 829.734,219.667 828.590,224.083 827.446,228.500 C 828.728,229.721 830.011,230.941 831.293,232.162 C 834.635,235.344 835.070,236.261 834.605,239.162 C 833.937,243.326 833.363,243.364 832.032,239.333 C 831.457,237.591 829.527,235.001 827.743,233.578 C 822.190,229.146 821.343,228.090 820.150,224.107 C 818.799,219.599 815.989,216.552 816.018,219.628 C 816.062,224.219 819.052,240.704 820.644,245.130 C 821.228,246.755 821.813,248.380 822.397,250.005 C 825.204,250.919 828.010,251.833 830.817,252.747 C 833.624,253.661 836.431,254.576 839.238,255.490 C 840.375,254.174 841.513,252.858 842.650,251.542 C 844.527,249.371 849.198,241.324 853.031,233.659 C 859.519,220.686 860.643,218 859.588,218 Z" fill="#232323" stroke="none" />
  <path id="12" d="M 455,519 C 454.804,514.750 454.609,510.500 454.413,506.250 C 453.048,476.613 458.579,438.604 468.491,409.495 C 479.333,377.654 494.665,352.276 515.958,330.929 C 542.273,304.547 573.079,290.556 612.822,286.934 C 619.599,286.316 625.358,286.025 625.620,286.287 C 625.882,286.549 624.051,295.029 621.551,305.132 C 612.537,341.561 608.282,374.731 607.290,416.304 C 606.718,440.284 606.764,441.126 608.642,441.617 C 610.457,442.092 610.581,443.090 610.542,456.812 C 610.501,471.053 610.583,471.642 613.236,476.155 C 616.544,481.782 623.996,487.472 630.248,489.144 C 637.957,491.206 639.506,488.198 636.500,477 C 635.688,473.975 635.021,469.475 635.018,467 C 635.016,465.500 635.015,464 635.013,462.500 C 635.655,463.474 636.298,464.449 636.940,465.423 C 638,467.031 639.581,468.746 640.454,469.234 C 642.608,470.439 645.769,469.302 646.478,467.068 C 647.266,464.585 643.372,450.524 640.397,445.111 C 638.919,442.422 638.324,440.292 638.859,439.611 C 639.339,439 640.033,433.550 640.401,427.500 C 641.605,407.731 645.975,370.240 648.651,356.728 C 649.524,352.319 650.398,347.909 651.271,343.500 C 651.565,345.667 651.860,347.833 652.154,350 C 652.640,353.575 653.253,395.763 654,531 C 652.250,531.353 650.500,531.707 648.750,532.060 C 641.562,533.511 620.844,532.409 608.519,529.920 C 594.443,527.077 587.254,524.827 565.017,516.300 C 534.928,504.762 529.718,503.541 510.500,503.535 C 489.748,503.528 485.479,504.718 455,519 Z" fill="#FFFFFF" stroke="none" />
  <path id="12" d="M 610,425 C 610.343,418.083 610.686,411.167 611.029,404.250 C 612.233,379.966 614.185,361.048 617.528,341.270 C 622.382,312.547 630,283.281 634.728,275.186 C 641.264,263.996 649.153,259.182 676,250 C 676.802,251.637 677.603,253.275 678.405,254.912 C 682.905,264.104 689.084,274 690.325,274 C 691.005,274 694.234,271.300 697.500,268 C 700.766,264.700 703.916,262 704.500,262 C 705.084,262 708.246,264.712 711.526,268.026 C 714.806,271.340 718.130,273.928 718.913,273.776 C 719.696,273.624 723.185,268.212 733,250 C 736.450,251.007 739.901,252.013 743.351,253.020 C 760.117,257.911 764.096,260.884 781.364,281.431 C 786.319,287.326 791.272,293.222 796.227,299.117 C 795.807,300.616 795.388,302.114 794.968,303.613 C 793.987,307.116 793.975,308.374 794.912,309.305 C 795.848,310.235 797.989,305.339 813,264 C 822,267 831,270 840,273 C 838.852,277.250 837.704,281.500 836.556,285.750 C 832.112,302.204 825.779,320.573 821.376,329.782 C 816.800,339.352 812.090,343 804.310,343 C 800.784,343 797.464,342.261 794.710,340.862 C 792.394,339.686 783.191,331.507 774.259,322.686 C 768.845,317.340 763.433,311.994 758.019,306.648 C 758.234,304.339 758.448,302.030 758.663,299.721 C 759.262,293.274 759.174,292.820 757.403,293.160 C 755.608,293.505 755.405,295.681 753.817,331.513 C 752.891,352.406 751.835,374.112 751.470,379.750 C 751.249,383.167 751.029,386.583 750.808,390 C 735.330,390 719.850,390 704.372,390 C 668.097,390 657.852,389.726 657.549,388.750 C 657.336,388.062 656.414,368.600 655.501,345.500 C 654.588,322.400 653.465,303.112 653.007,302.637 C 650.909,300.463 650.311,303.645 650.735,314.721 C 651.119,324.745 650.807,328.230 648.641,338.110 C 643.349,362.248 640.848,380.695 637,424 C 628,424.333 619,424.667 610,425 Z" fill="#FFFFFF" stroke="none" />
  <path id="12" d="M 751.250,462.750 C 751.395,500.562 751.621,551.975 751.751,577 C 751.881,602.025 751.699,626.213 751.346,630.750 C 751.132,633.500 750.918,636.250 750.704,639 C 745.935,639 741.166,639 736.397,639 C 731.628,639 726.860,639 722.091,639 C 721.926,637.917 721.759,636.833 721.594,635.750 C 721.321,633.963 720.164,616.975 719.023,598 C 717.882,579.025 715.160,534.700 712.975,499.500 C 710.790,464.300 709.001,435.219 709.001,434.875 C 709.001,434.531 710.389,433.972 712.086,433.633 C 713.944,433.261 715.005,432.515 714.753,431.758 C 714.454,430.860 711.494,430.500 704.417,430.500 C 696.298,430.500 694.500,430.770 694.500,431.990 C 694.500,432.810 695.648,433.710 697.051,433.990 C 697.901,434.160 698.751,434.330 699.601,434.500 C 697.517,467.500 695.433,500.500 693.349,533.500 C 689.910,587.950 687.076,633.963 687.049,635.750 C 687.033,636.833 687.016,637.917 687,639 C 682,639 677,639 672,639 C 667,639 662,639 657,639 C 657,602.219 657,565.438 657,528.657 C 657,467.968 657.294,412.843 657.654,406.157 C 657.872,402.105 658.089,398.052 658.307,394 C 673.753,394 689.201,394 704.647,394 C 720.093,394 735.540,394 750.986,394 C 751.074,416.917 751.162,439.833 751.250,462.750 Z" fill="#FFFFFF" stroke="none" />
  <path id="49" d="M 719,240 C 718.833,237.011 718.667,234.023 718.500,231.034 C 716.864,231.528 715.227,232.023 713.591,232.517 C 705.653,234.915 699.918,234.415 690.750,230.528 C 689.229,229.883 689,230.389 689,234.393 C 689,235.929 689,237.464 689,239 C 688,238.667 687,238.333 686,238 C 686,228.427 685.539,227.232 682.543,223.916 C 678.511,219.453 675.670,214.200 674.066,208.244 C 673.391,205.736 672.331,204 671.477,204 C 670.682,204 668.647,202.762 666.954,201.250 C 662.606,197.365 661.951,191.776 665.274,186.907 C 667.658,183.413 667.689,183.139 666.384,176.907 C 663.152,161.477 666.275,150.614 674.980,147.008 C 676.641,146.320 678,145.292 678,144.723 C 678,144.154 679.189,142.130 680.643,140.224 C 686.365,132.722 701.097,129.289 714.271,132.388 C 735.900,137.476 744.918,151.436 742.013,175.329 C 740.968,183.922 741.013,184.386 743.098,186.605 C 745.788,189.468 746.014,195.804 743.559,199.551 C 742.616,200.990 740.304,202.811 738.422,203.597 C 735.979,204.618 734.997,205.666 734.990,207.263 C 734.975,210.718 730.586,219.345 726.597,223.761 C 723.453,227.242 723,228.388 723,232.871 C 723,234.581 723,236.290 723,238 C 721.667,238.667 720.333,239.333 719,240 ZM 672.163,186.601 C 671.703,186.316 670.353,186.765 669.163,187.598 C 666.099,189.744 666.181,195.883 669.314,198.826 C 670.587,200.022 671.937,201 672.314,201 C 673.305,201 673.160,187.217 672.163,186.601 ZM 737.446,154.909 C 735.397,148.256 729.335,141.880 721.808,138.459 C 716.518,136.055 713.887,135.533 705.500,135.223 C 696.122,134.877 695.158,135.029 690,137.677 C 686.148,139.654 683.870,141.640 682.398,144.304 C 681.242,146.396 678.799,148.871 676.969,149.804 C 670.069,153.322 667.521,160.507 669.123,171.931 C 670.819,184.028 672.443,185.527 673.230,175.721 C 674.594,158.734 683.922,153.601 702.500,159.615 C 708.687,161.618 712.468,162.194 719.182,162.155 C 726.554,162.113 728.270,162.425 730.553,164.221 C 734.018,166.947 736,171.766 736,177.468 C 736,179.961 736.394,182 736.875,182 C 739.302,182 739.718,162.283 737.446,154.909 ZM 731.614,171.500 C 729.601,166.881 728.214,166.291 718,165.715 C 711.969,165.375 705.423,164.234 700.074,162.590 C 690.044,159.507 687.497,159.400 683.420,161.886 C 677.490,165.502 676.500,169.381 676.500,189 C 676.500,205.818 676.603,206.719 679.135,212.120 C 684.740,224.073 693.346,230.250 704.397,230.250 C 712.282,230.250 718.266,227.691 723.207,222.205 C 727.861,217.038 730.440,211.980 731.877,205.201 C 733.442,197.815 733.267,175.292 731.614,171.500 ZM 740.645,188.529 C 738.122,185.078 736,187.307 736,193.410 C 736,199.547 737.201,201.033 740.063,198.443 C 742.328,196.393 742.631,191.245 740.645,188.529 Z" fill="#232323" stroke="none" />
  <path id="12" d="M 809,423 C 808.170,424.516 807.340,426.031 806.510,427.547 C 805.140,430.048 799.435,438.260 793.831,445.797 C 786.531,455.615 779.582,463.398 755,487 C 754.793,473.214 754.586,459.427 754.379,445.641 C 753.776,405.504 755.258,349.594 756.974,347.701 C 757.739,346.858 767.832,357.733 777.206,369.500 C 787.515,382.441 796.691,397.882 809,423 Z" fill="#FFFFFF" stroke="none" />
  <path id="12" d="M 731.614,171.500 C 733.267,175.292 733.442,197.815 731.877,205.201 C 730.440,211.980 727.861,217.038 723.207,222.205 C 718.266,227.691 712.282,230.250 704.397,230.250 C 693.346,230.250 684.740,224.073 679.135,212.120 C 676.603,206.719 676.500,205.818 676.500,189 C 676.500,169.381 677.490,165.502 683.420,161.886 C 687.497,159.400 690.044,159.507 700.074,162.590 C 705.423,164.234 711.969,165.375 718,165.715 C 728.214,166.291 729.601,166.881 731.614,171.500 ZM 687.501,178 C 684.244,179.075 682.984,181.644 685.833,181.400 C 686.475,181.345 689.025,181.233 691.500,181.150 C 694.740,181.042 696,180.585 696,179.519 C 696,177.386 691.692,176.617 687.501,178 ZM 690.030,185.481 C 688.422,186.475 689.188,190.500 690.986,190.500 C 692.766,190.500 693.602,187.202 692.181,185.781 C 691.627,185.227 690.659,185.092 690.030,185.481 ZM 693.581,209.752 C 692.259,211.074 693.226,212.201 697.250,214.027 C 699.588,215.088 703.202,215.966 705.282,215.978 C 709.347,216.002 716,213.668 716,212.218 C 716,210.389 714.736,210.213 711.451,211.585 C 706.917,213.479 703.339,213.337 698.331,211.063 C 696.038,210.022 693.901,209.432 693.581,209.752 ZM 705.604,199.825 C 703.760,201.669 705.017,203.590 707.455,202.655 C 710.007,201.676 710.417,199.129 709.285,191.269 C 708.160,183.461 707.557,182.043 706.014,183.586 C 705.410,184.190 705.451,187.047 706.127,191.387 C 707.042,197.266 706.968,198.461 705.604,199.825 ZM 715.540,177.623 C 714.647,177.966 714.082,178.753 714.285,179.373 C 714.704,180.648 722.371,181.459 724.864,180.492 C 726.321,179.927 726.288,179.702 724.559,178.429 C 722.530,176.936 718.314,176.559 715.540,177.623 ZM 719.030,185.481 C 717.422,186.475 718.188,190.500 719.986,190.500 C 721.766,190.500 722.602,187.202 721.181,185.781 C 720.627,185.227 719.659,185.092 719.030,185.481 Z" fill="#FFFFFF" stroke="none" />
  <path id="12" d="M 737.446,154.909 C 739.718,162.283 739.302,182 736.875,182 C 736.394,182 736,179.961 736,177.468 C 736,171.766 734.018,166.947 730.553,164.221 C 728.270,162.425 726.554,162.113 719.182,162.155 C 712.468,162.194 708.687,161.618 702.500,159.615 C 683.922,153.601 674.594,158.734 673.230,175.721 C 672.443,185.527 670.819,184.028 669.123,171.931 C 667.521,160.507 670.069,153.322 676.969,149.804 C 678.799,148.871 681.242,146.396 682.398,144.304 C 683.870,141.640 686.148,139.654 690,137.677 C 695.158,135.029 696.122,134.877 705.500,135.223 C 713.887,135.533 716.518,136.055 721.808,138.459 C 729.335,141.880 735.397,148.256 737.446,154.909 Z" fill="#FFFFFF" stroke="none" />
  <path id="49" d="M 891.200,161.200 C 892.027,160.373 897.089,160 907.500,160 C 917.911,160 922.973,160.373 923.800,161.200 C 924.648,162.048 925,167.896 925,181.129 C 925,196.822 924.746,200.112 923.429,201.429 C 922.150,202.708 919.252,203 907.863,203 C 900.129,203 893.003,202.537 891.934,201.965 C 890.124,200.997 890,199.688 890,181.665 C 890,168.015 890.350,162.050 891.200,161.200 ZM 921.724,162.448 C 920.998,162.169 914.126,162.066 906.452,162.220 C 901.801,162.313 897.151,162.407 892.500,162.500 C 892.500,168.833 892.500,175.167 892.500,181.500 C 892.500,187.833 892.500,194.167 892.500,200.500 C 897.500,200.500 902.500,200.500 907.500,200.500 C 912.500,200.500 917.500,200.500 922.500,200.500 C 922.591,194.242 922.681,187.985 922.772,181.727 C 922.987,166.904 922.767,162.848 921.724,162.448 Z" fill="#232323" stroke="none" />
  <path id="49" d="M 870,481 C 871.807,479.193 873.333,479 885.845,479 C 897.988,479 899.893,479.225 901.345,480.829 C 902.759,482.392 903,485.345 903,501.129 C 903,514.162 902.647,519.953 901.800,520.800 C 900.975,521.625 895.993,522 885.871,522 C 873.815,522 870.857,521.715 869.571,520.429 C 868.259,519.117 868,515.894 868,500.929 C 868,484.334 868.149,482.851 870,481 ZM 899.822,482.222 C 897.985,480.385 872.639,480.526 871.099,482.381 C 870.308,483.334 870.037,489.299 870.226,501.631 C 870.317,507.587 870.409,513.544 870.500,519.500 C 875.500,519.500 880.500,519.500 885.500,519.500 C 890.500,519.500 895.500,519.500 900.500,519.500 C 900.591,513.491 900.681,507.481 900.772,501.472 C 900.971,488.293 900.715,483.115 899.822,482.222 Z" fill="#232323" stroke="none" />
  <path id="49" d="M 456.571,251.571 C 458.885,249.257 486.115,249.257 488.429,251.571 C 489.746,252.888 490,256.186 490,271.949 C 490,286.131 489.681,291.020 488.704,291.831 C 486.757,293.447 458.430,293.602 456.509,292.008 C 454.225,290.112 454.280,253.862 456.571,251.571 ZM 486.702,252.439 C 485.988,252.165 479.126,252.066 471.452,252.220 C 466.801,252.313 462.151,252.407 457.500,252.500 C 457.404,255.382 457.309,258.264 457.213,261.146 C 457.117,264.028 457.021,266.909 456.925,269.791 C 459.021,269.781 461.117,269.771 463.213,269.761 C 470.461,269.726 472,268.871 472,264.878 C 472,261.088 468.453,257.379 466.433,259.056 C 465.645,259.710 465,261.116 465,262.181 C 465,263.246 464.590,263.864 464.088,263.554 C 463.586,263.244 463.504,261.755 463.904,260.245 C 464.466,258.126 465.320,257.431 467.651,257.199 C 471.344,256.831 473.006,258.630 473.691,263.735 C 474.297,268.250 477.092,270 483.699,270 C 485.133,270 486.566,270 488,270 C 488,267.156 488,264.313 488,261.469 C 488,255.398 487.626,252.794 486.702,252.439 ZM 482.559,272 C 479.566,272 476.840,271.550 476.500,271 C 476.160,270.450 475.009,270 473.941,270 C 472.873,270 472,270.450 472,271 C 472,271.578 468.833,272 464.500,272 C 462,272 459.500,272 457,272 C 457,274.988 457,277.977 457,280.965 C 457,288.805 457.242,290.060 458.934,290.965 C 461.717,292.455 485.285,292.315 486.800,290.800 C 487.552,290.049 488,286.311 488,280.800 C 488,277.867 488,274.933 488,272 C 486.186,272 484.373,272 482.559,272 Z" fill="#232323" stroke="none" />
  <path id="53" d="M 733,250 C 723.185,268.212 719.696,273.624 718.913,273.776 C 718.130,273.928 714.806,271.340 711.526,268.026 C 708.246,264.712 705.084,262 704.500,262 C 703.916,262 700.766,264.700 697.500,268 C 694.234,271.300 691.005,274 690.325,274 C 689.084,274 682.905,264.104 678.405,254.912 C 677.603,253.275 676.802,251.637 676,250 C 675.667,249 675.333,248 675,247 C 678.667,244 682.333,241 686,238 C 687,238.333 688,238.667 689,239 C 690.365,241.712 693.798,245.608 697.509,249.406 C 699.758,251.708 702.008,254.010 704.257,256.312 C 706.714,253.593 709.171,250.875 711.628,248.156 C 714.085,245.437 716.543,242.719 719,240 C 720.333,239.333 721.667,238.667 723,238 C 726,240.667 729,243.333 732,246 C 732.333,247.333 732.667,248.667 733,250 ZM 693.528,250.750 C 689.466,246.488 685.730,243 685.226,243 C 683.597,243 681,246.596 681,248.851 C 681,251.314 688.343,266.476 690.045,267.528 C 691.112,268.188 700.100,261.329 700.642,259.442 C 700.791,258.924 697.590,255.012 693.528,250.750 ZM 725.474,244.975 C 724.632,244.184 723.790,243.393 722.948,242.602 C 720.457,245.077 717.965,247.551 715.474,250.026 C 711.363,254.109 708,257.930 708,258.517 C 708,260.350 716.781,268.298 718.203,267.752 C 719.733,267.165 728,251.245 728,248.886 C 728,248.041 726.863,246.280 725.474,244.975 Z" fill="#D4645F" stroke="none" />
  <path id="12" d="M 921.724,162.448 C 922.767,162.848 922.987,166.904 922.772,181.727 C 922.681,187.985 922.591,194.242 922.500,200.500 C 917.500,200.500 912.500,200.500 907.500,200.500 C 902.500,200.500 897.500,200.500 892.500,200.500 C 892.500,194.167 892.500,187.833 892.500,181.500 C 892.500,175.167 892.500,168.833 892.500,162.500 C 897.151,162.407 901.801,162.313 906.452,162.220 C 914.126,162.066 920.998,162.169 921.724,162.448 ZM 896.765,169.400 C 895.456,171.361 895.957,176.294 897.655,178.171 C 901.342,182.245 910,179.126 910,173.723 C 910,166.855 900.530,163.761 896.765,169.400 Z" fill="#FFFFFF" stroke="none" />
  <path id="12" d="M 899.822,482.222 C 900.715,483.115 900.971,488.293 900.772,501.472 C 900.681,507.481 900.591,513.491 900.500,519.500 C 895.500,519.500 890.500,519.500 885.500,519.500 C 880.500,519.500 875.500,519.500 870.500,519.500 C 870.409,513.544 870.317,507.587 870.226,501.631 C 870.037,489.299 870.308,483.334 871.099,482.381 C 872.639,480.526 897.985,480.385 899.822,482.222 ZM 874.624,486.709 C 874.234,487.099 874.047,490.136 874.208,493.459 C 874.305,495.473 874.403,497.486 874.500,499.500 C 878.250,499.594 882,499.689 885.750,499.783 C 889.500,499.877 893.250,499.971 897,500.065 C 897,497.721 897,495.377 897,493.033 C 897,490.689 897,488.344 897,486 C 893.389,486 889.778,486 886.167,486 C 880.209,486 875.014,486.319 874.624,486.709 Z" fill="#FFFFFF" stroke="none" />
  <path id="12" d="M 859.588,218 C 860.643,218 859.519,220.686 853.031,233.659 C 849.198,241.324 844.527,249.371 842.650,251.542 C 841.513,252.858 840.375,254.174 839.238,255.490 C 836.431,254.576 833.624,253.661 830.817,252.747 C 828.010,251.833 825.204,250.919 822.397,250.005 C 821.813,248.380 821.228,246.755 820.644,245.130 C 819.052,240.704 816.062,224.219 816.018,219.628 C 815.989,216.552 818.799,219.599 820.150,224.107 C 821.343,228.090 822.190,229.146 827.743,233.578 C 829.527,235.001 831.457,237.591 832.032,239.333 C 833.363,243.364 833.937,243.326 834.605,239.162 C 835.070,236.261 834.635,235.344 831.293,232.162 C 830.011,230.941 828.728,229.721 827.446,228.500 C 828.590,224.083 829.734,219.667 830.878,215.250 C 834.479,201.345 836.777,197.707 835.614,207.750 C 835.248,210.913 834.672,215.863 834.334,218.750 C 833.829,223.064 833.993,224 835.251,224 C 836.289,224 838.152,220.301 841.043,212.500 C 843.801,205.056 845.817,201 846.759,201 C 847.559,201 848.005,201.562 847.750,202.250 C 845.441,208.472 841.039,225.254 841.514,226.023 C 842.875,228.226 844.249,226.545 848.475,217.500 C 850.916,212.275 853.383,208 853.957,208 C 855.407,208 855.264,209.457 853.387,213.782 C 850.331,220.823 847,229.381 847,230.190 C 847,232.791 850.514,230.138 854.537,224.500 C 857.088,220.925 859.361,218 859.588,218 Z" fill="#FFFFFF" stroke="none" />
  <path id="53" d="M 455,519 C 485.479,504.718 489.748,503.528 510.500,503.535 C 529.718,503.541 534.928,504.762 565.017,516.300 C 587.254,524.827 594.443,527.077 608.519,529.920 C 620.844,532.409 641.562,533.511 648.750,532.060 C 650.500,531.707 652.250,531.353 654,531 C 654,532.667 654,534.333 654,536 C 605.680,535.023 601.858,534.327 562.761,519.392 C 541.681,511.339 531.261,508.316 519.774,506.919 C 502.260,504.790 481.608,509.313 464.723,518.977 C 456.952,523.425 456.486,523.884 456.250,527.341 C 456.167,528.561 456.083,529.780 456,531 C 454.908,525.024 454.714,524.879 453.426,526.360 C 452.951,526.907 452.475,527.453 452,528 C 435.125,540.736 422.046,555.590 409.271,576.525 C 403.828,585.445 401,588.115 401,584.334 C 401,582.146 408.633,569.856 417.287,558.109 C 425.037,547.590 438.797,532.895 446.147,527.290 C 448.816,525.254 451,523.006 451,522.294 C 451,521.863 451,521.432 451,521 C 453.192,521.890 454.089,521.441 454.413,520.573 C 454.609,520.049 454.804,519.524 455,519 Z" fill="#D4645F" stroke="none" />
  <path id="12" d="M 684.268,646.250 C 685.089,655.368 684.951,659.649 683.800,660.800 C 681.983,662.617 629,662.511 629,660.691 C 629,657.955 631.899,655.814 644.810,649.012 C 649.247,646.675 653.683,644.337 658.120,642 C 662.414,642 666.709,642 671.003,642 C 675.297,642 679.591,642 683.885,642 C 684.013,643.417 684.140,644.833 684.268,646.250 Z" fill="#FFFFFF" stroke="none" />
  <path id="12" d="M 640.657,454.951 C 641.887,459.103 642.917,463.288 642.946,464.250 C 643.046,467.505 641.047,466.026 638.468,460.936 C 632.339,448.840 628.689,462.486 633.616,479.077 C 635.401,485.088 634.754,488.718 632.454,485.594 C 630.881,483.457 628.524,475.678 627.501,469.250 C 626.782,464.734 623.988,463.131 624.015,467.250 C 624.030,469.543 626.292,479.876 627.572,483.500 C 628.234,485.373 628.131,485.359 625.950,483.283 C 624.343,481.753 623.053,478.502 621.784,472.783 C 620.773,468.227 619.679,464.725 619.354,465 C 619.028,465.275 618.803,468.332 618.853,471.792 C 618.903,475.264 618.543,477.835 618.049,477.530 C 617.176,476.990 616.786,475.477 615.517,467.722 C 615.123,465.314 614.497,464.194 613.789,464.631 C 612.383,465.500 613.525,445.755 615.046,442.914 C 615.937,441.248 617.226,441 624.967,441 C 633.835,441 633.871,441.011 636.143,444.201 C 637.396,445.961 639.428,450.799 640.657,454.951 Z" fill="#FFFFFF" stroke="none" />
  <path id="12" d="M 778.943,659.374 C 779.205,660.083 779.468,660.791 779.730,661.500 C 770.899,661.589 762.068,661.678 753.237,661.767 C 734.532,661.955 726.341,661.698 725.372,660.894 C 724.458,660.136 724.005,657.540 724.014,653.128 C 724.038,641.329 723.151,642 738.712,642 C 750.279,642 752.568,642.266 754.846,643.875 C 756.306,644.906 760.875,647.437 765,649.500 C 774.496,654.249 777.952,656.697 778.943,659.374 Z" fill="#FFFFFF" stroke="none" />
  <path id="55" d="M 811,419 C 812.311,419 816.200,413.712 820.487,407.250 C 840.595,376.941 863.148,352 870.447,352 C 870.965,352 871.482,352 872,352 C 872,353 872,354 872,355 C 855.805,365.174 846.274,376.107 821.001,413.500 C 796.649,449.531 789.461,458.714 772.575,475.369 C 764.284,483.547 757.162,490.185 756.750,490.119 C 756.500,490.079 756.250,490.040 756,490 C 755.667,489 755.333,488 755,487 C 779.582,463.398 786.531,455.615 793.831,445.797 C 799.435,438.260 805.140,430.048 806.510,427.547 C 807.340,426.031 808.170,424.516 809,423 C 809.667,421.667 810.333,420.333 811,419 Z" fill="#D86D68" stroke="none" />
  <path id="12" d="M 482.559,272 C 484.373,272 486.186,272 488,272 C 488,274.933 488,277.867 488,280.800 C 488,286.311 487.552,290.049 486.800,290.800 C 485.285,292.315 461.717,292.455 458.934,290.965 C 457.242,290.060 457,288.805 457,280.965 C 457,277.977 457,274.988 457,272 C 459.500,272 462,272 464.500,272 C 468.833,272 472,271.578 472,271 C 472,270.450 472.873,270 473.941,270 C 475.009,270 476.160,270.450 476.500,271 C 476.840,271.550 479.566,272 482.559,272 ZM 462.580,277.750 C 462.166,278.163 466.627,278.628 472.494,278.785 C 479.656,278.976 482.950,278.730 482.521,278.035 C 481.789,276.851 463.743,276.593 462.580,277.750 Z" fill="#FFFFFF" stroke="none" />
  <path id="12" d="M 710,516 C 706,517.333 702,518.667 698,520 C 698.853,505.667 699.706,491.333 700.559,477 C 702.496,444.461 703.424,434 704.377,434 C 705.333,434 706.161,443.869 710,516 Z" fill="#FFFFFF" stroke="none" />
  <path id="12" d="M 689,239 C 689,237.464 689,235.929 689,234.393 C 689,230.389 689.229,229.883 690.750,230.528 C 699.918,234.415 705.653,234.915 713.591,232.517 C 715.227,232.023 716.864,231.528 718.500,231.034 C 718.667,234.023 718.833,237.011 719,240 C 716.543,242.719 714.085,245.437 711.628,248.156 C 709.171,250.875 706.714,253.593 704.257,256.312 C 702.008,254.010 699.758,251.708 697.509,249.406 C 693.798,245.608 690.365,241.712 689,239 Z" fill="#FFFFFF" stroke="none" />
  <path id="49" d="M 456,531 C 458.858,564.341 470.411,604.922 485.741,635.472 C 489.586,643.134 490.022,644.584 488.723,645.403 C 487.488,646.182 486.360,644.685 482.720,637.431 C 468.432,608.959 456.234,568.061 453.054,537.970 C 452.703,534.647 452.351,531.323 452,528 C 452.475,527.453 452.951,526.907 453.426,526.360 C 454.714,524.879 454.908,525.024 456,531 Z" fill="#232323" stroke="none" />
  <path id="12" d="M 486.702,252.439 C 487.626,252.794 488,255.398 488,261.469 C 488,264.313 488,267.156 488,270 C 486.566,270 485.133,270 483.699,270 C 477.092,270 474.297,268.250 473.691,263.735 C 473.006,258.630 471.344,256.831 467.651,257.199 C 465.320,257.431 464.466,258.126 463.904,260.245 C 463.504,261.755 463.586,263.244 464.088,263.554 C 464.590,263.864 465,263.246 465,262.181 C 465,261.116 465.645,259.710 466.433,259.056 C 468.453,257.379 472,261.088 472,264.878 C 472,268.871 470.461,269.726 463.213,269.761 C 461.117,269.771 459.021,269.781 456.925,269.791 C 457.021,266.909 457.117,264.028 457.213,261.146 C 457.309,258.264 457.404,255.382 457.500,252.500 C 462.151,252.407 466.801,252.313 471.452,252.220 C 479.126,252.066 485.988,252.165 486.702,252.439 Z" fill="#FFFFFF" stroke="none" />
  <path id="49" d="M 874.624,486.709 C 875.014,486.319 880.209,486 886.167,486 C 889.778,486 893.389,486 897,486 C 897,488.344 897,490.689 897,493.033 C 897,495.377 897,497.721 897,500.065 C 893.250,499.971 889.500,499.877 885.750,499.783 C 882,499.689 878.250,499.594 874.500,499.500 C 874.403,497.486 874.305,495.473 874.208,493.459 C 874.047,490.136 874.234,487.099 874.624,486.709 ZM 885.500,488 C 882.333,488 879.167,488 876,488 C 876,489.667 876,491.333 876,493 C 876,494.667 876,496.333 876,498 C 879.167,498 882.333,498 885.500,498 C 888.667,498 891.833,498 895,498 C 895,496.333 895,494.667 895,493 C 895,491.333 895,489.667 895,488 C 891.833,488 888.667,488 885.500,488 Z" fill="#232323" stroke="none" />
  <path id="12" d="M 725.474,244.975 C 726.863,246.280 728,248.041 728,248.886 C 728,251.245 719.733,267.165 718.203,267.752 C 716.781,268.298 708,260.350 708,258.517 C 708,257.930 711.363,254.109 715.474,250.026 C 717.965,247.551 720.457,245.077 722.948,242.602 C 723.790,243.393 724.632,244.184 725.474,244.975 Z" fill="#FFFFFF" stroke="none" />
  <path id="12" d="M 841,269 C 832.333,266 823.667,263 815,260 C 815.349,258.660 815.697,257.320 816.046,255.980 C 816.395,254.640 816.743,253.301 817.092,251.961 C 821.160,253.267 825.228,254.573 829.296,255.879 C 833.364,257.185 837.432,258.491 841.500,259.797 C 841.333,262.865 841.167,265.932 841,269 Z" fill="#FFFFFF" stroke="none" />
  <path id="12" d="M 610,429 C 619,429 628,429 637,429 C 636.785,430.250 636.571,431.500 636.356,432.750 C 636.002,434.812 635.214,436.831 634.606,437.235 C 633.998,437.639 628.213,437.977 621.750,437.985 C 617.833,437.990 613.917,437.995 610,438 C 610,435 610,432 610,429 Z" fill="#FFFFFF" stroke="none" />
  <path id="12" d="M 693.528,250.750 C 697.590,255.012 700.791,258.924 700.642,259.442 C 700.100,261.329 691.112,268.188 690.045,267.528 C 688.343,266.476 681,251.314 681,248.851 C 681,246.596 683.597,243 685.226,243 C 685.730,243 689.466,246.488 693.528,250.750 Z" fill="#FFFFFF" stroke="none" />
  <path id="12" d="M 885.500,488 C 888.667,488 891.833,488 895,488 C 895,489.667 895,491.333 895,493 C 895,494.667 895,496.333 895,498 C 891.833,498 888.667,498 885.500,498 C 882.333,498 879.167,498 876,498 C 876,496.333 876,494.667 876,493 C 876,491.333 876,489.667 876,488 C 879.167,488 882.333,488 885.500,488 Z" fill="#FFFFFF" stroke="none" />
  <path id="52" d="M 872,352 C 873.743,348.348 882.352,344.456 892.330,342.808 C 918.428,338.498 947.235,357.364 969.733,393.500 C 980.322,410.507 994.881,442.262 993.609,445.576 C 992.391,448.749 990.412,446.123 985.954,435.417 C 978.908,418.496 971.689,404.417 964.554,393.683 C 947.876,368.592 933.430,355.832 914.490,349.458 C 907.366,347.060 905.470,346.825 897,347.286 C 887.981,347.776 877.885,350.634 873.390,353.969 C 872.927,354.313 872.463,354.656 872,355 C 872,354 872,353 872,352 Z" fill="#D3635E" stroke="none" />
  <path id="53" d="M 610,425 C 619,424.667 628,424.333 637,424 C 637,425.667 637,427.333 637,429 C 628,429 619,429 610,429 C 610,427.667 610,426.333 610,425 Z" fill="#D4645F" stroke="none" />
  <path id="53" d="M 840,273 C 831,270 822,267 813,264 C 813.667,262.667 814.333,261.333 815,260 C 823.667,263 832.333,266 841,269 C 840.667,270.333 840.333,271.667 840,273 Z" fill="#D4645F" stroke="none" />
  <path id="49" d="M 576.314,211.174 C 579.277,208.391 583.360,208.397 585.961,211.189 C 588.712,214.142 588.528,217.563 585.450,220.641 C 583.480,222.611 582.285,223.046 580.200,222.553 C 574.314,221.161 572.217,215.023 576.314,211.174 ZM 582.554,212.659 C 582.036,212.460 581.518,212.262 581,212.063 C 580.482,212.262 579.964,212.460 579.446,212.659 C 578.462,213.037 578.003,214.217 578.196,215.878 C 578.434,217.927 579.046,218.500 581,218.500 C 582.954,218.500 583.566,217.927 583.804,215.878 C 583.997,214.217 583.538,213.037 582.554,212.659 Z" fill="#232323" stroke="none" />
  <path id="49" d="M 922.798,273.625 C 925.100,272.203 953.308,261.975 953.740,262.407 C 955.383,264.050 951.589,266.242 938.321,271.312 C 930.133,274.441 923.112,277 922.717,277 C 921.739,277 921.805,274.238 922.798,273.625 Z" fill="#232323" stroke="none" />
  <path id="49" d="M 785.934,104.035 C 788.529,102.646 792.326,102.726 793.800,104.200 C 795.512,105.912 795.284,111.574 793.429,113.429 C 791.322,115.536 787.686,115.415 785.655,113.171 C 783.338,110.611 783.499,105.338 785.934,104.035 Z" fill="#232323" stroke="none" />
  <path id="49" d="M 693.581,209.752 C 693.901,209.432 696.038,210.022 698.331,211.063 C 703.339,213.337 706.917,213.479 711.451,211.585 C 714.736,210.213 716,210.389 716,212.218 C 716,213.668 709.347,216.002 705.282,215.978 C 703.202,215.966 699.588,215.088 697.250,214.027 C 693.226,212.201 692.259,211.074 693.581,209.752 Z" fill="#232323" stroke="none" />
  <path id="49" d="M 552.798,148.625 C 554.108,147.815 555.298,148.985 565.371,160.981 C 574.314,171.631 575.990,174.500 573.269,174.500 C 572.190,174.500 552.025,151.081 552.009,149.809 C 552.004,149.429 552.359,148.896 552.798,148.625 Z" fill="#232323" stroke="none" />
  <path id="49" d="M 896.765,169.400 C 900.530,163.761 910,166.855 910,173.723 C 910,179.126 901.342,182.245 897.655,178.171 C 895.957,176.294 895.456,171.361 896.765,169.400 ZM 906,170 C 903.592,167.592 901.678,167.464 899.571,169.571 C 897.706,171.436 897.517,175.117 899.200,176.800 C 900.883,178.483 904.564,178.294 906.429,176.429 C 908.536,174.322 908.408,172.408 906,170 Z" fill="#232323" stroke="none" />
  <path id="12" d="M 906,170 C 908.408,172.408 908.536,174.322 906.429,176.429 C 904.564,178.294 900.883,178.483 899.200,176.800 C 897.517,175.117 897.706,171.436 899.571,169.571 C 901.678,167.464 903.592,167.592 906,170 Z" fill="#FFFFFF" stroke="none" />
  <path id="54" d="M 711,519 C 702.088,522.196 699.162,523.096 698.750,523.062 C 698.500,523.041 698.250,523.021 698,523 C 698,522 698,521 698,520 C 702,518.667 706,517.333 710,516 C 710.333,517 710.667,518 711,519 Z" fill="#D06965" stroke="none" />
  <path id="49" d="M 705.604,199.825 C 706.968,198.461 707.042,197.266 706.127,191.387 C 705.451,187.047 705.410,184.190 706.014,183.586 C 707.557,182.043 708.160,183.461 709.285,191.269 C 710.417,199.129 710.007,201.676 707.455,202.655 C 705.017,203.590 703.760,201.669 705.604,199.825 Z" fill="#232323" stroke="none" />
  <path id="12" d="M 672.163,186.601 C 673.160,187.217 673.305,201 672.314,201 C 671.937,201 670.587,200.022 669.314,198.826 C 666.181,195.883 666.099,189.744 669.163,187.598 C 670.353,186.765 671.703,186.316 672.163,186.601 Z" fill="#FFFFFF" stroke="none" />
  <path id="49" d="M 422.571,366.571 C 425.824,363.318 430,365.338 430,370.165 C 430,372.750 427.737,375 425.137,375 C 423.494,375 421,371.985 421,370 C 421,368.979 421.707,367.435 422.571,366.571 Z" fill="#232323" stroke="none" />
  <path id="49" d="M 826.189,557.039 C 832.315,551.332 841.171,559.699 835.984,566.293 C 834.536,568.134 832.918,569 830.927,569 C 824.743,569 821.672,561.247 826.189,557.039 ZM 833.333,559.667 C 832.203,558.537 829.304,558.928 828.105,560.373 C 825.768,563.189 829.811,567.232 832.627,564.895 C 834.072,563.696 834.463,560.797 833.333,559.667 Z" fill="#232323" stroke="none" />
  <path id="12" d="M 582.554,212.659 C 583.538,213.037 583.997,214.217 583.804,215.878 C 583.566,217.927 582.954,218.500 581,218.500 C 579.046,218.500 578.434,217.927 578.196,215.878 C 578.003,214.217 578.462,213.037 579.446,212.659 C 579.964,212.460 580.482,212.262 581,212.063 C 581.518,212.262 582.036,212.460 582.554,212.659 Z" fill="#FFFFFF" stroke="none" />
  <path id="12" d="M 740.645,188.529 C 742.631,191.245 742.328,196.393 740.063,198.443 C 737.201,201.033 736,199.547 736,193.410 C 736,187.307 738.122,185.078 740.645,188.529 Z" fill="#FFFFFF" stroke="none" />
  <path id="41" d="M 687.501,178 C 691.692,176.617 696,177.386 696,179.519 C 696,180.585 694.740,181.042 691.500,181.150 C 689.025,181.233 686.475,181.345 685.833,181.400 C 682.984,181.644 684.244,179.075 687.501,178 Z" fill="#222022" stroke="none" />
  <path id="49" d="M 715.540,177.623 C 718.314,176.559 722.530,176.936 724.559,178.429 C 726.288,179.702 726.321,179.927 724.864,180.492 C 722.371,181.459 714.704,180.648 714.285,179.373 C 714.082,178.753 714.647,177.966 715.540,177.623 Z" fill="#232323" stroke="none" />
  <path id="12" d="M 833.333,559.667 C 834.463,560.797 834.072,563.696 832.627,564.895 C 829.811,567.232 825.768,563.189 828.105,560.373 C 829.304,558.928 832.203,558.537 833.333,559.667 Z" fill="#FFFFFF" stroke="none" />
  <path id="49" d="M 462.580,277.750 C 463.743,276.593 481.789,276.851 482.521,278.035 C 482.950,278.730 479.656,278.976 472.494,278.785 C 466.627,278.628 462.166,278.163 462.580,277.750 Z" fill="#232323" stroke="none" />
  <path id="49" d="M 719.030,185.481 C 719.659,185.092 720.627,185.227 721.181,185.781 C 722.602,187.202 721.766,190.500 719.986,190.500 C 718.188,190.500 717.422,186.475 719.030,185.481 Z" fill="#232323" stroke="none" />
  <path id="41" d="M 690.030,185.481 C 690.659,185.092 691.627,185.227 692.181,185.781 C 693.602,187.202 692.766,190.500 690.986,190.500 C 689.188,190.500 688.422,186.475 690.030,185.481 Z" fill="#222022" stroke="none" />
</svg>
