<?xml version="1.0" encoding="UTF-8"?>
<svg width="1408" height="768" viewBox="0 0 1408 768" xmlns="http://www.w3.org/2000/svg">
  <path id="18" d="M 0,768 C 0,512 0,256 0,0 C 469.333,0 938.667,0 1408,0 C 1408,256 1408,512 1408,768 C 938.667,768 469.333,768 0,768 ZM 776,396 C 771.988,394.480 767.975,392.959 763.963,391.439 C 759.950,389.919 755.938,388.398 751.925,386.878 C 752.771,385.873 753.617,384.867 754.463,383.862 C 759.113,378.336 756.894,371.218 750,369.540 C 748.472,369.168 741.794,370.501 732.828,372.966 C 717.074,377.298 712.561,377.815 710.079,375.575 C 709.211,374.791 694.947,368.306 678.383,361.163 C 642.537,345.706 640.959,344.929 637.789,341.161 C 636.434,339.551 630.578,329.969 624.776,319.867 C 615.401,303.546 614.089,300.665 612.992,294 C 610.735,280.288 606.065,267.881 600.249,260.135 C 597.777,256.843 597.750,256.624 598.997,250.013 C 599.422,247.761 599.847,245.508 600.272,243.256 C 602.231,243.051 604.189,242.847 606.148,242.642 C 609.380,242.304 613.706,241.160 615.762,240.099 C 619.617,238.109 625.474,232.401 628.190,227.986 C 632.724,220.618 636.844,204.140 638.519,186.685 C 639.003,181.638 639.604,179.716 640.836,179.273 C 650.874,175.664 655.928,161.231 650.750,150.962 C 650,149.475 649.250,147.987 648.500,146.500 C 645.667,146.499 642.833,146.498 640,146.497 C 632.054,146.494 630.802,146.186 620.774,141.776 C 607.311,135.855 599.357,134.251 591.393,135.850 C 584.828,137.168 580.627,139.701 577,144.525 C 575.395,146.660 573.317,148.076 571.194,148.481 C 566.518,149.373 560.630,155.640 558.370,162.130 C 556.912,166.316 556.502,170.366 556.508,180.500 C 556.517,195.026 557.693,200.344 563.668,212.860 C 567.571,221.036 567.575,221.766 563.791,234.816 C 561.907,241.314 561.195,242.458 557.423,245.053 C 555.087,246.660 551.176,250.343 548.731,253.237 C 539.063,264.682 517.428,299.237 507.258,319.477 C 494.157,345.550 494.962,356.014 512.110,382.564 C 514.061,385.585 516.013,388.606 517.964,391.627 C 517.797,399.272 517.631,406.919 517.464,414.564 C 517.189,427.179 517.425,446.725 517.989,458 C 520.393,506.060 520.429,513.999 518.270,520 C 517.182,523.025 508.662,538.100 499.338,553.500 C 467.883,605.451 467.101,607.021 470.395,611.526 C 471.663,613.260 471.145,614.256 464.693,622.467 C 458.308,630.593 457.593,631.952 457.574,636 C 457.567,637.500 457.559,639 457.552,640.500 C 462.340,644.734 467.130,648.969 471.918,653.203 C 479.819,660.190 487.907,666.700 489.892,667.669 C 492.891,669.134 496.334,669.437 510.282,669.466 C 529.205,669.505 528.961,669.602 528.981,662 C 529.001,654.191 523.233,647.772 515,646.439 C 508.629,645.408 506.948,644.205 505.358,639.538 C 504.853,638.056 504.348,636.573 503.843,635.091 C 506.279,634.993 508.716,634.893 511.152,634.795 C 513.588,634.696 516.025,634.598 518.461,634.500 C 520.893,630.667 523.325,626.833 525.757,623 C 543.296,595.353 560.311,563.403 565.972,547.489 C 567.731,542.545 570.775,531.975 572.738,524 C 573.927,519.167 575.117,514.333 576.306,509.500 C 577.267,512.333 578.227,515.167 579.188,518 C 585.111,535.468 585.233,537.003 584.850,589.093 C 584.733,604.957 584.617,620.821 584.500,636.685 C 585.513,637.210 586.526,637.734 587.539,638.259 C 588.552,638.784 589.565,639.308 590.578,639.833 C 590.315,642.944 590.051,646.056 589.788,649.167 C 588.839,660.379 589.463,665.204 592.177,667.661 C 594.063,669.369 596.583,669.500 627.521,669.500 C 638.625,669.500 649.730,669.500 660.834,669.500 C 661.072,668.553 661.310,667.606 661.548,666.659 C 662.575,662.571 660.560,656.931 656.776,653.302 C 654.974,651.574 648.712,648.072 642.861,645.521 C 637.010,642.970 631.394,640.277 630.382,639.537 C 628.617,638.246 628.634,638.116 630.812,636.346 C 631.569,635.731 632.326,635.115 633.083,634.500 C 633.152,614.833 633.223,595.167 633.292,575.500 C 633.361,555.833 633.431,536.167 633.500,516.500 C 629.946,498.833 626.391,481.167 622.837,463.500 C 613.303,416.111 612.117,409.037 611.628,396.676 C 611.446,392.068 611.263,387.459 611.081,382.851 C 614.151,384.352 617.221,385.852 620.291,387.353 C 629.971,392.085 664.297,405.101 684.274,411.613 C 694.552,414.964 696.318,415.283 698.172,414.125 C 700.140,412.896 700.934,413.414 709.057,421.228 C 723.759,435.371 736.609,440.481 742.545,434.545 C 743.895,433.195 745,431.630 745,431.066 C 745,430.502 746.832,429.106 749.072,427.963 C 751.754,426.595 753.503,424.857 754.195,422.872 C 754.776,421.205 756.327,419.446 757.664,418.938 C 758.994,418.432 760.851,416.626 761.791,414.924 C 763.403,412.006 763.684,411.892 770,414 C 770.483,415.398 770.967,416.797 771.450,418.195 C 774.136,425.964 779.501,430.981 787.396,433.107 C 796.586,435.582 807.889,429.821 812.134,420.500 C 814.507,415.289 814.498,406.694 812.114,401.444 C 808.252,392.941 797.852,387.200 788.903,388.631 C 786.570,389.004 782.893,390.739 776,396 ZM 698,134.859 C 697.558,137.412 697.270,170.100 697.360,207.500 C 697.494,263.079 697.780,276.139 698.921,279 C 702.579,288.167 710.293,295.600 718.519,297.884 C 721.250,298.642 744.535,298.990 792.712,298.994 C 860.446,298.999 863.114,298.929 868.262,297.003 C 874.570,294.643 880.916,288.727 884.181,282.163 C 884.954,280.609 885.727,279.054 886.500,277.500 C 886.500,253.333 886.500,229.167 886.500,205 C 886.500,180.833 886.500,156.667 886.500,132.500 C 885.705,130.740 884.909,128.981 884.114,127.221 C 882.691,124.073 879.752,120.165 876.834,117.541 C 868.017,109.614 871.550,109.913 790.415,110.224 C 766.444,110.316 742.471,110.408 718.500,110.500 C 717.070,111.264 715.638,112.027 714.208,112.791 C 705.455,117.465 699.641,125.382 698,134.859 ZM 698.424,430.063 C 696.943,431.292 696.817,433.713 697.259,452.471 C 697.811,475.910 698.648,479.893 704.445,486.665 C 706.280,488.809 710.194,491.900 713.141,493.532 C 714.927,494.521 716.714,495.511 718.500,496.500 C 743.167,496.500 767.833,496.500 792.500,496.500 C 817.167,496.500 841.833,496.500 866.500,496.500 C 867.898,495.753 869.296,495.005 870.694,494.258 C 876.174,491.329 881.382,485.888 884.220,480.127 C 884.980,478.585 885.740,477.042 886.500,475.500 C 886.500,454.167 886.500,432.833 886.500,411.500 C 886.500,348.537 886.466,347.426 884.394,342.949 C 881.316,336.296 876.619,331.451 870.182,328.290 C 868.288,327.360 866.394,326.430 864.500,325.500 C 840.333,325.500 816.167,325.500 792,325.500 C 725.319,325.500 719.192,325.639 715.662,327.236 C 705.046,332.037 698,342.379 698,353.160 C 698,358.091 698.277,359 699.779,359 C 701.213,359 701.775,357.617 702.680,351.871 C 704.047,343.189 707.484,337.832 714.452,333.524 C 716.082,332.516 717.713,331.508 719.343,330.500 C 743.536,330.500 767.728,330.500 791.921,330.500 C 816.114,330.500 840.307,330.500 864.500,330.500 C 865.865,331.230 867.230,331.961 868.595,332.691 C 873.811,335.482 878.299,340.592 880.412,346.145 C 881.903,350.062 882.041,356.792 881.785,413.079 C 881.690,433.939 881.595,454.799 881.500,475.659 C 880.491,477.290 879.483,478.922 878.474,480.553 C 876.599,483.585 873.585,486.599 870.553,488.474 C 868.922,489.483 867.289,490.491 865.658,491.500 C 841.965,491.596 818.272,491.693 794.579,491.789 C 743.035,491.999 722.344,491.760 719.292,490.921 C 713.741,489.394 707.734,484.127 704.838,478.247 C 702.646,473.795 702.480,472.160 702.174,452 C 701.995,440.175 701.451,430.091 700.966,429.592 C 700.441,429.052 699.413,429.242 698.424,430.063 ZM 763.624,428 C 760.723,428 761.870,431.903 766.127,436.522 C 774.759,445.886 789.367,450.028 801.558,446.566 C 828.620,438.881 837.461,406.170 818.028,385.623 C 810.611,377.780 803.048,374.564 792,374.552 C 784.913,374.545 782.561,374.980 777.852,377.170 C 770.695,380.498 767.414,383.590 769.006,385.508 C 769.951,386.646 771.292,386.249 776.823,383.191 C 783.058,379.744 784.062,379.501 792,379.514 C 799.239,379.526 801.247,379.921 805.540,382.175 C 811.700,385.409 818.458,392.552 821.290,398.824 C 824.459,405.841 824.256,416.714 820.817,424.148 C 817.641,431.014 811.399,437.465 805.149,440.341 C 797.955,443.652 785.244,443.387 778.377,439.783 C 775.559,438.304 771.453,435.048 769.251,432.547 C 767.050,430.046 764.517,428 763.624,428 ZM 907.021,208.966 C 905.810,210.926 906.572,212.135 911.143,215.500 C 917.609,220.259 929.461,233.376 935.362,242.303 C 949.543,263.755 956,284.936 956,310 C 956,341.756 945.130,368.840 921.905,394.948 C 913.528,404.365 913.500,404.385 913.560,400.948 C 913.593,399.052 913.982,394.913 914.425,391.750 C 915.185,386.323 915.113,386 913.134,386 C 911.774,386 910.863,386.791 910.540,388.250 C 909.030,395.072 907,407.607 907,410.110 C 907,411.073 907,412.037 907,413 C 911.103,413 915.206,413 919.309,413 C 928.056,413 932.152,412.610 933.462,411.652 C 936.878,409.154 934.258,408 925.172,408 C 922.269,408 919.366,408 916.463,408 C 918.889,405.417 921.315,402.833 923.741,400.250 C 933.815,389.523 942.336,377.309 947.983,365.500 C 956.590,347.501 959.895,334.248 960.724,314.403 C 962.242,278.083 947.266,242.036 920.243,216.972 C 911.415,208.784 908.299,206.897 907.021,208.966 Z" fill="#FFFFFF" stroke="none" />
  <path id="21" d="M 770,414 C 763.684,411.892 763.403,412.006 761.791,414.924 C 760.851,416.626 758.994,418.432 757.664,418.938 C 756.327,419.446 754.776,421.205 754.195,422.872 C 753.503,424.857 751.754,426.595 749.072,427.963 C 746.832,429.106 745,430.502 745,431.066 C 745,431.630 743.895,433.195 742.545,434.545 C 736.609,440.481 723.759,435.371 709.057,421.228 C 700.934,413.414 700.140,412.896 698.172,414.125 C 696.318,415.283 694.552,414.964 684.274,411.613 C 664.297,405.101 629.971,392.085 620.291,387.353 C 617.221,385.852 614.151,384.352 611.081,382.851 C 611.263,387.459 611.446,392.068 611.628,396.676 C 612.117,409.037 613.303,416.111 622.837,463.500 C 626.391,481.167 629.946,498.833 633.500,516.500 C 633.431,536.167 633.361,555.833 633.292,575.500 C 633.223,595.167 633.152,614.833 633.083,634.500 C 632.326,635.115 631.569,635.731 630.812,636.346 C 628.634,638.116 628.617,638.246 630.382,639.537 C 631.394,640.277 637.010,642.970 642.861,645.521 C 648.712,648.072 654.974,651.574 656.776,653.302 C 660.560,656.931 662.575,662.571 661.548,666.659 C 661.310,667.606 661.072,668.553 660.834,669.500 C 649.730,669.500 638.625,669.500 627.521,669.500 C 596.583,669.500 594.063,669.369 592.177,667.661 C 589.463,665.204 588.839,660.379 589.788,649.167 C 590.051,646.056 590.315,642.944 590.578,639.833 C 589.565,639.308 588.552,638.784 587.539,638.259 C 586.526,637.734 585.513,637.210 584.500,636.685 C 584.617,620.821 584.733,604.957 584.850,589.093 C 585.233,537.003 585.111,535.468 579.188,518 C 578.227,515.167 577.267,512.333 576.306,509.500 C 575.117,514.333 573.927,519.167 572.738,524 C 570.775,531.975 567.731,542.545 565.972,547.489 C 560.311,563.403 543.296,595.353 525.757,623 C 523.325,626.833 520.893,630.667 518.461,634.500 C 516.025,634.598 513.588,634.696 511.152,634.795 C 508.716,634.893 506.279,634.993 503.843,635.091 C 504.348,636.573 504.853,638.056 505.358,639.538 C 506.948,644.205 508.629,645.408 515,646.439 C 523.233,647.772 529.001,654.191 528.981,662 C 528.961,669.602 529.205,669.505 510.282,669.466 C 496.334,669.437 492.891,669.134 489.892,667.669 C 487.907,666.700 479.819,660.190 471.918,653.203 C 467.130,648.969 462.340,644.734 457.552,640.500 C 457.559,639 457.567,637.500 457.574,636 C 457.593,631.952 458.308,630.593 464.693,622.467 C 471.145,614.256 471.663,613.260 470.395,611.526 C 467.101,607.021 467.883,605.451 499.338,553.500 C 508.662,538.100 517.182,523.025 518.270,520 C 520.429,513.999 520.393,506.060 517.989,458 C 517.425,446.725 517.189,427.179 517.464,414.564 C 517.631,406.919 517.797,399.272 517.964,391.627 C 516.013,388.606 514.061,385.585 512.110,382.564 C 494.962,356.014 494.157,345.550 507.258,319.477 C 517.428,299.237 539.063,264.682 548.731,253.237 C 551.176,250.343 555.087,246.660 557.423,245.053 C 561.195,242.458 561.907,241.314 563.791,234.816 C 567.575,221.766 567.571,221.036 563.668,212.860 C 557.693,200.344 556.517,195.026 556.508,180.500 C 556.502,170.366 556.912,166.316 558.370,162.130 C 560.630,155.640 566.518,149.373 571.194,148.481 C 573.317,148.076 575.395,146.660 577,144.525 C 580.627,139.701 584.828,137.168 591.393,135.850 C 599.357,134.251 607.311,135.855 620.774,141.776 C 630.802,146.186 632.054,146.494 640,146.497 C 642.833,146.498 645.667,146.499 648.500,146.500 C 649.250,147.987 650,149.475 650.750,150.962 C 655.928,161.231 650.874,175.664 640.836,179.273 C 639.604,179.716 639.003,181.638 638.519,186.685 C 636.844,204.140 632.724,220.618 628.190,227.986 C 625.474,232.401 619.617,238.109 615.762,240.099 C 613.706,241.160 609.380,242.304 606.148,242.642 C 604.189,242.847 602.231,243.051 600.272,243.256 C 599.847,245.508 599.422,247.761 598.997,250.013 C 597.750,256.624 597.777,256.843 600.249,260.135 C 606.065,267.881 610.735,280.288 612.992,294 C 614.089,300.665 615.401,303.546 624.776,319.867 C 630.578,329.969 636.434,339.551 637.789,341.161 C 640.959,344.929 642.537,345.706 678.383,361.163 C 694.947,368.306 709.211,374.791 710.079,375.575 C 712.561,377.815 717.074,377.298 732.828,372.966 C 741.794,370.501 748.472,369.168 750,369.540 C 756.894,371.218 759.113,378.336 754.463,383.862 C 753.617,384.867 752.771,385.873 751.925,386.878 C 755.938,388.398 759.950,389.919 763.963,391.439 C 767.975,392.959 771.988,394.480 776,396 C 779.667,397.667 783.333,399.333 787,401 C 786.750,401.008 786.500,401.017 786.250,401.025 C 785.838,401.039 787.638,402.618 790.250,404.535 C 794.317,407.519 795,408.513 795,411.451 C 795,413.338 794.438,415.246 793.750,415.691 C 793.062,416.136 789.463,416.612 779,417 C 776,416 773,415 770,414 ZM 523.610,658.500 C 521.537,653.847 518.814,652.044 512.072,650.856 C 504.448,649.513 502.709,647.798 500.429,639.375 C 498.689,632.948 498.686,632.944 492.073,629.469 C 488.434,627.557 483.158,623.981 480.349,621.524 C 478.647,620.035 476.944,618.546 475.242,617.057 C 473.035,619.930 470.828,622.804 468.621,625.677 C 464.979,630.418 462,635.087 462,636.052 C 462,638.774 489.665,662.833 494.199,664.054 C 496.252,664.607 503.903,664.933 511.203,664.779 C 525.781,664.472 526.181,664.270 523.610,658.500 ZM 628.327,518.500 C 628.122,516.850 623.384,492.516 617.799,464.424 C 614.414,447.399 611.031,430.373 607.646,413.348 C 601.619,413.499 595.591,413.650 589.564,413.801 C 570.015,414.291 555.383,412.935 534.216,408.673 C 528.010,407.423 522.722,406.611 522.466,406.867 C 521.664,407.669 522.015,443.659 523.008,462.500 C 525.297,505.930 525.364,512.133 523.619,518.891 C 522.327,523.895 516.763,533.969 497.985,565.295 C 484.794,587.302 474,606.040 474,606.935 C 474,609.177 484.322,619.070 491,623.229 C 497.992,627.584 503.492,629.732 509.797,630.568 C 511.462,630.789 513.126,631.009 514.791,631.230 C 516.042,629.275 517.294,627.320 518.546,625.365 C 534.766,600.028 552.462,567.744 559.458,550.728 C 564,539.680 566.766,528.619 576.514,482.500 C 580.815,462.150 584.891,444.885 585.571,444.132 C 587.054,442.491 589.008,443.452 588.980,445.809 C 588.969,446.739 586.572,458.942 583.654,472.926 C 581.885,481.401 580.117,489.877 578.348,498.352 C 579.469,501.877 580.589,505.401 581.710,508.926 C 590.075,535.233 589.520,529.718 589.327,584.684 C 589.269,601.079 589.213,617.472 589.155,633.867 C 590.812,634.222 592.470,634.579 594.127,634.934 C 600.911,636.389 616.411,636.244 622.500,634.668 C 624.167,634.237 625.833,633.805 627.500,633.374 C 627.707,627.062 627.913,620.749 628.120,614.437 C 628.788,594.022 628.940,523.425 628.327,518.500 ZM 531.706,287 C 530.869,287 516.614,311.719 511.191,322.574 C 501.377,342.219 500.712,351.039 507.956,365.500 C 512.256,374.084 517.915,383.427 518.468,382.852 C 518.654,382.659 519.999,371.475 521.457,358 C 524.905,326.129 528.531,301.534 531.519,289.750 C 531.903,288.237 531.987,287 531.706,287 ZM 677.250,365.977 C 642.771,351.220 638.287,349.036 634.861,345.344 C 633.409,343.780 627.402,334.175 621.511,324 C 615.620,313.825 607.202,299.752 602.803,292.726 C 598.213,285.394 595.046,279.323 595.371,278.476 C 596.489,275.562 598.941,277.103 602.590,283.015 C 604.632,286.323 606.501,288.832 606.744,288.589 C 607.480,287.853 603.985,276.908 601.300,271.543 C 595.781,260.514 593.206,258.664 571.159,249.875 C 568.712,248.900 566.266,247.924 563.819,246.949 C 562.687,247.649 561.555,248.348 560.423,249.048 C 548.827,256.215 539.622,274.086 534.515,299.349 C 530.192,320.735 521.056,399.558 522.728,401.041 C 523.459,401.689 538.386,404.756 551.500,406.952 C 554.800,407.505 563.782,408.450 571.460,409.052 C 584.292,410.059 588.774,409.960 602.250,408.372 C 603.833,408.185 605.417,407.999 607,407.812 C 607,403.005 607,398.199 607,393.392 C 607,388.585 607,383.779 607,378.972 C 605.507,377.139 604.014,375.305 602.521,373.472 C 594.469,363.587 564.459,311.851 565.382,309.446 C 566.643,306.159 569.122,308.549 574.513,318.250 C 587.873,342.294 603.638,367.575 608.642,372.980 C 615.460,380.344 622.494,384.025 647.797,393.473 C 669.339,401.517 693.665,410 695.188,410 C 696.545,410 702.546,396.570 704.411,389.356 C 707.383,377.864 709.719,379.874 677.250,365.977 ZM 647.082,153.509 C 646.406,151.778 645.341,151.512 638.903,151.468 C 633.080,151.428 630.113,150.818 625,148.611 C 609.081,141.740 601.925,139.732 595.259,140.267 C 588.170,140.836 582.690,143.870 579.745,148.855 C 578.536,150.902 576.766,152.074 573.727,152.839 C 568.549,154.143 565.623,157.039 563.433,163.028 C 561.227,169.062 560.472,183.968 561.940,192.542 C 563.294,200.453 567.921,213.145 569.661,213.722 C 570.300,213.934 571.919,212.268 573.260,210.020 C 574.072,208.658 574.885,207.295 575.697,205.933 C 574.414,204.650 573.132,203.367 571.849,202.084 C 568.611,198.846 568,197.572 568,194.052 C 568,186.513 571.901,182.049 578.500,182.038 C 580.700,182.034 583.142,182.437 583.926,182.933 C 585.017,183.623 585.879,182.696 587.599,178.983 C 591.561,170.431 596.315,169.412 613.186,173.499 C 631.747,177.996 641.753,176.326 645.987,168.026 C 648.027,164.028 648.538,157.239 647.082,153.509 ZM 626.336,180.664 C 622.026,180.309 615.125,179.121 611,178.026 C 596.890,174.279 593.418,175.487 590.552,185.138 C 589.695,188.025 588.456,190.718 587.800,191.124 C 587.107,191.553 585.208,190.634 583.268,188.931 C 579.335,185.478 577.706,185.294 575,188 C 572.215,190.785 572.367,196.058 575.314,198.826 C 576.587,200.022 578.107,201 578.692,201 C 579.277,201 580.232,201.576 580.816,202.279 C 582.129,203.861 579.341,210.513 575.127,215.852 C 573.494,217.921 571.926,221.448 571.504,224 C 571.095,226.475 569.886,231.343 568.819,234.817 C 567.752,238.291 567.025,241.576 567.205,242.115 C 567.385,242.655 573.268,245.495 580.278,248.426 C 584.527,250.203 588.774,251.979 593.023,253.756 C 593.218,252.880 593.414,252.004 593.609,251.128 C 593.931,249.683 594.588,246.950 595.070,245.056 C 595.552,243.162 595.846,241.553 595.723,241.480 C 589.721,237.910 587.569,236.265 584.597,232.975 C 580.633,228.588 580.219,227.237 582.566,226.336 C 583.585,225.945 585.515,227.174 588.091,229.855 C 592.882,234.841 596.546,236.839 602.358,237.636 C 618.760,239.884 630.406,221.478 633.507,188.405 C 633.729,186.040 633.950,183.675 634.172,181.310 C 631.560,181.095 628.948,180.879 626.336,180.664 ZM 653.989,657.640 C 651.895,655.256 647.932,652.925 640.985,649.994 C 635.489,647.675 629.306,644.570 627.246,643.094 C 623.552,640.448 623.306,640.414 609.500,640.703 C 604.833,640.801 600.167,640.899 595.500,640.997 C 595.201,644.488 594.903,647.979 594.604,651.470 C 593.914,659.537 594,662.295 594.977,663.472 C 596.064,664.781 600.593,665 626.622,665 C 656.154,665 657,664.945 657,663.035 C 657,661.954 655.645,659.526 653.989,657.640 ZM 788.750,406.974 C 785.848,405.191 768.604,398.199 748.250,390.550 C 742.727,388.474 741,387.370 741,385.913 C 741,384.457 741.712,384 743.984,384 C 747.816,384 753.414,379.242 752.471,376.786 C 751.277,373.674 748.203,373.844 732.778,377.877 C 724.375,380.074 715.962,382.012 714.082,382.185 C 710.765,382.490 710.627,382.678 709.437,388.500 C 708.762,391.800 706.956,397.623 705.423,401.440 C 704.494,403.753 703.564,406.067 702.635,408.380 C 705.862,411.453 709.088,414.526 712.315,417.599 C 725.380,430.043 736.182,435.101 739.964,430.544 C 741.354,428.869 740.551,427 738.441,427 C 737.645,427 737,426.062 737,424.906 C 737,422.967 737.372,422.863 742.030,423.504 C 745.442,423.973 747.532,423.803 748.530,422.975 C 750.754,421.129 750.298,419.064 747.427,417.972 C 745.748,417.334 744.977,416.387 745.208,415.247 C 745.570,413.458 747.117,413.309 752.256,414.563 C 755.404,415.332 758,413.702 758,410.957 C 758,409.763 756.968,408.932 754.932,408.485 C 751.634,407.761 750.096,405.504 751.763,403.837 C 752.467,403.133 758.444,404.740 770.732,408.936 C 780.785,412.369 789.405,414.782 790.337,414.424 C 793.224,413.316 792.343,409.181 788.750,406.974 Z" fill="#1A1A1A" stroke="none" />
  <path id="21" d="M 698,134.859 C 699.641,125.382 705.455,117.465 714.208,112.791 C 715.638,112.027 717.070,111.264 718.500,110.500 C 742.471,110.408 766.444,110.316 790.415,110.224 C 871.550,109.913 868.017,109.614 876.834,117.541 C 879.752,120.165 882.691,124.073 884.114,127.221 C 884.909,128.981 885.705,130.740 886.500,132.500 C 886.500,156.667 886.500,180.833 886.500,205 C 886.500,229.167 886.500,253.333 886.500,277.500 C 885.727,279.054 884.954,280.609 884.181,282.163 C 880.916,288.727 874.570,294.643 868.262,297.003 C 863.114,298.929 860.446,298.999 792.712,298.994 C 744.535,298.990 721.250,298.642 718.519,297.884 C 710.293,295.600 702.579,288.167 698.921,279 C 697.780,276.139 697.494,263.079 697.360,207.500 C 697.270,170.100 697.558,137.412 698,134.859 ZM 879.649,129.493 C 877.109,124.038 871.537,118.540 866.355,116.375 C 863.668,115.252 850.054,115 792.146,115 C 768.507,115 744.867,115 721.228,115 C 719.446,115.931 717.664,116.862 715.882,117.793 C 709.134,121.318 704.500,127.276 703.042,134.299 C 702.276,137.986 702.020,160.670 702.216,207.570 C 702.310,230.213 702.406,252.857 702.500,275.500 C 703.285,277.079 704.070,278.659 704.855,280.238 C 707.524,285.610 712.665,290.535 717.927,292.762 C 723.354,295.059 861.299,294.664 867.120,292.335 C 871.990,290.386 879.619,282.033 880.970,277.169 C 881.617,274.838 881.988,248.151 881.985,204 C 881.984,180.833 881.981,157.667 881.980,134.500 C 881.203,132.831 880.426,131.162 879.649,129.493 Z" fill="#1A1A1A" stroke="none" />
  <path id="18" d="M 879.649,129.493 C 880.426,131.162 881.203,132.831 881.980,134.500 C 881.981,157.667 881.984,180.833 881.985,204 C 881.988,248.151 881.617,274.838 880.970,277.169 C 879.619,282.033 871.990,290.386 867.120,292.335 C 861.299,294.664 723.354,295.059 717.927,292.762 C 712.665,290.535 707.524,285.610 704.855,280.238 C 704.070,278.659 703.285,277.079 702.500,275.500 C 702.406,252.857 702.310,230.213 702.216,207.570 C 702.020,160.670 702.276,137.986 703.042,134.299 C 704.500,127.276 709.134,121.318 715.882,117.793 C 717.664,116.862 719.446,115.931 721.228,115 C 744.867,115 768.507,115 792.146,115 C 850.054,115 863.668,115.252 866.355,116.375 C 871.537,118.540 877.109,124.038 879.649,129.493 ZM 726.917,157.271 C 723.620,164.360 725.626,171.392 732.385,176.438 C 735.099,178.464 736.136,178.500 792.324,178.500 C 811.383,178.500 830.441,178.500 849.500,178.500 C 850.542,177.757 851.585,177.013 852.627,176.270 C 861.380,170.026 860.918,156.579 851.759,150.995 C 848.608,149.074 846.618,149.007 792,149.007 C 737.102,149.007 735.406,149.064 732.192,151.024 C 730.316,152.168 728.032,154.873 726.917,157.271 ZM 729.176,205.488 C 728.448,205.766 728.004,206.783 728.190,207.747 C 728.508,209.396 732.304,209.500 792.014,209.500 C 854.834,209.500 855.500,209.479 855.500,207.500 C 855.500,205.524 854.747,205.497 793,205.241 C 758.625,205.098 729.904,205.210 729.176,205.488 ZM 729.176,229.488 C 728.448,229.766 728.004,230.783 728.190,231.747 C 728.508,233.396 732.304,233.500 792.014,233.500 C 854.834,233.500 855.500,233.479 855.500,231.500 C 855.500,229.524 854.747,229.497 793,229.241 C 758.625,229.098 729.904,229.210 729.176,229.488 ZM 729.178,253.485 C 728.449,253.765 728.004,254.783 728.190,255.747 C 728.505,257.383 731.224,257.500 769.014,257.500 C 808.834,257.500 809.500,257.467 809.500,255.500 C 809.500,253.538 808.746,253.495 770.002,253.238 C 748.278,253.094 729.907,253.205 729.178,253.485 Z" fill="#FFFFFF" stroke="none" />
  <path id="18" d="M 628.327,518.500 C 628.940,523.425 628.788,594.022 628.120,614.437 C 627.913,620.749 627.707,627.062 627.500,633.374 C 625.833,633.805 624.167,634.237 622.500,634.668 C 616.411,636.244 600.911,636.389 594.127,634.934 C 592.470,634.579 590.812,634.222 589.155,633.867 C 589.213,617.472 589.269,601.079 589.327,584.684 C 589.520,529.718 590.075,535.233 581.710,508.926 C 580.589,505.401 579.469,501.877 578.348,498.352 C 580.117,489.877 581.885,481.401 583.654,472.926 C 586.572,458.942 588.969,446.739 588.980,445.809 C 589.008,443.452 587.054,442.491 585.571,444.132 C 584.891,444.885 580.815,462.150 576.514,482.500 C 566.766,528.619 564,539.680 559.458,550.728 C 552.462,567.744 534.766,600.028 518.546,625.365 C 517.294,627.320 516.042,629.275 514.791,631.230 C 513.126,631.009 511.462,630.789 509.797,630.568 C 503.492,629.732 497.992,627.584 491,623.229 C 484.322,619.070 474,609.177 474,606.935 C 474,606.040 484.794,587.302 497.985,565.295 C 516.763,533.969 522.327,523.895 523.619,518.891 C 525.364,512.133 525.297,505.930 523.008,462.500 C 522.015,443.659 521.664,407.669 522.466,406.867 C 522.722,406.611 528.010,407.423 534.216,408.673 C 555.383,412.935 570.015,414.291 589.564,413.801 C 595.591,413.650 601.619,413.499 607.646,413.348 C 611.031,430.373 614.414,447.399 617.799,464.424 C 623.384,492.516 628.122,516.850 628.327,518.500 Z" fill="#FFFFFF" stroke="none" />
  <path id="18" d="M 677.250,365.977 C 709.719,379.874 707.383,377.864 704.411,389.356 C 702.546,396.570 696.545,410 695.188,410 C 693.665,410 669.339,401.517 647.797,393.473 C 622.494,384.025 615.460,380.344 608.642,372.980 C 603.638,367.575 587.873,342.294 574.513,318.250 C 569.122,308.549 566.643,306.159 565.382,309.446 C 564.459,311.851 594.469,363.587 602.521,373.472 C 604.014,375.305 605.507,377.139 607,378.972 C 607,383.779 607,388.585 607,393.392 C 607,398.199 607,403.005 607,407.812 C 605.417,407.999 603.833,408.185 602.250,408.372 C 588.774,409.960 584.292,410.059 571.460,409.052 C 563.782,408.450 554.800,407.505 551.500,406.952 C 538.386,404.756 523.459,401.689 522.728,401.041 C 521.056,399.558 530.192,320.735 534.515,299.349 C 539.622,274.086 548.827,256.215 560.423,249.048 C 561.555,248.348 562.687,247.649 563.819,246.949 C 566.266,247.924 568.712,248.900 571.159,249.875 C 593.206,258.664 595.781,260.514 601.300,271.543 C 603.985,276.908 607.480,287.853 606.744,288.589 C 606.501,288.832 604.632,286.323 602.590,283.015 C 598.941,277.103 596.489,275.562 595.371,278.476 C 595.046,279.323 598.213,285.394 602.803,292.726 C 607.202,299.752 615.620,313.825 621.511,324 C 627.402,334.175 633.409,343.780 634.861,345.344 C 638.287,349.036 642.771,351.220 677.250,365.977 Z" fill="#FFFFFF" stroke="none" />
  <path id="21" d="M 726.917,157.271 C 728.032,154.873 730.316,152.168 732.192,151.024 C 735.406,149.064 737.102,149.007 792,149.007 C 846.618,149.007 848.608,149.074 851.759,150.995 C 860.918,156.579 861.380,170.026 852.627,176.270 C 851.585,177.013 850.542,177.757 849.500,178.500 C 830.441,178.500 811.383,178.500 792.324,178.500 C 736.136,178.500 735.099,178.464 732.385,176.438 C 725.626,171.392 723.620,164.360 726.917,157.271 ZM 851.083,156.766 C 850.111,155.677 849.137,154.589 848.165,153.500 C 830.153,153.406 812.142,153.311 794.130,153.217 C 733.448,152.899 734.226,152.821 731.407,159.568 C 729.432,164.294 730.350,168.275 734.150,171.473 C 735.151,172.315 736.152,173.158 737.153,174 C 755.316,174 773.479,174 791.642,174 C 829.804,174 846.786,173.665 848.316,172.883 C 854.622,169.658 855.908,162.167 851.083,156.766 Z" fill="#1A1A1A" stroke="none" />
  <path id="18" d="M 626.336,180.664 C 628.948,180.879 631.560,181.095 634.172,181.310 C 633.950,183.675 633.729,186.040 633.507,188.405 C 630.406,221.478 618.760,239.884 602.358,237.636 C 596.546,236.839 592.882,234.841 588.091,229.855 C 585.515,227.174 583.585,225.945 582.566,226.336 C 580.219,227.237 580.633,228.588 584.597,232.975 C 587.569,236.265 589.721,237.910 595.723,241.480 C 595.846,241.553 595.552,243.162 595.070,245.056 C 594.588,246.950 593.931,249.683 593.609,251.128 C 593.414,252.004 593.218,252.880 593.023,253.756 C 588.774,251.979 584.527,250.203 580.278,248.426 C 573.268,245.495 567.385,242.655 567.205,242.115 C 567.025,241.576 567.752,238.291 568.819,234.817 C 569.886,231.343 571.095,226.475 571.504,224 C 571.926,221.448 573.494,217.921 575.127,215.852 C 579.341,210.513 582.129,203.861 580.816,202.279 C 580.232,201.576 579.277,201 578.692,201 C 578.107,201 576.587,200.022 575.314,198.826 C 572.367,196.058 572.215,190.785 575,188 C 577.706,185.294 579.335,185.478 583.268,188.931 C 585.208,190.634 587.107,191.553 587.800,191.124 C 588.456,190.718 589.695,188.025 590.552,185.138 C 593.418,175.487 596.890,174.279 611,178.026 C 615.125,179.121 622.026,180.309 626.336,180.664 Z" fill="#FFFFFF" stroke="none" />
  <path id="21" d="M 698.424,430.063 C 699.413,429.242 700.441,429.052 700.966,429.592 C 701.451,430.091 701.995,440.175 702.174,452 C 702.480,472.160 702.646,473.795 704.838,478.247 C 707.734,484.127 713.741,489.394 719.292,490.921 C 722.344,491.760 743.035,491.999 794.579,491.789 C 818.272,491.693 841.965,491.596 865.658,491.500 C 867.289,490.491 868.922,489.483 870.553,488.474 C 873.585,486.599 876.599,483.585 878.474,480.553 C 879.483,478.922 880.491,477.290 881.500,475.659 C 881.595,454.799 881.690,433.939 881.785,413.079 C 882.041,356.792 881.903,350.062 880.412,346.145 C 878.299,340.592 873.811,335.482 868.595,332.691 C 867.230,331.961 865.865,331.230 864.500,330.500 C 840.307,330.500 816.114,330.500 791.921,330.500 C 767.728,330.500 743.536,330.500 719.343,330.500 C 717.713,331.508 716.082,332.516 714.452,333.524 C 707.484,337.832 704.047,343.189 702.680,351.871 C 701.775,357.617 701.213,359 699.779,359 C 698.277,359 698,358.091 698,353.160 C 698,342.379 705.046,332.037 715.662,327.236 C 719.192,325.639 725.319,325.500 792,325.500 C 816.167,325.500 840.333,325.500 864.500,325.500 C 866.394,326.430 868.288,327.360 870.182,328.290 C 876.619,331.451 881.316,336.296 884.394,342.949 C 886.466,347.426 886.500,348.537 886.500,411.500 C 886.500,432.833 886.500,454.167 886.500,475.500 C 885.740,477.042 884.980,478.585 884.220,480.127 C 881.382,485.888 876.174,491.329 870.694,494.258 C 869.296,495.005 867.898,495.753 866.500,496.500 C 841.833,496.500 817.167,496.500 792.500,496.500 C 767.833,496.500 743.167,496.500 718.500,496.500 C 716.714,495.511 714.927,494.521 713.141,493.532 C 710.194,491.900 706.280,488.809 704.445,486.665 C 698.648,479.893 697.811,475.910 697.259,452.471 C 696.817,433.713 696.943,431.292 698.424,430.063 Z" fill="#1A1A1A" stroke="none" />
  <path id="18" d="M 647.082,153.509 C 648.538,157.239 648.027,164.028 645.987,168.026 C 641.753,176.326 631.747,177.996 613.186,173.499 C 596.315,169.412 591.561,170.431 587.599,178.983 C 585.879,182.696 585.017,183.623 583.926,182.933 C 583.142,182.437 580.700,182.034 578.500,182.038 C 571.901,182.049 568,186.513 568,194.052 C 568,197.572 568.611,198.846 571.849,202.084 C 573.132,203.367 574.414,204.650 575.697,205.933 C 574.885,207.295 574.072,208.658 573.260,210.020 C 571.919,212.268 570.300,213.934 569.661,213.722 C 567.921,213.145 563.294,200.453 561.940,192.542 C 560.472,183.968 561.227,169.062 563.433,163.028 C 565.623,157.039 568.549,154.143 573.727,152.839 C 576.766,152.074 578.536,150.902 579.745,148.855 C 582.690,143.870 588.170,140.836 595.259,140.267 C 601.925,139.732 609.081,141.740 625,148.611 C 630.113,150.818 633.080,151.428 638.903,151.468 C 645.341,151.512 646.406,151.778 647.082,153.509 Z" fill="#FFFFFF" stroke="none" />
  <path id="18" d="M 788.750,406.974 C 792.343,409.181 793.224,413.316 790.337,414.424 C 789.405,414.782 780.785,412.369 770.732,408.936 C 758.444,404.740 752.467,403.133 751.763,403.837 C 750.096,405.504 751.634,407.761 754.932,408.485 C 756.968,408.932 758,409.763 758,410.957 C 758,413.702 755.404,415.332 752.256,414.563 C 747.117,413.309 745.570,413.458 745.208,415.247 C 744.977,416.387 745.748,417.334 747.427,417.972 C 750.298,419.064 750.754,421.129 748.530,422.975 C 747.532,423.803 745.442,423.973 742.030,423.504 C 737.372,422.863 737,422.967 737,424.906 C 737,426.062 737.645,427 738.441,427 C 740.551,427 741.354,428.869 739.964,430.544 C 736.182,435.101 725.380,430.043 712.315,417.599 C 709.088,414.526 705.862,411.453 702.635,408.380 C 703.564,406.067 704.494,403.753 705.423,401.440 C 706.956,397.623 708.762,391.800 709.437,388.500 C 710.627,382.678 710.765,382.490 714.082,382.185 C 715.962,382.012 724.375,380.074 732.778,377.877 C 748.203,373.844 751.277,373.674 752.471,376.786 C 753.414,379.242 747.816,384 743.984,384 C 741.712,384 741,384.457 741,385.913 C 741,387.370 742.727,388.474 748.250,390.550 C 768.604,398.199 785.848,405.191 788.750,406.974 Z" fill="#FFFFFF" stroke="none" />
  <path id="18" d="M 851.083,156.766 C 855.908,162.167 854.622,169.658 848.316,172.883 C 846.786,173.665 829.804,174 791.642,174 C 773.479,174 755.316,174 737.153,174 C 736.152,173.158 735.151,172.315 734.150,171.473 C 730.350,168.275 729.432,164.294 731.407,159.568 C 734.226,152.821 733.448,152.899 794.130,153.217 C 812.142,153.311 830.153,153.406 848.165,153.500 C 849.137,154.589 850.111,155.677 851.083,156.766 Z" fill="#FFFFFF" stroke="none" />
  <path id="18" d="M 523.610,658.500 C 526.181,664.270 525.781,664.472 511.203,664.779 C 503.903,664.933 496.252,664.607 494.199,664.054 C 489.665,662.833 462,638.774 462,636.052 C 462,635.087 464.979,630.418 468.621,625.677 C 470.828,622.804 473.035,619.930 475.242,617.057 C 476.944,618.546 478.647,620.035 480.349,621.524 C 483.158,623.981 488.434,627.557 492.073,629.469 C 498.686,632.944 498.689,632.948 500.429,639.375 C 502.709,647.798 504.448,649.513 512.072,650.856 C 518.814,652.044 521.537,653.847 523.610,658.500 Z" fill="#FFFFFF" stroke="none" />
  <path id="21" d="M 907.021,208.966 C 908.299,206.897 911.415,208.784 920.243,216.972 C 947.266,242.036 962.242,278.083 960.724,314.403 C 959.895,334.248 956.590,347.501 947.983,365.500 C 942.336,377.309 933.815,389.523 923.741,400.250 C 921.315,402.833 918.889,405.417 916.463,408 C 919.366,408 922.269,408 925.172,408 C 934.258,408 936.878,409.154 933.462,411.652 C 932.152,412.610 928.056,413 919.309,413 C 915.206,413 911.103,413 907,413 C 907,412.037 907,411.073 907,410.110 C 907,407.607 909.030,395.072 910.540,388.250 C 910.863,386.791 911.774,386 913.134,386 C 915.113,386 915.185,386.323 914.425,391.750 C 913.982,394.913 913.593,399.052 913.560,400.948 C 913.500,404.385 913.528,404.365 921.905,394.948 C 945.130,368.840 956,341.756 956,310 C 956,284.936 949.543,263.755 935.362,242.303 C 929.461,233.376 917.609,220.259 911.143,215.500 C 906.572,212.135 905.810,210.926 907.021,208.966 Z" fill="#1A1A1A" stroke="none" />
  <path id="18" d="M 653.989,657.640 C 655.645,659.526 657,661.954 657,663.035 C 657,664.945 656.154,665 626.622,665 C 600.593,665 596.064,664.781 594.977,663.472 C 594,662.295 593.914,659.537 594.604,651.470 C 594.903,647.979 595.201,644.488 595.500,640.997 C 600.167,640.899 604.833,640.801 609.500,640.703 C 623.306,640.414 623.552,640.448 627.246,643.094 C 629.306,644.570 635.489,647.675 640.985,649.994 C 647.932,652.925 651.895,655.256 653.989,657.640 Z" fill="#FFFFFF" stroke="none" />
  <path id="18" d="M 531.706,287 C 531.987,287 531.903,288.237 531.519,289.750 C 528.531,301.534 524.905,326.129 521.457,358 C 519.999,371.475 518.654,382.659 518.468,382.852 C 517.915,383.427 512.256,374.084 507.956,365.500 C 500.712,351.039 501.377,342.219 511.191,322.574 C 516.614,311.719 530.869,287 531.706,287 Z" fill="#FFFFFF" stroke="none" />
  <path id="20" d="M 776,396 C 782.893,390.739 786.570,389.004 788.903,388.631 C 797.852,387.200 808.252,392.941 812.114,401.444 C 814.498,406.694 814.507,415.289 812.134,420.500 C 807.889,429.821 796.586,435.582 787.396,433.107 C 779.501,430.981 774.136,425.964 771.450,418.195 C 770.967,416.797 770.483,415.398 770,414 C 773,415 776,416 779,417 C 780.050,417.333 781.099,417.667 782.149,418 C 790.790,420.744 797,418.082 797,411.635 C 797,406.832 793.968,403.608 787,401 C 783.333,399.333 779.667,397.667 776,396 Z" fill="#F44E4B" stroke="none" />
  <path id="21" d="M 729.176,229.488 C 729.904,229.210 758.625,229.098 793,229.241 C 854.747,229.497 855.500,229.524 855.500,231.500 C 855.500,233.479 854.834,233.500 792.014,233.500 C 732.304,233.500 728.508,233.396 728.190,231.747 C 728.004,230.783 728.448,229.766 729.176,229.488 Z" fill="#1A1A1A" stroke="none" />
  <path id="21" d="M 729.176,205.488 C 729.904,205.210 758.625,205.098 793,205.241 C 854.747,205.497 855.500,205.524 855.500,207.500 C 855.500,209.479 854.834,209.500 792.014,209.500 C 732.304,209.500 728.508,209.396 728.190,207.747 C 728.004,206.783 728.448,205.766 729.176,205.488 Z" fill="#1A1A1A" stroke="none" />
  <path id="21" d="M 729.178,253.485 C 729.907,253.205 748.278,253.094 770.002,253.238 C 808.746,253.495 809.500,253.538 809.500,255.500 C 809.500,257.467 808.834,257.500 769.014,257.500 C 731.224,257.500 728.505,257.383 728.190,255.747 C 728.004,254.783 728.449,253.765 729.178,253.485 Z" fill="#1A1A1A" stroke="none" />
  <path id="21" d="M 763.624,428 C 764.517,428 767.050,430.046 769.251,432.547 C 771.453,435.048 775.559,438.304 778.377,439.783 C 785.244,443.387 797.955,443.652 805.149,440.341 C 811.399,437.465 817.641,431.014 820.817,424.148 C 824.256,416.714 824.459,405.841 821.290,398.824 C 818.458,392.552 811.700,385.409 805.540,382.175 C 801.247,379.921 799.239,379.526 792,379.514 C 784.062,379.501 783.058,379.744 776.823,383.191 C 771.292,386.249 769.951,386.646 769.006,385.508 C 767.414,383.590 770.695,380.498 777.852,377.170 C 782.561,374.980 784.913,374.545 792,374.552 C 803.048,374.564 810.611,377.780 818.028,385.623 C 837.461,406.170 828.620,438.881 801.558,446.566 C 789.367,450.028 774.759,445.886 766.127,436.522 C 761.870,431.903 760.723,428 763.624,428 Z" fill="#1A1A1A" stroke="none" />
  <path id="22" d="M 787,401 C 793.968,403.608 797,406.832 797,411.635 C 797,418.082 790.790,420.744 782.149,418 C 781.099,417.667 780.050,417.333 779,417 C 789.463,416.612 793.062,416.136 793.750,415.691 C 794.438,415.246 795,413.338 795,411.451 C 795,408.513 794.317,407.519 790.250,404.535 C 787.638,402.618 785.838,401.039 786.250,401.025 C 786.500,401.017 786.750,401.008 787,401 Z" fill="#2D1917" stroke="none" />
</svg>
